<?xml version="1.0" encoding="UTF-8" standalone="no"?>
<!DOCTYPE svg PUBLIC "-//W3C//DTD SVG 1.1//EN"
 "http://www.w3.org/Graphics/SVG/1.1/DTD/svg11.dtd">
<!-- Generated by graphviz version 2.47.0 (20210316.0004)
 -->
<!-- Title: dependencies Pages: 1 -->
<svg width="848pt" height="284pt"
 viewBox="0.00 0.00 848.00 284.00" xmlns="http://www.w3.org/2000/svg" xmlns:xlink="http://www.w3.org/1999/xlink">
<g id="graph0" class="graph" transform="scale(1 1) rotate(0) translate(4 280)">
<title>dependencies</title>
<polygon fill="white" stroke="transparent" points="-4,4 -4,-280 844,-280 844,4 -4,4"/>
<text text-anchor="start" x="399.01" y="-42.4" font-family="Times-12" font-weight="bold" font-size="14.00">Legend</text>
<polygon fill="#ffffb3" stroke="transparent" points="186,-10 186,-30 206,-30 206,-10 186,-10"/>
<text text-anchor="start" x="209.63" y="-15.4" font-family="Times-12" font-size="14.00"> &#160;Declarations</text>
<polygon fill="#8dd3c7" stroke="transparent" points="299,-10 299,-30 319,-30 319,-10 299,-10"/>
<text text-anchor="start" x="322.73" y="-15.4" font-family="Times-12" font-size="14.00"> &#160;Module</text>
<polygon fill="#80b1d3" stroke="transparent" points="385,-10 385,-30 405,-30 405,-10 385,-10"/>
<text text-anchor="start" x="408.78" y="-15.4" font-family="Times-12" font-size="14.00"> &#160;Bootstrap</text>
<polygon fill="#fdb462" stroke="transparent" points="482,-10 482,-30 502,-30 502,-10 482,-10"/>
<text text-anchor="start" x="505.67" y="-15.4" font-family="Times-12" font-size="14.00"> &#160;Providers</text>
<polygon fill="#fb8072" stroke="transparent" points="578,-10 578,-30 598,-30 598,-10 578,-10"/>
<text text-anchor="start" x="601.73" y="-15.4" font-family="Times-12" font-size="14.00"> &#160;Exports</text>
<g id="clust1" class="cluster">
<title>cluster_SharedModule</title>
<polygon fill="none" stroke="black" stroke-dasharray="1,5" points="8,-70 8,-268 832,-268 832,-70 8,-70"/>
</g>
<g id="clust2" class="cluster">
<title>cluster_SharedModule_declarations</title>
<polygon fill="none" stroke="black" points="253,-78 253,-130 744,-130 744,-78 253,-78"/>
</g>
<g id="clust6" class="cluster">
<title>cluster_SharedModule_imports</title>
<polygon fill="none" stroke="black" points="117,-78 117,-130 245,-130 245,-78 117,-78"/>
</g>
<g id="clust7" class="cluster">
<title>cluster_SharedModule_exports</title>
<polygon fill="none" stroke="black" points="16,-208 16,-260 824,-260 824,-208 16,-208"/>
</g>
<!-- AlertComponent -->
<g id="node1" class="node">
<title>AlertComponent</title>
<polygon fill="#ffffb3" stroke="black" points="736.1,-122 625.9,-122 625.9,-86 736.1,-86 736.1,-122"/>
<text text-anchor="middle" x="681" y="-99.8" font-family="Times,serif" font-size="14.00">AlertComponent</text>
</g>
<!-- SharedModule -->
<g id="node4" class="node">
<title>SharedModule</title>
<polygon fill="#8dd3c7" stroke="black" points="502.42,-187 499.42,-191 478.42,-191 475.42,-187 403.58,-187 403.58,-151 502.42,-151 502.42,-187"/>
<text text-anchor="middle" x="453" y="-164.8" font-family="Times,serif" font-size="14.00">SharedModule</text>
</g>
<!-- AlertComponent&#45;&gt;SharedModule -->
<g id="edge1" class="edge">
<title>AlertComponent&#45;&gt;SharedModule</title>
<path fill="none" stroke="black" d="M650.93,-122.03C650.93,-138.4 650.93,-160 650.93,-160 650.93,-160 512.43,-160 512.43,-160"/>
<polygon fill="black" stroke="black" points="512.43,-156.5 502.43,-160 512.43,-163.5 512.43,-156.5"/>
</g>
<!-- AlertScreenComponent -->
<g id="node2" class="node">
<title>AlertScreenComponent</title>
<polygon fill="#ffffb3" stroke="black" points="608.18,-122 459.82,-122 459.82,-86 608.18,-86 608.18,-122"/>
<text text-anchor="middle" x="534" y="-99.8" font-family="Times,serif" font-size="14.00">AlertScreenComponent</text>
</g>
<!-- AlertScreenComponent&#45;&gt;SharedModule -->
<g id="edge2" class="edge">
<title>AlertScreenComponent&#45;&gt;SharedModule</title>
<path fill="none" stroke="black" d="M481.06,-122.11C481.06,-122.11 481.06,-140.99 481.06,-140.99"/>
<polygon fill="black" stroke="black" points="477.56,-140.99 481.06,-150.99 484.56,-140.99 477.56,-140.99"/>
</g>
<!-- CenteredSkeletonComponent -->
<g id="node3" class="node">
<title>CenteredSkeletonComponent</title>
<polygon fill="#ffffb3" stroke="black" points="441.36,-122 260.64,-122 260.64,-86 441.36,-86 441.36,-122"/>
<text text-anchor="middle" x="351" y="-99.8" font-family="Times,serif" font-size="14.00">CenteredSkeletonComponent</text>
</g>
<!-- CenteredSkeletonComponent&#45;&gt;SharedModule -->
<g id="edge3" class="edge">
<title>CenteredSkeletonComponent&#45;&gt;SharedModule</title>
<path fill="none" stroke="black" d="M422.61,-122.11C422.61,-122.11 422.61,-140.99 422.61,-140.99"/>
<polygon fill="black" stroke="black" points="419.11,-140.99 422.61,-150.99 426.11,-140.99 419.11,-140.99"/>
</g>
<!-- HttpClientModule  -->
<g id="node6" class="node">
<title>HttpClientModule </title>
<polygon fill="#fb8072" stroke="black" points="816.16,-252 693.84,-252 693.84,-216 816.16,-216 816.16,-252"/>
<text text-anchor="middle" x="755" y="-229.8" font-family="Times,serif" font-size="14.00">HttpClientModule </text>
</g>
<!-- SharedModule&#45;&gt;HttpClientModule  -->
<g id="edge5" class="edge">
<title>SharedModule&#45;&gt;HttpClientModule </title>
<path fill="none" stroke="black" stroke-dasharray="5,2" d="M502.28,-169C578.17,-169 714.98,-169 714.98,-169 714.98,-169 714.98,-205.89 714.98,-205.89"/>
<polygon fill="black" stroke="black" points="711.48,-205.89 714.98,-215.89 718.48,-205.89 711.48,-205.89"/>
</g>
<!-- ReactiveFormsModule  -->
<g id="node7" class="node">
<title>ReactiveFormsModule </title>
<polygon fill="#fb8072" stroke="black" points="675.8,-252 528.2,-252 528.2,-216 675.8,-216 675.8,-252"/>
<text text-anchor="middle" x="602" y="-229.8" font-family="Times,serif" font-size="14.00">ReactiveFormsModule </text>
</g>
<!-- SharedModule&#45;&gt;ReactiveFormsModule  -->
<g id="edge6" class="edge">
<title>SharedModule&#45;&gt;ReactiveFormsModule </title>
<path fill="none" stroke="black" stroke-dasharray="5,2" d="M502.48,-178C533.67,-178 568.09,-178 568.09,-178 568.09,-178 568.09,-205.97 568.09,-205.97"/>
<polygon fill="black" stroke="black" points="564.59,-205.97 568.09,-215.97 571.59,-205.97 564.59,-205.97"/>
</g>
<!-- AlertComponent  -->
<g id="node8" class="node">
<title>AlertComponent </title>
<polygon fill="#fb8072" stroke="black" points="509.6,-252 396.4,-252 396.4,-216 509.6,-216 509.6,-252"/>
<text text-anchor="middle" x="453" y="-229.8" font-family="Times,serif" font-size="14.00">AlertComponent </text>
</g>
<!-- SharedModule&#45;&gt;AlertComponent  -->
<g id="edge7" class="edge">
<title>SharedModule&#45;&gt;AlertComponent </title>
<path fill="none" stroke="black" stroke-dasharray="5,2" d="M453,-187.11C453,-187.11 453,-205.99 453,-205.99"/>
<polygon fill="black" stroke="black" points="449.5,-205.99 453,-215.99 456.5,-205.99 449.5,-205.99"/>
</g>
<!-- AlertScreenComponent  -->
<g id="node9" class="node">
<title>AlertScreenComponent </title>
<polygon fill="#fb8072" stroke="black" points="377.68,-252 226.32,-252 226.32,-216 377.68,-216 377.68,-252"/>
<text text-anchor="middle" x="302" y="-229.8" font-family="Times,serif" font-size="14.00">AlertScreenComponent </text>
</g>
<!-- SharedModule&#45;&gt;AlertScreenComponent  -->
<g id="edge8" class="edge">
<title>SharedModule&#45;&gt;AlertScreenComponent </title>
<path fill="none" stroke="black" stroke-dasharray="5,2" d="M403.56,-178C365.45,-178 319.21,-178 319.21,-178 319.21,-178 319.21,-205.97 319.21,-205.97"/>
<polygon fill="black" stroke="black" points="315.71,-205.97 319.21,-215.97 322.71,-205.97 315.71,-205.97"/>
</g>
<!-- CenteredSkeletonComponent  -->
<g id="node10" class="node">
<title>CenteredSkeletonComponent </title>
<polygon fill="#fb8072" stroke="black" points="208.36,-252 23.64,-252 23.64,-216 208.36,-216 208.36,-252"/>
<text text-anchor="middle" x="116" y="-229.8" font-family="Times,serif" font-size="14.00">CenteredSkeletonComponent </text>
</g>
<!-- SharedModule&#45;&gt;CenteredSkeletonComponent  -->
<g id="edge9" class="edge">
<title>SharedModule&#45;&gt;CenteredSkeletonComponent </title>
<path fill="none" stroke="black" stroke-dasharray="5,2" d="M403.78,-169C321.91,-169 166.67,-169 166.67,-169 166.67,-169 166.67,-205.89 166.67,-205.89"/>
<polygon fill="black" stroke="black" points="163.17,-205.89 166.67,-215.89 170.17,-205.89 163.17,-205.89"/>
</g>
<!-- CommonModule -->
<g id="node5" class="node">
<title>CommonModule</title>
<polygon fill="#8dd3c7" stroke="black" points="236.67,-122 233.67,-126 212.67,-126 209.67,-122 125.33,-122 125.33,-86 236.67,-86 236.67,-122"/>
<text text-anchor="middle" x="181" y="-99.8" font-family="Times,serif" font-size="14.00">CommonModule</text>
</g>
<!-- CommonModule&#45;&gt;SharedModule -->
<g id="edge4" class="edge">
<title>CommonModule&#45;&gt;SharedModule</title>
<path fill="none" stroke="black" d="M231.5,-122.03C231.5,-138.4 231.5,-160 231.5,-160 231.5,-160 393.57,-160 393.57,-160"/>
<polygon fill="black" stroke="black" points="393.57,-163.5 403.57,-160 393.57,-156.5 393.57,-163.5"/>
</g>
</g>
</svg>
