<?xml version="1.0" encoding="UTF-8" standalone="no"?>
<!DOCTYPE svg PUBLIC "-//W3C//DTD SVG 1.1//EN"
 "http://www.w3.org/Graphics/SVG/1.1/DTD/svg11.dtd">
<!-- Generated by graphviz version 2.47.0 (20210316.0004)
 -->
<!-- Title: dependencies Pages: 1 -->
<svg width="1145pt" height="284pt"
 viewBox="0.00 0.00 1145.00 284.00" xmlns="http://www.w3.org/2000/svg" xmlns:xlink="http://www.w3.org/1999/xlink">
<g id="graph0" class="graph" transform="scale(1 1) rotate(0) translate(4 280)">
<title>dependencies</title>
<polygon fill="white" stroke="transparent" points="-4,4 -4,-280 1141,-280 1141,4 -4,4"/>
<text text-anchor="start" x="547.51" y="-42.4" font-family="Times-12" font-weight="bold" font-size="14.00">Legend</text>
<polygon fill="#ffffb3" stroke="transparent" points="334.5,-10 334.5,-30 354.5,-30 354.5,-10 334.5,-10"/>
<text text-anchor="start" x="358.13" y="-15.4" font-family="Times-12" font-size="14.00"> &#160;Declarations</text>
<polygon fill="#8dd3c7" stroke="transparent" points="447.5,-10 447.5,-30 467.5,-30 467.5,-10 447.5,-10"/>
<text text-anchor="start" x="471.23" y="-15.4" font-family="Times-12" font-size="14.00"> &#160;Module</text>
<polygon fill="#80b1d3" stroke="transparent" points="533.5,-10 533.5,-30 553.5,-30 553.5,-10 533.5,-10"/>
<text text-anchor="start" x="557.28" y="-15.4" font-family="Times-12" font-size="14.00"> &#160;Bootstrap</text>
<polygon fill="#fdb462" stroke="transparent" points="630.5,-10 630.5,-30 650.5,-30 650.5,-10 630.5,-10"/>
<text text-anchor="start" x="654.17" y="-15.4" font-family="Times-12" font-size="14.00"> &#160;Providers</text>
<polygon fill="#fb8072" stroke="transparent" points="726.5,-10 726.5,-30 746.5,-30 746.5,-10 726.5,-10"/>
<text text-anchor="start" x="750.23" y="-15.4" font-family="Times-12" font-size="14.00"> &#160;Exports</text>
<g id="clust1" class="cluster">
<title>cluster_SharedModule</title>
<polygon fill="none" stroke="black" stroke-dasharray="1,5" points="8,-70 8,-268 1129,-268 1129,-70 8,-70"/>
</g>
<g id="clust9" class="cluster">
<title>cluster_SharedModule_exports</title>
<polygon fill="none" stroke="black" points="16,-208 16,-260 1121,-260 1121,-208 16,-208"/>
</g>
<g id="clust8" class="cluster">
<title>cluster_SharedModule_imports</title>
<polygon fill="none" stroke="black" points="905,-78 905,-130 1033,-130 1033,-78 905,-78"/>
</g>
<g id="clust2" class="cluster">
<title>cluster_SharedModule_declarations</title>
<polygon fill="none" stroke="black" points="116,-78 116,-130 897,-130 897,-78 116,-78"/>
</g>
<!-- AlertComponent -->
<g id="node1" class="node">
<title>AlertComponent</title>
<polygon fill="#ffffb3" stroke="black" points="889.1,-122 778.9,-122 778.9,-86 889.1,-86 889.1,-122"/>
<text text-anchor="middle" x="834" y="-99.8" font-family="Times,serif" font-size="14.00">AlertComponent</text>
</g>
<!-- SharedModule -->
<g id="node6" class="node">
<title>SharedModule</title>
<polygon fill="#8dd3c7" stroke="black" points="648.42,-187 645.42,-191 624.42,-191 621.42,-187 549.58,-187 549.58,-151 648.42,-151 648.42,-187"/>
<text text-anchor="middle" x="599" y="-164.8" font-family="Times,serif" font-size="14.00">SharedModule</text>
</g>
<!-- AlertComponent&#45;&gt;SharedModule -->
<g id="edge1" class="edge">
<title>AlertComponent&#45;&gt;SharedModule</title>
<path fill="none" stroke="black" d="M792.88,-122.24C792.88,-137.57 792.88,-157 792.88,-157 792.88,-157 658.42,-157 658.42,-157"/>
<polygon fill="black" stroke="black" points="658.42,-153.5 648.42,-157 658.42,-160.5 658.42,-153.5"/>
</g>
<!-- AlertScreenComponent -->
<g id="node2" class="node">
<title>AlertScreenComponent</title>
<polygon fill="#ffffb3" stroke="black" points="761.18,-122 612.82,-122 612.82,-86 761.18,-86 761.18,-122"/>
<text text-anchor="middle" x="687" y="-99.8" font-family="Times,serif" font-size="14.00">AlertScreenComponent</text>
</g>
<!-- AlertScreenComponent&#45;&gt;SharedModule -->
<g id="edge2" class="edge">
<title>AlertScreenComponent&#45;&gt;SharedModule</title>
<path fill="none" stroke="black" d="M630.56,-122.11C630.56,-122.11 630.56,-140.99 630.56,-140.99"/>
<polygon fill="black" stroke="black" points="627.06,-140.99 630.56,-150.99 634.06,-140.99 627.06,-140.99"/>
</g>
<!-- CenteredSkeletonComponent -->
<g id="node3" class="node">
<title>CenteredSkeletonComponent</title>
<polygon fill="#ffffb3" stroke="black" points="594.36,-122 413.64,-122 413.64,-86 594.36,-86 594.36,-122"/>
<text text-anchor="middle" x="504" y="-99.8" font-family="Times,serif" font-size="14.00">CenteredSkeletonComponent</text>
</g>
<!-- CenteredSkeletonComponent&#45;&gt;SharedModule -->
<g id="edge3" class="edge">
<title>CenteredSkeletonComponent&#45;&gt;SharedModule</title>
<path fill="none" stroke="black" d="M572.11,-122.11C572.11,-122.11 572.11,-140.99 572.11,-140.99"/>
<polygon fill="black" stroke="black" points="568.61,-140.99 572.11,-150.99 575.61,-140.99 568.61,-140.99"/>
</g>
<!-- ModalVideoComponent -->
<g id="node4" class="node">
<title>ModalVideoComponent</title>
<polygon fill="#ffffb3" stroke="black" points="396.09,-122 243.91,-122 243.91,-86 396.09,-86 396.09,-122"/>
<text text-anchor="middle" x="320" y="-99.8" font-family="Times,serif" font-size="14.00">ModalVideoComponent</text>
</g>
<!-- ModalVideoComponent&#45;&gt;SharedModule -->
<g id="edge4" class="edge">
<title>ModalVideoComponent&#45;&gt;SharedModule</title>
<path fill="none" stroke="black" d="M358.43,-122.24C358.43,-137.57 358.43,-157 358.43,-157 358.43,-157 539.74,-157 539.74,-157"/>
<polygon fill="black" stroke="black" points="539.74,-160.5 549.74,-157 539.74,-153.5 539.74,-160.5"/>
</g>
<!-- ScrollDirective -->
<g id="node5" class="node">
<title>ScrollDirective</title>
<polygon fill="#ffffb3" stroke="black" points="225.52,-122 124.48,-122 124.48,-86 225.52,-86 225.52,-122"/>
<text text-anchor="middle" x="175" y="-99.8" font-family="Times,serif" font-size="14.00">ScrollDirective</text>
</g>
<!-- ScrollDirective&#45;&gt;SharedModule -->
<g id="edge5" class="edge">
<title>ScrollDirective&#45;&gt;SharedModule</title>
<path fill="none" stroke="black" d="M186.48,-122.02C186.48,-139.37 186.48,-163 186.48,-163 186.48,-163 539.65,-163 539.65,-163"/>
<polygon fill="black" stroke="black" points="539.65,-166.5 549.65,-163 539.65,-159.5 539.65,-166.5"/>
</g>
<!-- HttpClientModule  -->
<g id="node8" class="node">
<title>HttpClientModule </title>
<polygon fill="#fb8072" stroke="black" points="1113.16,-252 990.84,-252 990.84,-216 1113.16,-216 1113.16,-252"/>
<text text-anchor="middle" x="1052" y="-229.8" font-family="Times,serif" font-size="14.00">HttpClientModule </text>
</g>
<!-- SharedModule&#45;&gt;HttpClientModule  -->
<g id="edge7" class="edge">
<title>SharedModule&#45;&gt;HttpClientModule </title>
<path fill="none" stroke="black" stroke-dasharray="5,2" d="M648.32,-169C757.07,-169 1007.88,-169 1007.88,-169 1007.88,-169 1007.88,-205.89 1007.88,-205.89"/>
<polygon fill="black" stroke="black" points="1004.38,-205.89 1007.88,-215.89 1011.38,-205.89 1004.38,-205.89"/>
</g>
<!-- ReactiveFormsModule  -->
<g id="node9" class="node">
<title>ReactiveFormsModule </title>
<polygon fill="#fb8072" stroke="black" points="972.8,-252 825.2,-252 825.2,-216 972.8,-216 972.8,-252"/>
<text text-anchor="middle" x="899" y="-229.8" font-family="Times,serif" font-size="14.00">ReactiveFormsModule </text>
</g>
<!-- SharedModule&#45;&gt;ReactiveFormsModule  -->
<g id="edge8" class="edge">
<title>SharedModule&#45;&gt;ReactiveFormsModule </title>
<path fill="none" stroke="black" stroke-dasharray="5,2" d="M648.45,-175C723.39,-175 857.07,-175 857.07,-175 857.07,-175 857.07,-205.98 857.07,-205.98"/>
<polygon fill="black" stroke="black" points="853.57,-205.98 857.07,-215.98 860.57,-205.98 853.57,-205.98"/>
</g>
<!-- AlertComponent  -->
<g id="node10" class="node">
<title>AlertComponent </title>
<polygon fill="#fb8072" stroke="black" points="806.6,-252 693.4,-252 693.4,-216 806.6,-216 806.6,-252"/>
<text text-anchor="middle" x="750" y="-229.8" font-family="Times,serif" font-size="14.00">AlertComponent </text>
</g>
<!-- SharedModule&#45;&gt;AlertComponent  -->
<g id="edge9" class="edge">
<title>SharedModule&#45;&gt;AlertComponent </title>
<path fill="none" stroke="black" stroke-dasharray="5,2" d="M648.54,-181C684.61,-181 727.15,-181 727.15,-181 727.15,-181 727.15,-205.76 727.15,-205.76"/>
<polygon fill="black" stroke="black" points="723.65,-205.76 727.15,-215.76 730.65,-205.76 723.65,-205.76"/>
</g>
<!-- AlertScreenComponent  -->
<g id="node11" class="node">
<title>AlertScreenComponent </title>
<polygon fill="#fb8072" stroke="black" points="674.68,-252 523.32,-252 523.32,-216 674.68,-216 674.68,-252"/>
<text text-anchor="middle" x="599" y="-229.8" font-family="Times,serif" font-size="14.00">AlertScreenComponent </text>
</g>
<!-- SharedModule&#45;&gt;AlertScreenComponent  -->
<g id="edge10" class="edge">
<title>SharedModule&#45;&gt;AlertScreenComponent </title>
<path fill="none" stroke="black" stroke-dasharray="5,2" d="M599,-187.11C599,-187.11 599,-205.99 599,-205.99"/>
<polygon fill="black" stroke="black" points="595.5,-205.99 599,-215.99 602.5,-205.99 595.5,-205.99"/>
</g>
<!-- CenteredSkeletonComponent  -->
<g id="node12" class="node">
<title>CenteredSkeletonComponent </title>
<polygon fill="#fb8072" stroke="black" points="505.36,-252 320.64,-252 320.64,-216 505.36,-216 505.36,-252"/>
<text text-anchor="middle" x="413" y="-229.8" font-family="Times,serif" font-size="14.00">CenteredSkeletonComponent </text>
</g>
<!-- SharedModule&#45;&gt;CenteredSkeletonComponent  -->
<g id="edge11" class="edge">
<title>SharedModule&#45;&gt;CenteredSkeletonComponent </title>
<path fill="none" stroke="black" stroke-dasharray="5,2" d="M549.77,-181C509.57,-181 459.38,-181 459.38,-181 459.38,-181 459.38,-205.76 459.38,-205.76"/>
<polygon fill="black" stroke="black" points="455.88,-205.76 459.38,-215.76 462.88,-205.76 455.88,-205.76"/>
</g>
<!-- ModalVideoComponent  -->
<g id="node13" class="node">
<title>ModalVideoComponent </title>
<polygon fill="#fb8072" stroke="black" points="302.59,-252 147.41,-252 147.41,-216 302.59,-216 302.59,-252"/>
<text text-anchor="middle" x="225" y="-229.8" font-family="Times,serif" font-size="14.00">ModalVideoComponent </text>
</g>
<!-- SharedModule&#45;&gt;ModalVideoComponent  -->
<g id="edge12" class="edge">
<title>SharedModule&#45;&gt;ModalVideoComponent </title>
<path fill="none" stroke="black" stroke-dasharray="5,2" d="M549.54,-175C458.45,-175 273.38,-175 273.38,-175 273.38,-175 273.38,-205.98 273.38,-205.98"/>
<polygon fill="black" stroke="black" points="269.88,-205.98 273.38,-215.98 276.88,-205.98 269.88,-205.98"/>
</g>
<!-- ScrollDirective  -->
<g id="node14" class="node">
<title>ScrollDirective </title>
<polygon fill="#fb8072" stroke="black" points="129.52,-252 24.48,-252 24.48,-216 129.52,-216 129.52,-252"/>
<text text-anchor="middle" x="77" y="-229.8" font-family="Times,serif" font-size="14.00">ScrollDirective </text>
</g>
<!-- SharedModule&#45;&gt;ScrollDirective  -->
<g id="edge13" class="edge">
<title>SharedModule&#45;&gt;ScrollDirective </title>
<path fill="none" stroke="black" stroke-dasharray="5,2" d="M549.64,-169C419.04,-169 74.36,-169 74.36,-169 74.36,-169 74.36,-205.89 74.36,-205.89"/>
<polygon fill="black" stroke="black" points="70.86,-205.89 74.36,-215.89 77.86,-205.89 70.86,-205.89"/>
</g>
<!-- CommonModule -->
<g id="node7" class="node">
<title>CommonModule</title>
<polygon fill="#8dd3c7" stroke="black" points="1024.67,-122 1021.67,-126 1000.67,-126 997.67,-122 913.33,-122 913.33,-86 1024.67,-86 1024.67,-122"/>
<text text-anchor="middle" x="969" y="-99.8" font-family="Times,serif" font-size="14.00">CommonModule</text>
</g>
<!-- CommonModule&#45;&gt;SharedModule -->
<g id="edge6" class="edge">
<title>CommonModule&#45;&gt;SharedModule</title>
<path fill="none" stroke="black" d="M943.03,-122.02C943.03,-139.37 943.03,-163 943.03,-163 943.03,-163 658.29,-163 658.29,-163"/>
<polygon fill="black" stroke="black" points="658.29,-159.5 648.29,-163 658.29,-166.5 658.29,-159.5"/>
</g>
</g>
</svg>
