<?xml version="1.0" encoding="UTF-8" standalone="no"?>
<!DOCTYPE svg PUBLIC "-//W3C//DTD SVG 1.1//EN"
 "http://www.w3.org/Graphics/SVG/1.1/DTD/svg11.dtd">
<!-- Generated by graphviz version 2.47.0 (20210316.0004)
 -->
<!-- Title: dependencies Pages: 1 -->
<svg width="504pt" height="211pt"
 viewBox="0.00 0.00 504.00 211.00" xmlns="http://www.w3.org/2000/svg" xmlns:xlink="http://www.w3.org/1999/xlink">
<g id="graph0" class="graph" transform="scale(1 1) rotate(0) translate(4 207)">
<title>dependencies</title>
<polygon fill="white" stroke="transparent" points="-4,4 -4,-207 500,-207 500,4 -4,4"/>
<text text-anchor="start" x="227.01" y="-42.4" font-family="Times-12" font-weight="bold" font-size="14.00">Legend</text>
<polygon fill="#ffffb3" stroke="transparent" points="14,-10 14,-30 34,-30 34,-10 14,-10"/>
<text text-anchor="start" x="37.63" y="-15.4" font-family="Times-12" font-size="14.00"> &#160;Declarations</text>
<polygon fill="#8dd3c7" stroke="transparent" points="127,-10 127,-30 147,-30 147,-10 127,-10"/>
<text text-anchor="start" x="150.73" y="-15.4" font-family="Times-12" font-size="14.00"> &#160;Module</text>
<polygon fill="#80b1d3" stroke="transparent" points="213,-10 213,-30 233,-30 233,-10 213,-10"/>
<text text-anchor="start" x="236.78" y="-15.4" font-family="Times-12" font-size="14.00"> &#160;Bootstrap</text>
<polygon fill="#fdb462" stroke="transparent" points="310,-10 310,-30 330,-30 330,-10 310,-10"/>
<text text-anchor="start" x="333.67" y="-15.4" font-family="Times-12" font-size="14.00"> &#160;Providers</text>
<polygon fill="#fb8072" stroke="transparent" points="406,-10 406,-30 426,-30 426,-10 406,-10"/>
<text text-anchor="start" x="429.73" y="-15.4" font-family="Times-12" font-size="14.00"> &#160;Exports</text>
<g id="clust1" class="cluster">
<title>cluster_UserModule</title>
<polygon fill="none" stroke="black" stroke-dasharray="1,5" points="16.5,-70 16.5,-195 479.5,-195 479.5,-70 16.5,-70"/>
</g>
<g id="clust4" class="cluster">
<title>cluster_UserModule_imports</title>
<polygon fill="none" stroke="black" points="194.5,-78 194.5,-130 471.5,-130 471.5,-78 194.5,-78"/>
</g>
<g id="clust2" class="cluster">
<title>cluster_UserModule_declarations</title>
<polygon fill="none" stroke="black" points="24.5,-78 24.5,-130 186.5,-130 186.5,-78 24.5,-78"/>
</g>
<!-- UOverviewComponent -->
<g id="node1" class="node">
<title>UOverviewComponent</title>
<polygon fill="#ffffb3" stroke="black" points="178.63,-122 32.37,-122 32.37,-86 178.63,-86 178.63,-122"/>
<text text-anchor="middle" x="105.5" y="-99.8" font-family="Times,serif" font-size="14.00">UOverviewComponent</text>
</g>
<!-- UserModule -->
<g id="node2" class="node">
<title>UserModule</title>
<polygon fill="#8dd3c7" stroke="black" points="311.48,-187 308.48,-191 287.48,-191 284.48,-187 225.52,-187 225.52,-151 311.48,-151 311.48,-187"/>
<text text-anchor="middle" x="268.5" y="-164.8" font-family="Times,serif" font-size="14.00">UserModule</text>
</g>
<!-- UOverviewComponent&#45;&gt;UserModule -->
<g id="edge1" class="edge">
<title>UOverviewComponent&#45;&gt;UserModule</title>
<path fill="none" stroke="black" d="M105.5,-122.11C105.5,-141.34 105.5,-169 105.5,-169 105.5,-169 215.25,-169 215.25,-169"/>
<polygon fill="black" stroke="black" points="215.25,-172.5 225.25,-169 215.25,-165.5 215.25,-172.5"/>
</g>
<!-- CommonModule -->
<g id="node3" class="node">
<title>CommonModule</title>
<polygon fill="#8dd3c7" stroke="black" points="463.17,-122 460.17,-126 439.17,-126 436.17,-122 351.83,-122 351.83,-86 463.17,-86 463.17,-122"/>
<text text-anchor="middle" x="407.5" y="-99.8" font-family="Times,serif" font-size="14.00">CommonModule</text>
</g>
<!-- CommonModule&#45;&gt;UserModule -->
<g id="edge2" class="edge">
<title>CommonModule&#45;&gt;UserModule</title>
<path fill="none" stroke="black" d="M407.5,-122.11C407.5,-141.34 407.5,-169 407.5,-169 407.5,-169 321.72,-169 321.72,-169"/>
<polygon fill="black" stroke="black" points="321.72,-165.5 311.72,-169 321.72,-172.5 321.72,-165.5"/>
</g>
<!-- UserRoutingModule -->
<g id="node4" class="node">
<title>UserRoutingModule</title>
<polygon fill="#8dd3c7" stroke="black" points="334.09,-122 331.09,-126 310.09,-126 307.09,-122 202.91,-122 202.91,-86 334.09,-86 334.09,-122"/>
<text text-anchor="middle" x="268.5" y="-99.8" font-family="Times,serif" font-size="14.00">UserRoutingModule</text>
</g>
<!-- UserRoutingModule&#45;&gt;UserModule -->
<g id="edge3" class="edge">
<title>UserRoutingModule&#45;&gt;UserModule</title>
<path fill="none" stroke="black" d="M268.5,-122.11C268.5,-122.11 268.5,-140.99 268.5,-140.99"/>
<polygon fill="black" stroke="black" points="265,-140.99 268.5,-150.99 272,-140.99 265,-140.99"/>
</g>
</g>
</svg>
