<?xml version="1.0" encoding="UTF-8" standalone="no"?>
<!DOCTYPE svg PUBLIC "-//W3C//DTD SVG 1.1//EN"
 "http://www.w3.org/Graphics/SVG/1.1/DTD/svg11.dtd">
<!-- Generated by graphviz version 2.47.0 (20210316.0004)
 -->
<!-- Title: dependencies Pages: 1 -->
<svg width="504pt" height="211pt"
 viewBox="0.00 0.00 504.00 211.00" xmlns="http://www.w3.org/2000/svg" xmlns:xlink="http://www.w3.org/1999/xlink">
<g id="graph0" class="graph" transform="scale(1 1) rotate(0) translate(4 207)">
<title>dependencies</title>
<polygon fill="white" stroke="transparent" points="-4,4 -4,-207 500,-207 500,4 -4,4"/>
<text text-anchor="start" x="227.01" y="-42.4" font-family="Times-12" font-weight="bold" font-size="14.00">Legend</text>
<polygon fill="#ffffb3" stroke="transparent" points="14,-10 14,-30 34,-30 34,-10 14,-10"/>
<text text-anchor="start" x="37.63" y="-15.4" font-family="Times-12" font-size="14.00"> &#160;Declarations</text>
<polygon fill="#8dd3c7" stroke="transparent" points="127,-10 127,-30 147,-30 147,-10 127,-10"/>
<text text-anchor="start" x="150.73" y="-15.4" font-family="Times-12" font-size="14.00"> &#160;Module</text>
<polygon fill="#80b1d3" stroke="transparent" points="213,-10 213,-30 233,-30 233,-10 213,-10"/>
<text text-anchor="start" x="236.78" y="-15.4" font-family="Times-12" font-size="14.00"> &#160;Bootstrap</text>
<polygon fill="#fdb462" stroke="transparent" points="310,-10 310,-30 330,-30 330,-10 310,-10"/>
<text text-anchor="start" x="333.67" y="-15.4" font-family="Times-12" font-size="14.00"> &#160;Providers</text>
<polygon fill="#fb8072" stroke="transparent" points="406,-10 406,-30 426,-30 426,-10 406,-10"/>
<text text-anchor="start" x="429.73" y="-15.4" font-family="Times-12" font-size="14.00"> &#160;Exports</text>
<g id="clust1" class="cluster">
<title>cluster_UserModule</title>
<polygon fill="none" stroke="black" stroke-dasharray="1,5" points="16.5,-70 16.5,-195 479.5,-195 479.5,-70 16.5,-70"/>
</g>
<g id="clust2" class="cluster">
<title>cluster_UserModule_declarations</title>
<polygon fill="none" stroke="black" points="309.5,-78 309.5,-130 471.5,-130 471.5,-78 309.5,-78"/>
</g>
<g id="clust4" class="cluster">
<title>cluster_UserModule_imports</title>
<polygon fill="none" stroke="black" points="24.5,-78 24.5,-130 301.5,-130 301.5,-78 24.5,-78"/>
</g>
<!-- UOverviewComponent -->
<g id="node1" class="node">
<title>UOverviewComponent</title>
<polygon fill="#ffffb3" stroke="black" points="463.63,-122 317.37,-122 317.37,-86 463.63,-86 463.63,-122"/>
<text text-anchor="middle" x="390.5" y="-99.8" font-family="Times,serif" font-size="14.00">UOverviewComponent</text>
</g>
<!-- UserModule -->
<g id="node2" class="node">
<title>UserModule</title>
<polygon fill="#8dd3c7" stroke="black" points="280.48,-187 277.48,-191 256.48,-191 253.48,-187 194.52,-187 194.52,-151 280.48,-151 280.48,-187"/>
<text text-anchor="middle" x="237.5" y="-164.8" font-family="Times,serif" font-size="14.00">UserModule</text>
</g>
<!-- UOverviewComponent&#45;&gt;UserModule -->
<g id="edge1" class="edge">
<title>UOverviewComponent&#45;&gt;UserModule</title>
<path fill="none" stroke="black" d="M390.5,-122.11C390.5,-141.34 390.5,-169 390.5,-169 390.5,-169 290.53,-169 290.53,-169"/>
<polygon fill="black" stroke="black" points="290.53,-165.5 280.53,-169 290.53,-172.5 290.53,-165.5"/>
</g>
<!-- CommonModule -->
<g id="node3" class="node">
<title>CommonModule</title>
<polygon fill="#8dd3c7" stroke="black" points="293.17,-122 290.17,-126 269.17,-126 266.17,-122 181.83,-122 181.83,-86 293.17,-86 293.17,-122"/>
<text text-anchor="middle" x="237.5" y="-99.8" font-family="Times,serif" font-size="14.00">CommonModule</text>
</g>
<!-- CommonModule&#45;&gt;UserModule -->
<g id="edge2" class="edge">
<title>CommonModule&#45;&gt;UserModule</title>
<path fill="none" stroke="black" d="M237.5,-122.11C237.5,-122.11 237.5,-140.99 237.5,-140.99"/>
<polygon fill="black" stroke="black" points="234,-140.99 237.5,-150.99 241,-140.99 234,-140.99"/>
</g>
<!-- UserRoutingModule -->
<g id="node4" class="node">
<title>UserRoutingModule</title>
<polygon fill="#8dd3c7" stroke="black" points="164.09,-122 161.09,-126 140.09,-126 137.09,-122 32.91,-122 32.91,-86 164.09,-86 164.09,-122"/>
<text text-anchor="middle" x="98.5" y="-99.8" font-family="Times,serif" font-size="14.00">UserRoutingModule</text>
</g>
<!-- UserRoutingModule&#45;&gt;UserModule -->
<g id="edge3" class="edge">
<title>UserRoutingModule&#45;&gt;UserModule</title>
<path fill="none" stroke="black" d="M98.5,-122.11C98.5,-141.34 98.5,-169 98.5,-169 98.5,-169 184.28,-169 184.28,-169"/>
<polygon fill="black" stroke="black" points="184.28,-172.5 194.28,-169 184.28,-165.5 184.28,-172.5"/>
</g>
</g>
</svg>
