<?xml version="1.0" encoding="UTF-8" standalone="no"?>
<!DOCTYPE svg PUBLIC "-//W3C//DTD SVG 1.1//EN"
 "http://www.w3.org/Graphics/SVG/1.1/DTD/svg11.dtd">
<!-- Generated by graphviz version 2.47.0 (20210316.0004)
 -->
<!-- Title: dependencies Pages: 1 -->
<svg width="1910pt" height="211pt"
 viewBox="0.00 0.00 1910.00 211.00" xmlns="http://www.w3.org/2000/svg" xmlns:xlink="http://www.w3.org/1999/xlink">
<g id="graph0" class="graph" transform="scale(1 1) rotate(0) translate(4 207)">
<title>dependencies</title>
<polygon fill="white" stroke="transparent" points="-4,4 -4,-207 1906,-207 1906,4 -4,4"/>
<text text-anchor="start" x="930.01" y="-42.4" font-family="Times-12" font-weight="bold" font-size="14.00">Legend</text>
<polygon fill="#ffffb3" stroke="transparent" points="717,-10 717,-30 737,-30 737,-10 717,-10"/>
<text text-anchor="start" x="740.63" y="-15.4" font-family="Times-12" font-size="14.00"> &#160;Declarations</text>
<polygon fill="#8dd3c7" stroke="transparent" points="830,-10 830,-30 850,-30 850,-10 830,-10"/>
<text text-anchor="start" x="853.73" y="-15.4" font-family="Times-12" font-size="14.00"> &#160;Module</text>
<polygon fill="#80b1d3" stroke="transparent" points="916,-10 916,-30 936,-30 936,-10 916,-10"/>
<text text-anchor="start" x="939.78" y="-15.4" font-family="Times-12" font-size="14.00"> &#160;Bootstrap</text>
<polygon fill="#fdb462" stroke="transparent" points="1013,-10 1013,-30 1033,-30 1033,-10 1013,-10"/>
<text text-anchor="start" x="1036.67" y="-15.4" font-family="Times-12" font-size="14.00"> &#160;Providers</text>
<polygon fill="#fb8072" stroke="transparent" points="1109,-10 1109,-30 1129,-30 1129,-10 1109,-10"/>
<text text-anchor="start" x="1132.73" y="-15.4" font-family="Times-12" font-size="14.00"> &#160;Exports</text>
<g id="clust1" class="cluster">
<title>cluster_AuthModule</title>
<polygon fill="none" stroke="black" stroke-dasharray="1,5" points="8,-70 8,-195 1894,-195 1894,-70 8,-70"/>
</g>
<g id="clust11" class="cluster">
<title>cluster_AuthModule_imports</title>
<polygon fill="none" stroke="black" points="1329,-78 1329,-130 1886,-130 1886,-78 1329,-78"/>
</g>
<g id="clust2" class="cluster">
<title>cluster_AuthModule_declarations</title>
<polygon fill="none" stroke="black" points="16,-78 16,-130 1321,-130 1321,-78 16,-78"/>
</g>
<!-- SignupComponent -->
<g id="node1" class="node">
<title>SignupComponent</title>
<polygon fill="#ffffb3" stroke="black" points="1312.51,-122 1191.49,-122 1191.49,-86 1312.51,-86 1312.51,-122"/>
<text text-anchor="middle" x="1252" y="-99.8" font-family="Times,serif" font-size="14.00">SignupComponent</text>
</g>
<!-- AuthModule -->
<g id="node9" class="node">
<title>AuthModule</title>
<polygon fill="#8dd3c7" stroke="black" points="1078.55,-187 1075.55,-191 1054.55,-191 1051.55,-187 991.45,-187 991.45,-151 1078.55,-151 1078.55,-187"/>
<text text-anchor="middle" x="1035" y="-164.8" font-family="Times,serif" font-size="14.00">AuthModule</text>
</g>
<!-- SignupComponent&#45;&gt;AuthModule -->
<g id="edge1" class="edge">
<title>SignupComponent&#45;&gt;AuthModule</title>
<path fill="none" stroke="black" d="M1252,-122.24C1252,-137.57 1252,-157 1252,-157 1252,-157 1088.65,-157 1088.65,-157"/>
<polygon fill="black" stroke="black" points="1088.65,-153.5 1078.65,-157 1088.65,-160.5 1088.65,-153.5"/>
</g>
<!-- LoginComponent -->
<g id="node2" class="node">
<title>LoginComponent</title>
<polygon fill="#ffffb3" stroke="black" points="1173.28,-122 1058.72,-122 1058.72,-86 1173.28,-86 1173.28,-122"/>
<text text-anchor="middle" x="1116" y="-99.8" font-family="Times,serif" font-size="14.00">LoginComponent</text>
</g>
<!-- LoginComponent&#45;&gt;AuthModule -->
<g id="edge2" class="edge">
<title>LoginComponent&#45;&gt;AuthModule</title>
<path fill="none" stroke="black" d="M1068.69,-122.11C1068.69,-122.11 1068.69,-140.99 1068.69,-140.99"/>
<polygon fill="black" stroke="black" points="1065.19,-140.99 1068.69,-150.99 1072.19,-140.99 1065.19,-140.99"/>
</g>
<!-- ForgetPasswordComponent -->
<g id="node3" class="node">
<title>ForgetPasswordComponent</title>
<polygon fill="#ffffb3" stroke="black" points="1040.54,-122 869.46,-122 869.46,-86 1040.54,-86 1040.54,-122"/>
<text text-anchor="middle" x="955" y="-99.8" font-family="Times,serif" font-size="14.00">ForgetPasswordComponent</text>
</g>
<!-- ForgetPasswordComponent&#45;&gt;AuthModule -->
<g id="edge3" class="edge">
<title>ForgetPasswordComponent&#45;&gt;AuthModule</title>
<path fill="none" stroke="black" d="M1016,-122.11C1016,-122.11 1016,-140.99 1016,-140.99"/>
<polygon fill="black" stroke="black" points="1012.5,-140.99 1016,-150.99 1019.5,-140.99 1012.5,-140.99"/>
</g>
<!-- NewPasswordComponent -->
<g id="node4" class="node">
<title>NewPasswordComponent</title>
<polygon fill="#ffffb3" stroke="black" points="851.91,-122 690.09,-122 690.09,-86 851.91,-86 851.91,-122"/>
<text text-anchor="middle" x="771" y="-99.8" font-family="Times,serif" font-size="14.00">NewPasswordComponent</text>
</g>
<!-- NewPasswordComponent&#45;&gt;AuthModule -->
<g id="edge4" class="edge">
<title>NewPasswordComponent&#45;&gt;AuthModule</title>
<path fill="none" stroke="black" d="M771,-122.24C771,-137.57 771,-157 771,-157 771,-157 981.41,-157 981.41,-157"/>
<polygon fill="black" stroke="black" points="981.41,-160.5 991.41,-157 981.41,-153.5 981.41,-160.5"/>
</g>
<!-- VerifyPasswordComponent -->
<g id="node5" class="node">
<title>VerifyPasswordComponent</title>
<polygon fill="#ffffb3" stroke="black" points="672.52,-122 501.48,-122 501.48,-86 672.52,-86 672.52,-122"/>
<text text-anchor="middle" x="587" y="-99.8" font-family="Times,serif" font-size="14.00">VerifyPasswordComponent</text>
</g>
<!-- VerifyPasswordComponent&#45;&gt;AuthModule -->
<g id="edge5" class="edge">
<title>VerifyPasswordComponent&#45;&gt;AuthModule</title>
<path fill="none" stroke="black" d="M587,-122.02C587,-139.37 587,-163 587,-163 587,-163 981.23,-163 981.23,-163"/>
<polygon fill="black" stroke="black" points="981.23,-166.5 991.23,-163 981.23,-159.5 981.23,-166.5"/>
</g>
<!-- ConfirmationComponent -->
<g id="node6" class="node">
<title>ConfirmationComponent</title>
<polygon fill="#ffffb3" stroke="black" points="483.27,-122 326.73,-122 326.73,-86 483.27,-86 483.27,-122"/>
<text text-anchor="middle" x="405" y="-99.8" font-family="Times,serif" font-size="14.00">ConfirmationComponent</text>
</g>
<!-- ConfirmationComponent&#45;&gt;AuthModule -->
<g id="edge6" class="edge">
<title>ConfirmationComponent&#45;&gt;AuthModule</title>
<path fill="none" stroke="black" d="M405,-122.11C405,-141.34 405,-169 405,-169 405,-169 981.45,-169 981.45,-169"/>
<polygon fill="black" stroke="black" points="981.45,-172.5 991.45,-169 981.45,-165.5 981.45,-172.5"/>
</g>
<!-- VerifyUserComponent -->
<g id="node7" class="node">
<title>VerifyUserComponent</title>
<polygon fill="#ffffb3" stroke="black" points="308.29,-122 163.71,-122 163.71,-86 308.29,-86 308.29,-122"/>
<text text-anchor="middle" x="236" y="-99.8" font-family="Times,serif" font-size="14.00">VerifyUserComponent</text>
</g>
<!-- VerifyUserComponent&#45;&gt;AuthModule -->
<g id="edge7" class="edge">
<title>VerifyUserComponent&#45;&gt;AuthModule</title>
<path fill="none" stroke="black" d="M236,-122.28C236,-143.32 236,-175 236,-175 236,-175 981.19,-175 981.19,-175"/>
<polygon fill="black" stroke="black" points="981.19,-178.5 991.19,-175 981.19,-171.5 981.19,-178.5"/>
</g>
<!-- LogoutComponent -->
<g id="node8" class="node">
<title>LogoutComponent</title>
<polygon fill="#ffffb3" stroke="black" points="145.78,-122 24.22,-122 24.22,-86 145.78,-86 145.78,-122"/>
<text text-anchor="middle" x="85" y="-99.8" font-family="Times,serif" font-size="14.00">LogoutComponent</text>
</g>
<!-- LogoutComponent&#45;&gt;AuthModule -->
<g id="edge8" class="edge">
<title>LogoutComponent&#45;&gt;AuthModule</title>
<path fill="none" stroke="black" d="M85,-122.09C85,-145.13 85,-182 85,-182 85,-182 981.4,-182 981.4,-182"/>
<polygon fill="black" stroke="black" points="981.4,-185.5 991.4,-182 981.4,-178.5 981.4,-185.5"/>
</g>
<!-- CommonModule -->
<g id="node10" class="node">
<title>CommonModule</title>
<polygon fill="#8dd3c7" stroke="black" points="1877.67,-122 1874.67,-126 1853.67,-126 1850.67,-122 1766.33,-122 1766.33,-86 1877.67,-86 1877.67,-122"/>
<text text-anchor="middle" x="1822" y="-99.8" font-family="Times,serif" font-size="14.00">CommonModule</text>
</g>
<!-- CommonModule&#45;&gt;AuthModule -->
<g id="edge9" class="edge">
<title>CommonModule&#45;&gt;AuthModule</title>
<path fill="none" stroke="black" d="M1822,-122.09C1822,-145.13 1822,-182 1822,-182 1822,-182 1088.72,-182 1088.72,-182"/>
<polygon fill="black" stroke="black" points="1088.72,-178.5 1078.72,-182 1088.72,-185.5 1088.72,-178.5"/>
</g>
<!-- ReactiveFormsModule -->
<g id="node11" class="node">
<title>ReactiveFormsModule</title>
<polygon fill="#8dd3c7" stroke="black" points="1748.3,-122 1745.3,-126 1724.3,-126 1721.3,-122 1603.7,-122 1603.7,-86 1748.3,-86 1748.3,-122"/>
<text text-anchor="middle" x="1676" y="-99.8" font-family="Times,serif" font-size="14.00">ReactiveFormsModule</text>
</g>
<!-- ReactiveFormsModule&#45;&gt;AuthModule -->
<g id="edge10" class="edge">
<title>ReactiveFormsModule&#45;&gt;AuthModule</title>
<path fill="none" stroke="black" d="M1676,-122.28C1676,-143.32 1676,-175 1676,-175 1676,-175 1088.55,-175 1088.55,-175"/>
<polygon fill="black" stroke="black" points="1088.55,-171.5 1078.55,-175 1088.55,-178.5 1088.55,-171.5"/>
</g>
<!-- AuthRoutingModule -->
<g id="node12" class="node">
<title>AuthRoutingModule</title>
<polygon fill="#8dd3c7" stroke="black" points="1586.17,-122 1583.17,-126 1562.17,-126 1559.17,-122 1453.83,-122 1453.83,-86 1586.17,-86 1586.17,-122"/>
<text text-anchor="middle" x="1520" y="-99.8" font-family="Times,serif" font-size="14.00">AuthRoutingModule</text>
</g>
<!-- AuthRoutingModule&#45;&gt;AuthModule -->
<g id="edge11" class="edge">
<title>AuthRoutingModule&#45;&gt;AuthModule</title>
<path fill="none" stroke="black" d="M1520,-122.11C1520,-141.34 1520,-169 1520,-169 1520,-169 1088.9,-169 1088.9,-169"/>
<polygon fill="black" stroke="black" points="1088.9,-165.5 1078.9,-169 1088.9,-172.5 1088.9,-165.5"/>
</g>
<!-- SharedModule -->
<g id="node13" class="node">
<title>SharedModule</title>
<polygon fill="#8dd3c7" stroke="black" points="1435.42,-122 1432.42,-126 1411.42,-126 1408.42,-122 1336.58,-122 1336.58,-86 1435.42,-86 1435.42,-122"/>
<text text-anchor="middle" x="1386" y="-99.8" font-family="Times,serif" font-size="14.00">SharedModule</text>
</g>
<!-- SharedModule&#45;&gt;AuthModule -->
<g id="edge12" class="edge">
<title>SharedModule&#45;&gt;AuthModule</title>
<path fill="none" stroke="black" d="M1386,-122.02C1386,-139.37 1386,-163 1386,-163 1386,-163 1088.74,-163 1088.74,-163"/>
<polygon fill="black" stroke="black" points="1088.74,-159.5 1078.74,-163 1088.74,-166.5 1088.74,-159.5"/>
</g>
</g>
</svg>
