<?xml version="1.0" encoding="UTF-8" standalone="no"?>
<!DOCTYPE svg PUBLIC "-//W3C//DTD SVG 1.1//EN"
 "http://www.w3.org/Graphics/SVG/1.1/DTD/svg11.dtd">
<!-- Generated by graphviz version 2.47.0 (20210316.0004)
 -->
<!-- Title: dependencies Pages: 1 -->
<svg width="2318pt" height="211pt"
 viewBox="0.00 0.00 2318.00 211.00" xmlns="http://www.w3.org/2000/svg" xmlns:xlink="http://www.w3.org/1999/xlink">
<g id="graph0" class="graph" transform="scale(1 1) rotate(0) translate(4 207)">
<title>dependencies</title>
<polygon fill="white" stroke="transparent" points="-4,4 -4,-207 2314,-207 2314,4 -4,4"/>
<text text-anchor="start" x="1134.01" y="-42.4" font-family="Times-12" font-weight="bold" font-size="14.00">Legend</text>
<polygon fill="#ffffb3" stroke="transparent" points="921,-10 921,-30 941,-30 941,-10 921,-10"/>
<text text-anchor="start" x="944.63" y="-15.4" font-family="Times-12" font-size="14.00"> &#160;Declarations</text>
<polygon fill="#8dd3c7" stroke="transparent" points="1034,-10 1034,-30 1054,-30 1054,-10 1034,-10"/>
<text text-anchor="start" x="1057.73" y="-15.4" font-family="Times-12" font-size="14.00"> &#160;Module</text>
<polygon fill="#80b1d3" stroke="transparent" points="1120,-10 1120,-30 1140,-30 1140,-10 1120,-10"/>
<text text-anchor="start" x="1143.78" y="-15.4" font-family="Times-12" font-size="14.00"> &#160;Bootstrap</text>
<polygon fill="#fdb462" stroke="transparent" points="1217,-10 1217,-30 1237,-30 1237,-10 1217,-10"/>
<text text-anchor="start" x="1240.67" y="-15.4" font-family="Times-12" font-size="14.00"> &#160;Providers</text>
<polygon fill="#fb8072" stroke="transparent" points="1313,-10 1313,-30 1333,-30 1333,-10 1313,-10"/>
<text text-anchor="start" x="1336.73" y="-15.4" font-family="Times-12" font-size="14.00"> &#160;Exports</text>
<g id="clust1" class="cluster">
<title>cluster_AuthModule</title>
<polygon fill="none" stroke="black" stroke-dasharray="1,5" points="8,-70 8,-195 2302,-195 2302,-70 8,-70"/>
</g>
<g id="clust2" class="cluster">
<title>cluster_AuthModule_declarations</title>
<polygon fill="none" stroke="black" points="581,-78 581,-130 2294,-130 2294,-78 581,-78"/>
</g>
<g id="clust13" class="cluster">
<title>cluster_AuthModule_imports</title>
<polygon fill="none" stroke="black" points="16,-78 16,-130 573,-130 573,-78 16,-78"/>
</g>
<!-- SignupComponent -->
<g id="node1" class="node">
<title>SignupComponent</title>
<polygon fill="#ffffb3" stroke="black" points="2285.51,-122 2164.49,-122 2164.49,-86 2285.51,-86 2285.51,-122"/>
<text text-anchor="middle" x="2225" y="-99.8" font-family="Times,serif" font-size="14.00">SignupComponent</text>
</g>
<!-- AuthModule -->
<g id="node11" class="node">
<title>AuthModule</title>
<polygon fill="#8dd3c7" stroke="black" points="1166.55,-187 1163.55,-191 1142.55,-191 1139.55,-187 1079.45,-187 1079.45,-151 1166.55,-151 1166.55,-187"/>
<text text-anchor="middle" x="1123" y="-164.8" font-family="Times,serif" font-size="14.00">AuthModule</text>
</g>
<!-- SignupComponent&#45;&gt;AuthModule -->
<g id="edge1" class="edge">
<title>SignupComponent&#45;&gt;AuthModule</title>
<path fill="none" stroke="black" d="M2225,-122.09C2225,-145.13 2225,-182 2225,-182 2225,-182 1176.88,-182 1176.88,-182"/>
<polygon fill="black" stroke="black" points="1176.88,-178.5 1166.88,-182 1176.88,-185.5 1176.88,-178.5"/>
</g>
<!-- LoginComponent -->
<g id="node2" class="node">
<title>LoginComponent</title>
<polygon fill="#ffffb3" stroke="black" points="2146.28,-122 2031.72,-122 2031.72,-86 2146.28,-86 2146.28,-122"/>
<text text-anchor="middle" x="2089" y="-99.8" font-family="Times,serif" font-size="14.00">LoginComponent</text>
</g>
<!-- LoginComponent&#45;&gt;AuthModule -->
<g id="edge2" class="edge">
<title>LoginComponent&#45;&gt;AuthModule</title>
<path fill="none" stroke="black" d="M2089,-122.04C2089,-143.66 2089,-177 2089,-177 2089,-177 1176.7,-177 1176.7,-177"/>
<polygon fill="black" stroke="black" points="1176.7,-173.5 1166.7,-177 1176.7,-180.5 1176.7,-173.5"/>
</g>
<!-- ForgetPasswordComponent -->
<g id="node3" class="node">
<title>ForgetPasswordComponent</title>
<polygon fill="#ffffb3" stroke="black" points="2013.54,-122 1842.46,-122 1842.46,-86 2013.54,-86 2013.54,-122"/>
<text text-anchor="middle" x="1928" y="-99.8" font-family="Times,serif" font-size="14.00">ForgetPasswordComponent</text>
</g>
<!-- ForgetPasswordComponent&#45;&gt;AuthModule -->
<g id="edge3" class="edge">
<title>ForgetPasswordComponent&#45;&gt;AuthModule</title>
<path fill="none" stroke="black" d="M1928,-122.22C1928,-142.37 1928,-172 1928,-172 1928,-172 1176.57,-172 1176.57,-172"/>
<polygon fill="black" stroke="black" points="1176.57,-168.5 1166.57,-172 1176.57,-175.5 1176.57,-168.5"/>
</g>
<!-- ResetPasswordComponent -->
<g id="node4" class="node">
<title>ResetPasswordComponent</title>
<polygon fill="#ffffb3" stroke="black" points="1824.09,-122 1657.91,-122 1657.91,-86 1824.09,-86 1824.09,-122"/>
<text text-anchor="middle" x="1741" y="-99.8" font-family="Times,serif" font-size="14.00">ResetPasswordComponent</text>
</g>
<!-- ResetPasswordComponent&#45;&gt;AuthModule -->
<g id="edge4" class="edge">
<title>ResetPasswordComponent&#45;&gt;AuthModule</title>
<path fill="none" stroke="black" d="M1741,-122.22C1741,-140.83 1741,-167 1741,-167 1741,-167 1176.95,-167 1176.95,-167"/>
<polygon fill="black" stroke="black" points="1176.95,-163.5 1166.95,-167 1176.95,-170.5 1176.95,-163.5"/>
</g>
<!-- OTPVerificationComponent -->
<g id="node5" class="node">
<title>OTPVerificationComponent</title>
<polygon fill="#ffffb3" stroke="black" points="1639.91,-122 1464.09,-122 1464.09,-86 1639.91,-86 1639.91,-122"/>
<text text-anchor="middle" x="1552" y="-99.8" font-family="Times,serif" font-size="14.00">OTPVerificationComponent</text>
</g>
<!-- OTPVerificationComponent&#45;&gt;AuthModule -->
<g id="edge5" class="edge">
<title>OTPVerificationComponent&#45;&gt;AuthModule</title>
<path fill="none" stroke="black" d="M1552,-122.03C1552,-139.06 1552,-162 1552,-162 1552,-162 1176.89,-162 1176.89,-162"/>
<polygon fill="black" stroke="black" points="1176.89,-158.5 1166.89,-162 1176.89,-165.5 1176.89,-158.5"/>
</g>
<!-- ConfirmationComponent -->
<g id="node6" class="node">
<title>ConfirmationComponent</title>
<polygon fill="#ffffb3" stroke="black" points="1446.27,-122 1289.73,-122 1289.73,-86 1446.27,-86 1446.27,-122"/>
<text text-anchor="middle" x="1368" y="-99.8" font-family="Times,serif" font-size="14.00">ConfirmationComponent</text>
</g>
<!-- ConfirmationComponent&#45;&gt;AuthModule -->
<g id="edge6" class="edge">
<title>ConfirmationComponent&#45;&gt;AuthModule</title>
<path fill="none" stroke="black" d="M1368,-122.24C1368,-137.57 1368,-157 1368,-157 1368,-157 1176.8,-157 1176.8,-157"/>
<polygon fill="black" stroke="black" points="1176.8,-153.5 1166.8,-157 1176.8,-160.5 1176.8,-153.5"/>
</g>
<!-- VerifyUserComponent -->
<g id="node7" class="node">
<title>VerifyUserComponent</title>
<polygon fill="#ffffb3" stroke="black" points="1271.29,-122 1126.71,-122 1126.71,-86 1271.29,-86 1271.29,-122"/>
<text text-anchor="middle" x="1199" y="-99.8" font-family="Times,serif" font-size="14.00">VerifyUserComponent</text>
</g>
<!-- VerifyUserComponent&#45;&gt;AuthModule -->
<g id="edge7" class="edge">
<title>VerifyUserComponent&#45;&gt;AuthModule</title>
<path fill="none" stroke="black" d="M1146.81,-122.11C1146.81,-122.11 1146.81,-140.99 1146.81,-140.99"/>
<polygon fill="black" stroke="black" points="1143.31,-140.99 1146.81,-150.99 1150.31,-140.99 1143.31,-140.99"/>
</g>
<!-- LogoutComponent -->
<g id="node8" class="node">
<title>LogoutComponent</title>
<polygon fill="#ffffb3" stroke="black" points="1108.78,-122 987.22,-122 987.22,-86 1108.78,-86 1108.78,-122"/>
<text text-anchor="middle" x="1048" y="-99.8" font-family="Times,serif" font-size="14.00">LogoutComponent</text>
</g>
<!-- LogoutComponent&#45;&gt;AuthModule -->
<g id="edge8" class="edge">
<title>LogoutComponent&#45;&gt;AuthModule</title>
<path fill="none" stroke="black" d="M1094.06,-122.11C1094.06,-122.11 1094.06,-140.99 1094.06,-140.99"/>
<polygon fill="black" stroke="black" points="1090.56,-140.99 1094.06,-150.99 1097.56,-140.99 1090.56,-140.99"/>
</g>
<!-- TutorsSupplementFormComponent -->
<g id="node9" class="node">
<title>TutorsSupplementFormComponent</title>
<polygon fill="#ffffb3" stroke="black" points="969.6,-122 754.4,-122 754.4,-86 969.6,-86 969.6,-122"/>
<text text-anchor="middle" x="862" y="-99.8" font-family="Times,serif" font-size="14.00">TutorsSupplementFormComponent</text>
</g>
<!-- TutorsSupplementFormComponent&#45;&gt;AuthModule -->
<g id="edge9" class="edge">
<title>TutorsSupplementFormComponent&#45;&gt;AuthModule</title>
<path fill="none" stroke="black" d="M862,-122.24C862,-137.57 862,-157 862,-157 862,-157 1069.31,-157 1069.31,-157"/>
<polygon fill="black" stroke="black" points="1069.31,-160.5 1079.31,-157 1069.31,-153.5 1069.31,-160.5"/>
</g>
<!-- UserChoiceComponent -->
<g id="node10" class="node">
<title>UserChoiceComponent</title>
<polygon fill="#ffffb3" stroke="black" points="736.92,-122 589.08,-122 589.08,-86 736.92,-86 736.92,-122"/>
<text text-anchor="middle" x="663" y="-99.8" font-family="Times,serif" font-size="14.00">UserChoiceComponent</text>
</g>
<!-- UserChoiceComponent&#45;&gt;AuthModule -->
<g id="edge10" class="edge">
<title>UserChoiceComponent&#45;&gt;AuthModule</title>
<path fill="none" stroke="black" d="M663,-122.03C663,-139.06 663,-162 663,-162 663,-162 1069.31,-162 1069.31,-162"/>
<polygon fill="black" stroke="black" points="1069.31,-165.5 1079.31,-162 1069.31,-158.5 1069.31,-165.5"/>
</g>
<!-- CommonModule -->
<g id="node12" class="node">
<title>CommonModule</title>
<polygon fill="#8dd3c7" stroke="black" points="564.67,-122 561.67,-126 540.67,-126 537.67,-122 453.33,-122 453.33,-86 564.67,-86 564.67,-122"/>
<text text-anchor="middle" x="509" y="-99.8" font-family="Times,serif" font-size="14.00">CommonModule</text>
</g>
<!-- CommonModule&#45;&gt;AuthModule -->
<g id="edge11" class="edge">
<title>CommonModule&#45;&gt;AuthModule</title>
<path fill="none" stroke="black" d="M509,-122.22C509,-140.83 509,-167 509,-167 509,-167 1069.33,-167 1069.33,-167"/>
<polygon fill="black" stroke="black" points="1069.33,-170.5 1079.33,-167 1069.33,-163.5 1069.33,-170.5"/>
</g>
<!-- ReactiveFormsModule -->
<g id="node13" class="node">
<title>ReactiveFormsModule</title>
<polygon fill="#8dd3c7" stroke="black" points="435.3,-122 432.3,-126 411.3,-126 408.3,-122 290.7,-122 290.7,-86 435.3,-86 435.3,-122"/>
<text text-anchor="middle" x="363" y="-99.8" font-family="Times,serif" font-size="14.00">ReactiveFormsModule</text>
</g>
<!-- ReactiveFormsModule&#45;&gt;AuthModule -->
<g id="edge12" class="edge">
<title>ReactiveFormsModule&#45;&gt;AuthModule</title>
<path fill="none" stroke="black" d="M363,-122.22C363,-142.37 363,-172 363,-172 363,-172 1069.41,-172 1069.41,-172"/>
<polygon fill="black" stroke="black" points="1069.41,-175.5 1079.41,-172 1069.41,-168.5 1069.41,-175.5"/>
</g>
<!-- AuthRoutingModule -->
<g id="node14" class="node">
<title>AuthRoutingModule</title>
<polygon fill="#8dd3c7" stroke="black" points="273.17,-122 270.17,-126 249.17,-126 246.17,-122 140.83,-122 140.83,-86 273.17,-86 273.17,-122"/>
<text text-anchor="middle" x="207" y="-99.8" font-family="Times,serif" font-size="14.00">AuthRoutingModule</text>
</g>
<!-- AuthRoutingModule&#45;&gt;AuthModule -->
<g id="edge13" class="edge">
<title>AuthRoutingModule&#45;&gt;AuthModule</title>
<path fill="none" stroke="black" d="M207,-122.04C207,-143.66 207,-177 207,-177 207,-177 1069.44,-177 1069.44,-177"/>
<polygon fill="black" stroke="black" points="1069.44,-180.5 1079.44,-177 1069.44,-173.5 1069.44,-180.5"/>
</g>
<!-- SharedModule -->
<g id="node15" class="node">
<title>SharedModule</title>
<polygon fill="#8dd3c7" stroke="black" points="122.42,-122 119.42,-126 98.42,-126 95.42,-122 23.58,-122 23.58,-86 122.42,-86 122.42,-122"/>
<text text-anchor="middle" x="73" y="-99.8" font-family="Times,serif" font-size="14.00">SharedModule</text>
</g>
<!-- SharedModule&#45;&gt;AuthModule -->
<g id="edge14" class="edge">
<title>SharedModule&#45;&gt;AuthModule</title>
<path fill="none" stroke="black" d="M73,-122.09C73,-145.13 73,-182 73,-182 73,-182 1069.22,-182 1069.22,-182"/>
<polygon fill="black" stroke="black" points="1069.22,-185.5 1079.22,-182 1069.22,-178.5 1069.22,-185.5"/>
</g>
</g>
</svg>
