<svg width="33" height="32" viewBox="0 0 33 32" fill="none" xmlns="http://www.w3.org/2000/svg">
<path d="M6.58987 18.894L16.6119 7.867C17.0199 7.419 17.7619 7.768 17.6769 8.368L16.7309 15H23.9549C24.4889 15 24.7699 15.634 24.4099 16.03L14.3859 27.055C13.9779 27.503 13.2359 27.154 13.3219 26.554L14.2689 19.922H7.04487C6.92539 19.9224 6.80838 19.888 6.70813 19.823C6.60789 19.758 6.52875 19.6652 6.48038 19.556C6.43201 19.4467 6.41652 19.3257 6.43578 19.2078C6.45505 19.0899 6.50824 18.9802 6.58887 18.892L6.58987 18.894Z" fill="#DAF2DC"/>
<path fill-rule="evenodd" clip-rule="evenodd" d="M23.1401 3.563C23.2544 3.44868 23.3451 3.31297 23.4069 3.16361C23.4688 3.01425 23.5006 2.85417 23.5006 2.6925C23.5006 2.53083 23.4688 2.37075 23.4069 2.22139C23.3451 2.07203 23.2544 1.93631 23.1401 1.822C23.0258 1.70768 22.89 1.617 22.7407 1.55514C22.5913 1.49327 22.4312 1.46143 22.2696 1.46143C22.1079 1.46143 21.9478 1.49327 21.7985 1.55514C21.6491 1.617 21.5134 1.70768 21.3991 1.822L19.5531 3.668C19.3223 3.89874 19.1927 4.21169 19.1927 4.538C19.1927 4.86431 19.3223 5.17726 19.5531 5.408C19.7838 5.63874 20.0968 5.76836 20.4231 5.76836C20.7494 5.76836 21.0623 5.63874 21.2931 5.408L23.1401 3.563ZM26.2161 6.745C26.6971 7.225 26.6971 8.005 26.2161 8.485L24.3701 10.332C24.2558 10.4462 24.1202 10.5369 23.9709 10.5987C23.8216 10.6605 23.6616 10.6924 23.5001 10.6924C23.3385 10.6924 23.1785 10.6605 23.0292 10.5987C22.88 10.5369 22.7443 10.4462 22.6301 10.332C22.5158 10.2177 22.4252 10.0821 22.3634 9.93284C22.3015 9.78356 22.2697 9.62357 22.2697 9.462C22.2697 9.30043 22.3015 9.14043 22.3634 8.99116C22.4252 8.84188 22.5158 8.70625 22.6301 8.592L24.4761 6.745C24.5903 6.6307 24.7259 6.54004 24.8752 6.47818C25.0245 6.41632 25.1845 6.38448 25.3461 6.38448C25.5077 6.38448 25.6677 6.41632 25.8169 6.47818C25.9662 6.54004 26.1018 6.6307 26.2161 6.745ZM16.1761 10.178L8.43607 18.692H14.2691C14.4455 18.6918 14.6199 18.7295 14.7805 18.8027C14.9411 18.8758 15.084 18.9827 15.1996 19.1159C15.3153 19.2492 15.4009 19.4058 15.4506 19.5751C15.5004 19.7443 15.5132 19.9224 15.4881 20.097L14.8241 24.745L22.5641 16.231H16.7311C16.5546 16.2312 16.3802 16.1935 16.2196 16.1203C16.0591 16.0472 15.9161 15.9403 15.8005 15.8071C15.6849 15.6738 15.5993 15.5172 15.5495 15.3479C15.4997 15.1786 15.487 15.0006 15.5121 14.826L16.1761 10.178ZM15.7031 7.039C16.9271 5.693 19.1531 6.742 18.8971 8.542L18.1501 13.769H23.9551C25.5581 13.769 26.3991 15.671 25.3211 16.857L15.2971 27.884C14.0731 29.23 11.8471 28.181 12.1031 26.381L12.8501 21.154H7.04507C5.44207 21.154 4.60107 19.252 5.67907 18.066L15.7031 7.039Z" fill="#22AE25"/>
</svg>
