<svg width="17" height="17" viewBox="0 0 17 17" fill="none" xmlns="http://www.w3.org/2000/svg">
  <path
    d="M11.5 5.66016C11.2348 5.66016 10.9804 5.76552 10.7929 5.95305C10.6053 6.14059 10.5 6.39494 10.5 6.66016C10.5 6.92537 10.6053 7.17972 10.7929 7.36726C10.9804 7.5548 11.2348 7.66016 11.5 7.66016C11.7652 7.66016 12.0196 7.5548 12.2071 7.36726C12.3947 7.17972 12.5 6.92537 12.5 6.66016C12.5 6.39494 12.3947 6.14059 12.2071 5.95305C12.0196 5.76552 11.7652 5.66016 11.5 5.66016ZM8.5 5.66016C8.23478 5.66016 7.98041 5.76552 7.79287 5.95305C7.60533 6.14059 7.5 6.39494 7.5 6.66016C7.5 6.92537 7.60533 7.17972 7.79287 7.36726C7.98041 7.5548 8.23478 7.66016 8.5 7.66016C8.76522 7.66016 9.01959 7.5548 9.20713 7.36726C9.39467 7.17972 9.5 6.92537 9.5 6.66016C9.5 6.39494 9.39467 6.14059 9.20713 5.95305C9.01959 5.76552 8.76522 5.66016 8.5 5.66016ZM5.5 5.66016C5.23478 5.66016 4.98041 5.76552 4.79287 5.95305C4.60533 6.14059 4.5 6.39494 4.5 6.66016C4.5 6.92537 4.60533 7.17972 4.79287 7.36726C4.98041 7.5548 5.23478 7.66016 5.5 7.66016C5.76522 7.66016 6.01959 7.5548 6.20713 7.36726C6.39467 7.17972 6.5 6.92537 6.5 6.66016C6.5 6.39494 6.39467 6.14059 6.20713 5.95305C6.01959 5.76552 5.76522 5.66016 5.5 5.66016ZM12.5 1.66016C13.9 1.66016 15 2.76016 15 4.16016V9.16016C15 10.5602 13.9 11.6602 12.5 11.6602H11.7L10.3 13.7602L8.5 11.6602H4.5C4.1708 11.6634 3.84426 11.6009 3.5395 11.4764C3.23474 11.3519 2.95789 11.1679 2.7251 10.9351C2.49231 10.7023 2.30829 10.4254 2.18379 10.1206C2.05929 9.81588 1.99679 9.48935 2 9.16016V4.16016C2 2.76016 3.1 1.66016 4.5 1.66016H12.5ZM12.5 13.1602C14.7 13.1602 16.5 11.3602 16.5 9.16016V4.16016C16.5 1.96016 14.7 0.160156 12.5 0.160156H4.5C2.3 0.160156 0.5 1.96016 0.5 4.16016V9.16016C0.5 11.3602 2.3 13.1602 4.5 13.1602H7.8L10.5 16.1602L12.5 13.1602Z"
    fill="currentColor" />
</svg>