<svg width="168" height="55" viewBox="0 0 168 55" fill="none" xmlns="http://www.w3.org/2000/svg">
<path d="M1.44909 18.5681V11.7272H28.6295V18.5681H19.2232V43H10.8553V18.5681H1.44909ZM43.9643 32.7386V19.5454H52.3932V43H44.3918V38.5411H44.1475C43.6385 40.0376 42.7478 41.2083 41.4753 42.0532C40.2028 42.888 38.6911 43.3054 36.9401 43.3054C35.3012 43.3054 33.8658 42.9287 32.634 42.1754C31.4124 41.4221 30.4606 40.3837 29.7785 39.0603C29.1067 37.7369 28.7656 36.2201 28.7555 34.5099V19.5454H37.1844V32.7386C37.1946 33.8991 37.4898 34.8102 38.0701 35.4719C38.6605 36.1336 39.4851 36.4644 40.5438 36.4644C41.2462 36.4644 41.8519 36.3168 42.3609 36.0216C42.8801 35.7162 43.2771 35.2887 43.552 34.7389C43.837 34.179 43.9744 33.5123 43.9643 32.7386ZM70.6675 19.5454V25.6534H55.2144V19.5454H70.6675ZM58.2073 13.9261H66.6362V35.4566C66.6362 35.7824 66.6922 36.0572 66.8042 36.2812C66.9162 36.495 67.0892 36.6579 67.3234 36.7698C67.5575 36.8716 67.8578 36.9225 68.2243 36.9225C68.4788 36.9225 68.774 36.892 69.11 36.8309C69.4561 36.7698 69.7106 36.7189 69.8734 36.6782L71.095 42.6029C70.7184 42.7149 70.1788 42.8523 69.4764 43.0152C68.7842 43.1781 67.9596 43.285 67.0027 43.3359C65.0685 43.4377 63.4448 43.2392 62.1316 42.7404C60.8184 42.2314 59.831 41.4322 59.1693 40.343C58.5076 39.2537 58.1869 37.8896 58.2073 36.2507V13.9261ZM108.373 43V19.5454H116.557V24.0042H116.802C117.229 22.3551 117.906 21.1487 118.833 20.3853C119.769 19.6218 120.863 19.24 122.116 19.24C122.482 19.24 122.843 19.2706 123.2 19.3316C123.566 19.3825 123.917 19.4589 124.253 19.5607V26.7528C123.836 26.6103 123.322 26.5034 122.711 26.4321C122.1 26.3609 121.576 26.3252 121.138 26.3252C120.314 26.3252 119.571 26.5136 118.909 26.8902C118.257 27.2567 117.743 27.7759 117.367 28.4478C116.99 29.1094 116.802 29.8882 116.802 30.784V43H108.373ZM133.553 43.3664C132.056 43.3664 130.733 43.1221 129.583 42.6335C128.442 42.1347 127.547 41.3813 126.895 40.3735C126.244 39.3657 125.918 38.0831 125.918 36.5255C125.918 35.2429 126.137 34.1485 126.574 33.2425C127.012 32.3263 127.623 31.5781 128.407 30.9978C129.191 30.4176 130.102 29.9747 131.14 29.6693C132.189 29.3639 133.319 29.1654 134.53 29.0738C135.843 28.972 136.897 28.8499 137.691 28.7073C138.495 28.5546 139.075 28.346 139.432 28.0813C139.788 27.8064 139.966 27.445 139.966 26.9971V26.936C139.966 26.3252 139.732 25.857 139.264 25.5312C138.795 25.2054 138.195 25.0426 137.462 25.0426C136.658 25.0426 136.001 25.2207 135.492 25.577C134.993 25.9231 134.693 26.4576 134.591 27.1804H126.834C126.936 25.7552 127.389 24.442 128.193 23.2407C129.007 22.0293 130.193 21.0622 131.751 20.3394C133.308 19.6065 135.253 19.24 137.584 19.24C139.264 19.24 140.77 19.4385 142.104 19.8355C143.437 20.2224 144.572 20.767 145.509 21.4694C146.446 22.1616 147.158 22.976 147.647 23.9126C148.146 24.839 148.395 25.8468 148.395 26.936V43H140.516V39.7017H140.333C139.864 40.5771 139.294 41.2846 138.622 41.8242C137.961 42.3637 137.202 42.7556 136.347 43C135.502 43.2443 134.571 43.3664 133.553 43.3664ZM136.301 38.0525C136.943 38.0525 137.543 37.9202 138.103 37.6555C138.673 37.3908 139.136 37.0091 139.493 36.5103C139.849 36.0114 140.027 35.4057 140.027 34.6931V32.7386C139.803 32.8302 139.564 32.9167 139.309 32.9982C139.065 33.0796 138.8 33.156 138.515 33.2272C138.241 33.2985 137.945 33.3647 137.63 33.4257C137.324 33.4868 137.004 33.5428 136.668 33.5937C136.016 33.6955 135.482 33.8635 135.064 34.0976C134.657 34.3216 134.352 34.6015 134.148 34.9375C133.955 35.2632 133.858 35.6297 133.858 36.0369C133.858 36.6884 134.087 37.1872 134.545 37.5333C135.003 37.8795 135.589 38.0525 136.301 38.0525ZM166.41 19.5454V25.6534H150.957V19.5454H166.41ZM153.949 13.9261H162.378V35.4566C162.378 35.7824 162.434 36.0572 162.546 36.2812C162.658 36.495 162.831 36.6579 163.066 36.7698C163.3 36.8716 163.6 36.9225 163.966 36.9225C164.221 36.9225 164.516 36.892 164.852 36.8309C165.198 36.7698 165.453 36.7189 165.616 36.6782L166.837 42.6029C166.461 42.7149 165.921 42.8523 165.219 43.0152C164.526 43.1781 163.702 43.285 162.745 43.3359C160.811 43.4377 159.187 43.2392 157.874 42.7404C156.561 42.2314 155.573 41.4322 154.911 40.343C154.25 39.2537 153.929 37.8896 153.949 36.2507V13.9261Z" fill="#151D34"/>
<path fill-rule="evenodd" clip-rule="evenodd" d="M97.357 15.7163C87.3471 13.0765 80.643 15.8568 80.643 15.8568V21.7615C89.4569 13.9527 97.357 21.8317 97.357 21.8317V15.7163ZM101.523 19.528V13.3285L104 12.3421L88.7857 6.99995L74 12.4123L80.2855 14.732C91.1376 11.8704 97.6428 14.8729 97.6428 14.8729L100.933 13.5629V19.5018C100.225 19.7321 100.225 20.6839 100.933 20.9141L100.229 27.1015C100.853 27.0927 101.258 27.0955 101.736 27.0988C101.869 27.0998 102.007 27.1007 102.157 27.1015L101.523 20.8879C102.14 20.6234 102.139 19.7925 101.523 19.528ZM95.5638 35.0824C96.608 33.7052 97.17 32.0338 97.1662 30.3176C97.1663 29.0506 96.8599 27.8016 96.2722 26.6733C95.6845 25.545 94.8323 24.5696 93.7856 23.8271C92.7388 23.0846 91.5274 22.5962 90.2509 22.4022C88.9743 22.2081 87.6691 22.3138 86.4423 22.7106C85.2155 23.1075 84.1022 23.7841 83.1938 24.6849C82.2854 25.5858 81.6079 26.6852 81.2169 27.8927C80.8258 29.1003 80.7325 30.3816 80.9444 31.6315C81.1564 32.8813 81.6676 34.064 82.4362 35.0824L89 43.6669L95.5638 35.0824ZM97.747 36.679C99.0917 34.9026 99.8883 32.7027 99.8883 30.3176C99.8881 28.628 99.4791 26.9625 98.695 25.4581C97.9109 23.9536 96.7741 22.6532 95.3779 21.6635C93.9817 20.6738 92.3661 20.0231 90.6636 19.7649C88.9612 19.5068 87.2206 19.6485 85.5849 20.1784C83.9492 20.7084 82.465 21.6114 81.2543 22.8134C80.0436 24.0153 79.141 25.4819 78.6205 27.0925C78.1 28.7031 77.9767 30.4119 78.2605 32.0784C78.5443 33.745 79.2272 35.3217 80.253 36.679L87.2978 45.8918L89 48.1167L90.7004 45.8918L97.747 36.679ZM91.5664 32.8347C90.8857 33.5023 89.9626 33.8774 89 33.8774C88.0374 33.8774 87.1143 33.5023 86.4336 32.8347C85.7529 32.1671 85.3706 31.2617 85.3706 30.3176C85.3706 29.3734 85.7529 28.468 86.4336 27.8004C87.1143 27.1328 88.0374 26.7577 89 26.7577C89.9626 26.7577 90.8857 27.1328 91.5664 27.8004C92.2471 28.468 92.6294 29.3734 92.6294 30.3176C92.6294 31.2617 92.2471 32.1671 91.5664 32.8347Z" fill="#C4951B"/>
</svg>
