<svg xmlns="http://www.w3.org/2000/svg" width="222" height="119" fill="none"><path fill="#151D34" d="M.969 78.91v-9.546h37.926v9.545H25.77V113H14.094V78.91H.969Zm59.323 19.772v-18.41h11.762V113H60.889v-6.222h-.34c-.711 2.088-1.954 3.722-3.73 4.901-1.775 1.165-3.885 1.747-6.328 1.747-2.287 0-4.29-.525-6.008-1.577-1.705-1.051-3.033-2.5-3.985-4.346-.937-1.847-1.413-3.963-1.427-6.35v-20.88h11.761v18.409c.014 1.619.426 2.89 1.236 3.814.824.923 1.974 1.385 3.452 1.385.98 0 1.825-.206 2.535-.618a4.218 4.218 0 0 0 1.662-1.79c.398-.781.59-1.712.575-2.791Zm37.26-18.41v8.523H75.99v-8.522h21.563Zm-17.386-7.84h11.762v30.042c0 .455.078.838.234 1.151.156.298.398.526.724.682.327.142.746.213 1.258.213.355 0 .767-.043 1.235-.128.483-.085.838-.156 1.066-.213l1.704 8.267a40.86 40.86 0 0 1-2.258.575c-.966.228-2.117.377-3.452.448-2.699.142-4.964-.135-6.797-.831-1.832-.71-3.21-1.826-4.133-3.345-.924-1.52-1.371-3.424-1.343-5.711v-31.15Zm37.953 41.165c-3.551 0-6.591-.704-9.119-2.11-2.529-1.42-4.468-3.395-5.817-5.923-1.349-2.543-2.024-5.49-2.024-8.842 0-3.353.675-6.293 2.024-8.821 1.349-2.543 3.288-4.517 5.817-5.924 2.528-1.42 5.568-2.13 9.119-2.13s6.591.71 9.119 2.13c2.529 1.406 4.468 3.381 5.817 5.924 1.35 2.528 2.024 5.468 2.024 8.82 0 3.353-.674 6.3-2.024 8.843-1.349 2.528-3.288 4.503-5.817 5.923-2.528 1.406-5.568 2.11-9.119 2.11Zm.085-8.694c.995 0 1.854-.333 2.578-1.001.725-.668 1.286-1.619 1.684-2.855.397-1.236.596-2.706.596-4.41 0-1.72-.199-3.19-.596-4.411-.398-1.236-.959-2.188-1.684-2.855a3.674 3.674 0 0 0-2.578-1.002c-1.051 0-1.953.334-2.706 1.002-.752.667-1.328 1.62-1.725 2.855-.398 1.221-.597 2.692-.597 4.41 0 1.705.199 3.175.597 4.411.397 1.236.973 2.187 1.725 2.855.753.668 1.655 1.001 2.706 1.001ZM139.852 113V80.273h11.421v6.221h.34c.597-2.3 1.542-3.984 2.834-5.05 1.307-1.065 2.834-1.597 4.581-1.597.512 0 1.016.042 1.513.127a9.659 9.659 0 0 1 1.47.32v10.035c-.582-.198-1.3-.347-2.152-.447-.852-.1-1.584-.149-2.194-.149-1.151 0-2.188.263-3.111.788a5.552 5.552 0 0 0-2.152 2.174c-.526.923-.789 2.01-.789 3.26V113h-11.761Zm35.135.511c-2.088 0-3.935-.341-5.54-1.022-1.591-.696-2.841-1.748-3.75-3.154-.909-1.406-1.363-3.196-1.363-5.369 0-1.79.305-3.317.916-4.581.611-1.279 1.463-2.323 2.557-3.132 1.093-.81 2.365-1.428 3.814-1.854 1.463-.426 3.039-.703 4.73-.83 1.832-.143 3.302-.313 4.41-.512 1.122-.213 1.932-.504 2.429-.874a1.82 1.82 0 0 0 .746-1.513v-.085c0-.852-.327-1.505-.98-1.96-.654-.454-1.492-.682-2.514-.682-1.123 0-2.039.249-2.749.746-.696.483-1.115 1.229-1.257 2.237h-10.824a11.153 11.153 0 0 1 1.896-5.497c1.137-1.69 2.792-3.04 4.965-4.048 2.173-1.023 4.886-1.534 8.139-1.534 2.344 0 4.446.277 6.307.83 1.861.54 3.444 1.3 4.751 2.28 1.307.966 2.301 2.103 2.983 3.41.696 1.292 1.044 2.698 1.044 4.218V113h-10.994v-4.602h-.256c-.653 1.221-1.449 2.209-2.386 2.961a8.78 8.78 0 0 1-3.175 1.641c-1.179.341-2.479.511-3.899.511Zm3.835-7.414c.895 0 1.733-.185 2.514-.554a4.847 4.847 0 0 0 1.939-1.598c.498-.696.746-1.542.746-2.536v-2.727a13.45 13.45 0 0 1-1.001.362 20.398 20.398 0 0 1-2.344.597c-.426.085-.874.163-1.342.234-.909.142-1.655.376-2.238.703-.568.313-.994.703-1.278 1.172-.27.455-.405.966-.405 1.534 0 .909.32 1.605.959 2.088.639.483 1.456.725 2.45.725Zm42.012-25.824v8.523h-21.563v-8.523h21.563Zm-17.386-7.841h11.761v30.042c0 .455.078.838.234 1.151.157.298.398.526.725.682.326.142.746.213 1.257.213.355 0 .767-.043 1.236-.128.483-.085.838-.156 1.065-.213l1.705 8.267c-.526.156-1.279.348-2.259.575-.966.228-2.116.377-3.452.448-2.699.142-4.964-.135-6.797-.831-1.832-.71-3.21-1.826-4.133-3.345-.923-1.52-1.371-3.424-1.342-5.711v-31.15Z"/><path fill="#C4951B" fill-rule="evenodd" d="M112.628 25.133v4.955h-3.511v-3.54c.656.756.89 1.7.702 2.832h2.107l-.703-7.08a7.831 7.831 0 0 0 4.213-1.415c.936-.472.936-.944 0-1.416a395.751 395.751 0 0 0-24.574-9.912c-.9-1.013-2.07-1.485-3.51-1.416-1.016-.787-2.187-.905-3.511-.354A243.342 243.342 0 0 1 55.755 19.47v-.708A477.43 477.43 0 0 1 86.298 6.018a454.996 454.996 0 0 1 32.298 13.45c.339.672.456 1.38.351 2.125a26.473 26.473 0 0 0-5.617 1.77c-.528.475-.763 1.065-.702 1.77Z" clip-rule="evenodd" opacity=".041"/><path fill="#C4951B" fill-rule="evenodd" d="M87.351 8.141c1.442-.069 2.612.403 3.51 1.416 1.605 1.146 3.01 2.562 4.213 4.248 1.5.811 3.02.811 4.564 0a2.408 2.408 0 0 1 1.756 1.062c-3.067 1.448-6.344 2.156-9.83 2.124-.542 1.414-.074 2.594 1.404 3.54a3.438 3.438 0 0 1-2.106.354c-.739-1.243-1.91-1.715-3.51-1.416A3.517 3.517 0 0 0 87 17.345c-2.193 1.795-4.416 1.795-6.67 0 1.43-1.975 1.664-4.098.702-6.372a6.876 6.876 0 0 1 4.213-.708V8.141h2.106Z" clip-rule="evenodd"/><path fill="#C4951B" fill-rule="evenodd" d="M87.351 8.142h-2.106v2.124a6.876 6.876 0 0 0-4.213.708c.962 2.273.728 4.397-.702 6.371-1.524.898-3.045.898-4.564 0a7.818 7.818 0 0 0-3.862 2.478c-2.139.881-4.245 1.235-6.319 1.062l-.702.354a6.52 6.52 0 0 1 1.404 3.186c-4.08-.727-7.59-2.379-10.532-4.956 9.601-3.306 18.963-7.2 28.086-11.681 1.324-.552 2.495-.434 3.51.354Z" clip-rule="evenodd"/><path fill="#C4951B" fill-rule="evenodd" d="M90.862 9.558a395.489 395.489 0 0 1 24.574 9.911c.936.472.936.944 0 1.416a7.831 7.831 0 0 1-4.212 1.416l.702 7.08h-2.107c.188-1.132-.046-2.076-.702-2.832v-2.124c-1.789-.08-3.428.392-4.915 1.416a46.804 46.804 0 0 0-7.723-2.478 156.845 156.845 0 0 0-21.064 0 24.916 24.916 0 0 0-7.021 2.478c-.87-.313-1.572-.785-2.107-1.416 2.422-.998 4.997-1.47 7.724-1.416v-2.124c5.589.404 11.206.404 16.85 0a3.438 3.438 0 0 0 2.107-.354c-1.478-.945-1.946-2.125-1.404-3.54 3.487.032 6.763-.676 9.83-2.124a2.408 2.408 0 0 0-1.756-1.062c-1.543.811-3.065.811-4.563 0-1.205-1.686-2.609-3.102-4.213-4.247Z" clip-rule="evenodd"/><path fill="#C4951B" fill-rule="evenodd" d="M80.33 17.345c2.254 1.795 4.477 1.795 6.67 0 .34.671.456 1.38.351 2.124 1.602-.3 2.772.173 3.51 1.416-5.644.404-11.261.404-16.85 0v2.124c-2.727-.054-5.302.418-7.724 1.416a6.52 6.52 0 0 0-1.404-3.186l.702-.354c2.074.173 4.18-.181 6.32-1.062a7.818 7.818 0 0 1 3.861-2.478c1.519.898 3.04.898 4.564 0Z" clip-rule="evenodd"/><path fill="#C4951B" fill-rule="evenodd" d="M55.755 18.761v.708c2.941 2.577 6.452 4.23 10.532 4.956.535.63 1.237 1.103 2.107 1.416a24.916 24.916 0 0 1 7.02-2.478 156.845 156.845 0 0 1 21.065 0 46.805 46.805 0 0 1 7.723 2.478c1.487-1.024 3.125-1.496 4.915-1.416v5.664h3.511v-4.956c1.703 6.477 1.82 13.085.351 19.823-.863 1.732-1.916 1.85-3.16.354a27.845 27.845 0 0 0-3.51-6.372 55.739 55.739 0 0 0 2.106-10.62c-.007-.993-.358-1.819-1.053-2.477-1.578 1.171-3.216 1.407-4.915.708a60.463 60.463 0 0 0-.351 9.203h-2.809c-5.436-4.968-11.755-6.502-18.957-4.601-1.67.507-3.075 1.333-4.213 2.478-1.072-.052-1.774.42-2.106 1.415-1.328.734-2.615.734-3.862 0a43.502 43.502 0 0 1-.351-7.787 70.184 70.184 0 0 1-14.745-5.664l-.702-1.416c.174-.859.642-1.33 1.404-1.416Zm43.532 16.991c-7.319-4.747-15.042-5.455-23.17-2.123 1.138-1.145 2.542-1.971 4.213-2.478 7.202-1.901 13.521-.367 18.957 4.601Zm-23.17-2.123c-.332.995-1.034 1.467-2.106 1.415.332-.995 1.034-1.467 2.106-1.415Z" clip-rule="evenodd" opacity=".016"/><path fill="#C4951B" fill-rule="evenodd" d="M78.223 25.133a46.402 46.402 0 0 0 16.15 0 57.08 57.08 0 0 0 7.021 1.416 51.757 51.757 0 0 1-.351 8.495c-5.921-5.335-12.826-7.105-20.713-5.31a29.744 29.744 0 0 0-7.724 3.894c-.687-2.212-.921-4.572-.702-7.08l6.32-1.415Z" clip-rule="evenodd" opacity=".997"/><path fill="#C4951B" fill-rule="evenodd" d="M94.372 25.133a46.402 46.402 0 0 1-16.149 0 49.605 49.605 0 0 1 16.15 0ZM109.819 30.796h2.809c.234 2.124-.703 3.068-2.809 2.832v-2.832Z" clip-rule="evenodd" opacity=".886"/><path fill="#C4951B" fill-rule="evenodd" d="M71.904 26.549c-.22 2.507.015 4.867.702 7.08a3.045 3.045 0 0 1-1.053 1.415c-.57-2.965-.453-5.797.351-8.495Z" clip-rule="evenodd" opacity=".643"/><path fill="#C4951B" fill-rule="evenodd" d="M99.287 35.752c7.076 8.186 8.129 17.153 3.16 26.903a251.307 251.307 0 0 1-16.15 15.575c-6.759-4.927-12.61-10.827-17.552-17.699-3.743-9.743-1.988-18.239 5.266-25.487 1.072.052 1.774-.42 2.106-1.416 8.128-3.33 15.851-2.623 23.17 2.124Zm-14.042 4.956c9.832 1.662 12.874 7.09 9.127 16.283a137.409 137.409 0 0 1-8.074 8.496l-7.724-7.788c-4.23-8.224-2.007-13.888 6.67-16.991Z" clip-rule="evenodd" opacity=".251"/><path fill="#C4951B" fill-rule="evenodd" d="M102.096 42.832c-.932-.92-1.868-1.864-2.809-2.832l-1.404 2.124c-.804-.903-.804-1.847 0-2.832-.835-.657-1.77-.893-2.808-.708.081-2.414-1.09-3.358-3.511-2.832-.18 1.708.522 2.888 2.106 3.54a3.971 3.971 0 0 0-.702 2.124c-7.36-3.25-13.21-1.598-17.553 4.956-1.228-2.273-1.696-4.633-1.404-7.08-.95.725-1.886 1.433-2.809 2.124 3.308-5.564 8.223-8.396 14.745-8.495 7.55-.096 12.933 3.208 16.149 9.911Z" clip-rule="evenodd" opacity=".999"/><path fill="#C4951B" fill-rule="evenodd" d="M109.117 34.336h3.511c.269 3.429-.199 6.733-1.404 9.912a35.729 35.729 0 0 0-3.511-5.664 22.605 22.605 0 0 0 1.404-4.248Z" clip-rule="evenodd" opacity=".996"/><path fill="#C4951B" fill-rule="evenodd" d="M92.968 41.416a30.332 30.332 0 0 1 4.915 7.08 17.379 17.379 0 0 1-1.053 7.08 88.026 88.026 0 0 1-6.67 8.495 13.773 13.773 0 0 0-2.809 2.478c-.702.472-1.404.472-2.106 0-4.189-3.51-7.582-7.64-10.181-12.39a23.15 23.15 0 0 1-.351-5.663c.428-.631.662-1.339.702-2.124 4.342-6.554 10.193-8.206 17.553-4.956Zm-7.723-.708c-8.678 3.103-10.901 8.767-6.67 16.991l7.723 7.788c2.82-2.725 5.51-5.556 8.074-8.496 3.748-9.193.705-14.62-9.127-16.283Z" clip-rule="evenodd" opacity=".075"/><path fill="#C4951B" fill-rule="evenodd" d="M102.096 42.832a24.712 24.712 0 0 1 1.053 11.327l-.702-2.832c-.684 1.684-1.152 1.448-1.404-.707a13.13 13.13 0 0 0-3.16-2.124 30.332 30.332 0 0 0-4.915-7.08 3.971 3.971 0 0 1 .702-2.124c-1.584-.652-2.286-1.832-2.106-3.54 2.422-.526 3.592.418 3.51 2.832 1.038-.185 1.974.05 2.809.708-.804.985-.804 1.929 0 2.832L99.287 40c.941.967 1.877 1.911 2.809 2.832Z" clip-rule="evenodd"/><path fill="#C4951B" fill-rule="evenodd" d="M71.202 41.416c-1.548 4.68-2.484 9.4-2.808 14.16-1.008-4.11-.656-8.122 1.053-12.036.264-1.021.85-1.73 1.755-2.124Z" clip-rule="evenodd" opacity=".89"/><path fill="#C4951B" fill-rule="evenodd" d="M102.096 42.832c4.201 10.178 1.861 18.438-7.021 24.779-.48-1.187-1.416-1.66-2.809-1.416V64.07H90.16a88.042 88.042 0 0 0 6.67-8.496 17.38 17.38 0 0 0 1.053-7.08 13.132 13.132 0 0 1 3.16 2.125c.252 2.155.72 2.39 1.404.708l.702 2.831a24.712 24.712 0 0 0-1.053-11.327Z" clip-rule="evenodd"/><path fill="#C4951B" fill-rule="evenodd" d="M82.436 44.956c7.924-1.099 11.084 2.205 9.479 9.911-3.418 3.537-7.045 3.773-10.883.708-2.048-3.894-1.58-7.434 1.404-10.62Z" clip-rule="evenodd" opacity=".409"/><path fill="#C4951B" fill-rule="evenodd" d="M89.457 47.08c1.701.844 2.403 2.26 2.107 4.247.42 2.398-.516 3.814-2.809 4.248l.703-1.416c1.048-.575 1.516-1.519 1.404-2.832.112-1.313-.356-2.256-1.404-2.831V47.08Z" clip-rule="evenodd" opacity=".38"/><path fill="#C4951B" fill-rule="evenodd" d="M89.457 48.495c1.049.575 1.517 1.52 1.405 2.832.112 1.313-.356 2.257-1.404 2.832a31.228 31.228 0 0 1-7.022-.708c-.168-1.392.066-2.69.702-3.894.737-.348 1.439-.23 2.107.354.706-.31.706-.782 0-1.416 1.415-.845 2.82-.845 4.212 0Z" clip-rule="evenodd"/><path fill="#C4951B" fill-rule="evenodd" d="M89.457 47.08v1.416c-1.393-.846-2.797-.846-4.212 0 .706.634.706 1.106 0 1.416-.668-.585-1.37-.703-2.107-.354-.636 1.203-.87 2.5-.702 3.893 2.307.501 4.648.737 7.021.708l-.702 1.416c-4.408 1.82-6.749.286-7.02-4.602.645-5.045 3.22-6.343 7.722-3.893ZM75.415 46.372a4.077 4.077 0 0 1-.702 2.123 3.894 3.894 0 0 1-2.107-.707 12.29 12.29 0 0 0-.35 7.08c.778 1.087 1.832 1.56 3.159 1.415a13.392 13.392 0 0 0-1.053 4.248c.713.803 1.181.567 1.404-.708a22.993 22.993 0 0 0 3.862 2.478 119.039 119.039 0 0 1-3.511 3.186c-1.83-1.3-3.35-2.953-4.564-4.956-.417-.99-.3-1.934.351-2.832-.543-.857-1.128-.857-1.755 0-.196-.648-.547-1.12-1.053-1.416-.468 0-.702-.236-.702-.708.324-4.76 1.26-9.479 2.808-14.16.923-.69 1.86-1.398 2.809-2.123-.292 2.447.176 4.806 1.404 7.08Z" clip-rule="evenodd"/><path fill="#C4951B" fill-rule="evenodd" d="M74.713 48.496a23.15 23.15 0 0 0 .35 5.663c2.6 4.75 5.993 8.879 10.182 12.39.702.472 1.404.472 2.106 0 .846-.974 1.782-1.8 2.808-2.478h2.107v2.124c1.392-.243 2.329.229 2.808 1.416a14.416 14.416 0 0 0-3.51-.708v4.247a12.854 12.854 0 0 0-4.213.354c.864.838.864 1.663 0 2.478-.702-.943-1.404-.943-2.106 0a39.354 39.354 0 0 1-9.128-8.495 119.16 119.16 0 0 0 3.51-3.186 23 23 0 0 1-3.861-2.478c-.223 1.275-.691 1.51-1.404.708a13.39 13.39 0 0 1 1.053-4.248c-1.328.144-2.38-.328-3.16-1.416a12.29 12.29 0 0 1 .351-7.08c.644.445 1.346.68 2.107.709Z" clip-rule="evenodd"/><path fill="#C4951B" fill-rule="evenodd" d="M69.096 56.283c.506.296.857.768 1.053 1.416.627-.857 1.212-.857 1.755 0-.651.898-.768 1.842-.35 2.832 1.212 2.003 2.734 3.655 4.563 4.956a39.356 39.356 0 0 0 9.128 8.495c.702-.943 1.404-.943 2.106 0 .864-.815.864-1.64 0-2.478 1.385-.35 2.79-.468 4.213-.354v-4.247c1.205.09 2.375.327 3.51.708a58.803 58.803 0 0 1-8.776 9.911l-14.043-14.16a16.128 16.128 0 0 1-3.16-7.079Z" clip-rule="evenodd"/></svg>