<svg width="98" height="55" viewBox="0 0 98 55" fill="none" xmlns="http://www.w3.org/2000/svg">
<path d="M1.00528 22.7955V18.8182H16.8078V22.7955H11.3391V37H6.47403V22.7955H1.00528ZM25.7234 31.0341V23.3636H30.624V37H25.972V34.4077H25.8299C25.534 35.2777 25.0161 35.9583 24.2763 36.4496C23.5365 36.9349 22.6576 37.1776 21.6396 37.1776C20.6867 37.1776 19.8522 36.9586 19.1361 36.5206C18.4258 36.0826 17.8724 35.4789 17.4759 34.7095C17.0853 33.9401 16.887 33.0582 16.8811 32.0639V23.3636H21.7816V31.0341C21.7876 31.7088 21.9592 32.2385 22.2966 32.6232C22.6398 33.0079 23.1192 33.2003 23.7348 33.2003C24.1432 33.2003 24.4953 33.1145 24.7912 32.9428C25.0931 32.7653 25.3239 32.5167 25.4837 32.1971C25.6494 31.8716 25.7293 31.4839 25.7234 31.0341ZM41.2485 23.3636V26.9148H32.2642V23.3636H41.2485ZM34.0042 20.0966H38.9048V32.6143C38.9048 32.8037 38.9373 32.9635 39.0024 33.0938C39.0675 33.218 39.1682 33.3127 39.3043 33.3778C39.4404 33.437 39.615 33.4666 39.8281 33.4666C39.976 33.4666 40.1477 33.4489 40.343 33.4134C40.5442 33.3778 40.6922 33.3482 40.7869 33.3246L41.4971 36.7692C41.2781 36.8343 40.9644 36.9142 40.5561 37.0089C40.1536 37.1036 39.6742 37.1657 39.1179 37.1953C37.9933 37.2545 37.0493 37.1391 36.2858 36.8491C35.5223 36.5531 34.9482 36.0885 34.5635 35.4553C34.1788 34.822 33.9924 34.0289 34.0042 33.076V20.0966ZM63.1701 37V23.3636H67.9287V25.956H68.0707C68.3193 24.9972 68.7129 24.2958 69.2515 23.8519C69.796 23.408 70.4322 23.1861 71.1602 23.1861C71.3733 23.1861 71.5834 23.2038 71.7905 23.2393C72.0036 23.2689 72.2078 23.3133 72.4031 23.3725V27.554C72.1604 27.4711 71.8616 27.409 71.5064 27.3675C71.1513 27.3261 70.8465 27.3054 70.592 27.3054C70.1126 27.3054 69.6806 27.4149 69.2959 27.6339C68.9171 27.8469 68.6182 28.1488 68.3992 28.5394C68.1802 28.9241 68.0707 29.3769 68.0707 29.8977V37H63.1701ZM77.8097 37.2131C76.9397 37.2131 76.1703 37.071 75.5015 36.7869C74.8386 36.4969 74.3178 36.0589 73.939 35.473C73.5602 34.8871 73.3708 34.1413 73.3708 33.2358C73.3708 32.4901 73.498 31.8538 73.7525 31.3271C74.007 30.7944 74.3621 30.3594 74.8179 30.022C75.2736 29.6847 75.8033 29.4272 76.407 29.2496C77.0166 29.0721 77.6736 28.9567 78.3779 28.9034C79.1414 28.8442 79.754 28.7732 80.2156 28.6903C80.6832 28.6016 81.0205 28.4802 81.2277 28.3263C81.4348 28.1665 81.5384 27.9564 81.5384 27.696V27.6605C81.5384 27.3054 81.4023 27.0331 81.13 26.8438C80.8578 26.6544 80.5086 26.5597 80.0824 26.5597C79.6149 26.5597 79.2331 26.6632 78.9372 26.8704C78.6472 27.0716 78.4726 27.3823 78.4134 27.8026H73.9035C73.9626 26.974 74.226 26.2105 74.6936 25.5121C75.1671 24.8078 75.8566 24.2455 76.7621 23.8253C77.6677 23.3991 78.7981 23.1861 80.1535 23.1861C81.13 23.1861 82.006 23.3015 82.7813 23.5323C83.5566 23.7572 84.2165 24.0739 84.7611 24.4822C85.3056 24.8847 85.7199 25.3582 86.004 25.9027C86.294 26.4413 86.439 27.0272 86.439 27.6605V37H81.858V35.0824H81.7515C81.4792 35.5914 81.1478 36.0027 80.7571 36.3164C80.3724 36.6301 79.9315 36.858 79.4343 37C78.9431 37.142 78.4016 37.2131 77.8097 37.2131ZM79.4077 34.1236C79.7806 34.1236 80.1298 34.0466 80.4553 33.8928C80.7867 33.7389 81.056 33.5169 81.2632 33.2269C81.4703 32.9369 81.5739 32.5848 81.5739 32.1705V31.0341C81.4437 31.0874 81.3046 31.1377 81.1566 31.185C81.0146 31.2324 80.8607 31.2768 80.695 31.3182C80.5352 31.3596 80.3636 31.3981 80.1801 31.4336C80.0025 31.4691 79.8161 31.5017 79.6208 31.5312C79.242 31.5904 78.9313 31.6881 78.6886 31.8242C78.4519 31.9544 78.2743 32.1172 78.1559 32.3125C78.0435 32.5019 77.9873 32.715 77.9873 32.9517C77.9873 33.3305 78.1204 33.6205 78.3868 33.8217C78.6531 34.023 78.9934 34.1236 79.4077 34.1236ZM96.9126 23.3636V26.9148H87.9282V23.3636H96.9126ZM89.6683 20.0966H94.5688V32.6143C94.5688 32.8037 94.6014 32.9635 94.6665 33.0938C94.7316 33.218 94.8322 33.3127 94.9684 33.3778C95.1045 33.437 95.2791 33.4666 95.4921 33.4666C95.6401 33.4666 95.8117 33.4489 96.0071 33.4134C96.2083 33.3778 96.3563 33.3482 96.4509 33.3246L97.1612 36.7692C96.9422 36.8343 96.6285 36.9142 96.2201 37.0089C95.8177 37.1036 95.3383 37.1657 94.7819 37.1953C93.6574 37.2545 92.7134 37.1391 91.9499 36.8491C91.1864 36.5531 90.6123 36.0885 90.2276 35.4553C89.8429 34.822 89.6564 34.0289 89.6683 33.076V20.0966Z" fill="#F9F9F9"/>
<g clip-path="url(#clip0_197_2252)">
<path opacity="0.041" fill-rule="evenodd" clip-rule="evenodd" d="M62.0957 20.7389C62.0957 21.379 62.0957 22.0192 62.0957 22.6593C61.6347 22.6593 61.1737 22.6593 60.7127 22.6593C60.7127 22.202 60.7127 21.7448 60.7127 21.2876C60.9712 21.5805 61.0634 21.9463 60.9893 22.3849C61.2659 22.3849 61.5425 22.3849 61.8191 22.3849C61.7269 21.4705 61.6347 20.556 61.5425 19.6416C62.1446 19.618 62.6978 19.4351 63.202 19.0929C63.5708 18.91 63.5708 18.7271 63.202 18.5442C60.0093 17.154 56.7823 15.8737 53.5212 14.7035C53.167 14.3109 52.706 14.128 52.1382 14.1549C51.7381 13.8495 51.2771 13.8038 50.7552 14.0177C47.1615 15.7542 43.4736 17.263 39.6914 18.5442C39.6914 18.4528 39.6914 18.3613 39.6914 18.2699C43.6222 16.4961 47.6328 14.8501 51.7233 13.3318C56.0324 14.9088 60.2735 16.6463 64.4467 18.5442C64.5803 18.8043 64.6264 19.0786 64.585 19.3672C63.828 19.5129 63.0904 19.7416 62.3723 20.0531C62.1641 20.2371 62.0719 20.4657 62.0957 20.7389Z" fill="#C4951B"/>
<path fill-rule="evenodd" clip-rule="evenodd" d="M52.1385 14.1549C52.7063 14.128 53.1673 14.3109 53.5215 14.7035C54.1535 15.1475 54.7067 15.6961 55.1811 16.3496C55.7715 16.6638 56.3708 16.6638 56.9789 16.3496C57.2718 16.3852 57.5023 16.5224 57.6704 16.7611C56.4624 17.322 55.1716 17.5964 53.7981 17.5841C53.5847 18.1322 53.7691 18.5894 54.3513 18.9557C54.0891 19.0882 53.8125 19.1339 53.5215 19.0929C53.2305 18.6112 52.7695 18.4283 52.1385 18.5442C52.1799 18.2556 52.1338 17.9813 52.0002 17.7212C51.1364 18.4166 50.2605 18.4166 49.3726 17.7212C49.9359 16.9561 50.0281 16.1331 49.6492 15.2522C50.1736 14.9873 50.7268 14.8959 51.3087 14.9779C51.3087 14.7035 51.3087 14.4292 51.3087 14.1549C51.5853 14.1549 51.8619 14.1549 52.1385 14.1549Z" fill="#C4951B"/>
<path fill-rule="evenodd" clip-rule="evenodd" d="M52.1382 14.1549C51.8616 14.1549 51.585 14.1549 51.3084 14.1549C51.3084 14.4292 51.3084 14.7035 51.3084 14.9779C50.7265 14.8959 50.1733 14.9873 49.6489 15.2522C50.0278 16.1331 49.9356 16.9561 49.3723 17.7212C48.772 18.0691 48.1727 18.0691 47.5744 17.7212C46.9718 17.8903 46.4647 18.2103 46.0531 18.6814C45.2104 19.0228 44.3806 19.16 43.5637 19.0929C43.4716 19.1387 43.3793 19.1844 43.2872 19.2301C43.5865 19.5949 43.7709 20.0064 43.8403 20.4646C42.2329 20.183 40.8499 19.5429 39.6914 18.5443C43.4736 17.2631 47.1615 15.7542 50.7552 14.0177C51.2771 13.8038 51.7381 13.8496 52.1382 14.1549Z" fill="#C4951B"/>
<path fill-rule="evenodd" clip-rule="evenodd" d="M53.5212 14.7036C56.7823 15.8737 60.0093 17.154 63.202 18.5443C63.5708 18.7272 63.5708 18.91 63.202 19.0929C62.6978 19.4351 62.1446 19.618 61.5425 19.6416C61.6346 20.5561 61.7269 21.4705 61.8191 22.385C61.5425 22.385 61.2659 22.385 60.9893 22.385C61.0633 21.9463 60.9712 21.5805 60.7127 21.2876C60.7127 21.0133 60.7127 20.739 60.7127 20.4646C60.0077 20.4337 59.3623 20.6166 58.7765 21.0133C57.7936 20.6076 56.7794 20.2875 55.7339 20.0531C52.968 19.8702 50.202 19.8702 47.4361 20.0531C46.4651 20.2369 45.5431 20.557 44.6701 21.0133C44.3275 20.8919 44.0509 20.709 43.8403 20.4646C44.7945 20.0779 45.8087 19.895 46.8829 19.9159C46.8829 19.6416 46.8829 19.3673 46.8829 19.0929C49.0847 19.2494 51.2974 19.2494 53.5212 19.0929C53.8122 19.1339 54.0888 19.0882 54.351 18.9558C53.7688 18.5894 53.5844 18.1322 53.7978 17.5841C55.1713 17.5964 56.4621 17.322 57.6701 16.7611C57.502 16.5224 57.2715 16.3853 56.9786 16.3496C56.3705 16.6638 55.7712 16.6638 55.1808 16.3496C54.7064 15.6962 54.1532 15.1475 53.5212 14.7036Z" fill="#C4951B"/>
<path fill-rule="evenodd" clip-rule="evenodd" d="M49.3722 17.7213C50.2602 18.4167 51.1361 18.4167 51.9999 17.7213C52.1334 17.9813 52.1795 18.2557 52.1382 18.5443C52.7691 18.4283 53.2301 18.6112 53.5212 19.0929C51.2974 19.2494 49.0846 19.2494 46.8829 19.0929C46.8829 19.3673 46.8829 19.6416 46.8829 19.9159C45.8086 19.895 44.7944 20.0779 43.8403 20.4646C43.7708 20.0064 43.5864 19.5949 43.2871 19.2301C43.3793 19.1844 43.4715 19.1387 43.5637 19.0929C44.3806 19.16 45.2104 19.0228 46.0531 18.6814C46.4647 18.2103 46.9718 17.8903 47.5743 17.7213C48.1727 18.0691 48.7719 18.0691 49.3722 17.7213Z" fill="#C4951B"/>
<path opacity="0.016" fill-rule="evenodd" clip-rule="evenodd" d="M39.6914 18.2699C39.6914 18.3613 39.6914 18.4528 39.6914 18.5442C40.8499 19.5428 42.2329 20.183 43.8403 20.4646C44.0509 20.709 44.3275 20.8919 44.6701 21.0133C45.5431 20.557 46.465 20.2369 47.4361 20.0531C50.202 19.8702 52.968 19.8702 55.7339 20.0531C56.7794 20.2875 57.7936 20.6075 58.7765 21.0133C59.3623 20.6166 60.0077 20.4337 60.7127 20.4646C60.7127 20.7389 60.7127 21.0133 60.7127 21.2876C60.7127 21.7448 60.7127 22.202 60.7127 22.6593C61.1737 22.6593 61.6346 22.6593 62.0956 22.6593C62.0956 22.0192 62.0956 21.379 62.0956 20.7389C62.7668 23.2488 62.8128 25.8092 62.2339 28.4203C61.894 29.0916 61.4791 29.1373 60.9892 28.5575C60.6292 27.6591 60.1682 26.8361 59.6063 26.0885C60.0174 24.7503 60.294 23.3786 60.4361 21.9734C60.4335 21.5883 60.2952 21.2683 60.0212 21.0133C59.3997 21.4672 58.7543 21.5587 58.085 21.2876C57.947 22.4729 57.9009 23.6617 57.9467 24.854C57.5779 24.854 57.2091 24.854 56.8403 24.854C54.6989 22.9286 52.2095 22.3342 49.3722 23.0708C48.7142 23.2673 48.161 23.5873 47.7127 24.031C47.2903 24.0109 47.0137 24.1938 46.8829 24.5796C46.3598 24.8639 45.8527 24.8639 45.3616 24.5796C45.2237 23.5779 45.1776 22.572 45.2233 21.5619C43.2155 21.05 41.2793 20.3184 39.4148 19.3672C39.3226 19.1843 39.2304 19.0015 39.1382 18.8186C39.2065 18.4857 39.3909 18.3028 39.6914 18.2699ZM56.8403 24.854C53.9571 23.0145 50.9146 22.7402 47.7127 24.031C48.161 23.5873 48.7142 23.2673 49.3722 23.0708C52.2095 22.3342 54.6989 22.9286 56.8403 24.854ZM47.7127 24.031C47.5818 24.4168 47.3052 24.5997 46.8829 24.5796C47.0137 24.1938 47.2903 24.0109 47.7127 24.031Z" fill="#C4951B"/>
<path opacity="0.997" fill-rule="evenodd" clip-rule="evenodd" d="M48.5427 20.739C50.6633 21.1047 52.7839 21.1047 54.9044 20.739C55.8143 20.9787 56.7362 21.1616 57.6704 21.2876C57.7162 22.3888 57.6701 23.4861 57.5321 24.5797C55.1996 22.5123 52.4798 21.8264 49.3725 22.5221C48.2738 22.8841 47.2596 23.3871 46.33 24.031C46.0591 23.1737 45.9669 22.2593 46.0534 21.2876C46.8832 21.1047 47.713 20.9219 48.5427 20.739Z" fill="#C4951B"/>
<path opacity="0.886" fill-rule="evenodd" clip-rule="evenodd" d="M54.9042 20.7389C52.7836 21.1047 50.6631 21.1047 48.5425 20.7389C50.6597 20.3971 52.7803 20.3971 54.9042 20.7389Z" fill="#C4951B"/>
<path opacity="0.886" fill-rule="evenodd" clip-rule="evenodd" d="M60.9893 22.9337C61.358 22.9337 61.7269 22.9337 62.0956 22.9337C62.1878 23.7567 61.819 24.1224 60.9893 24.031C60.9893 23.6652 60.9893 23.2994 60.9893 22.9337Z" fill="#C4951B"/>
<path opacity="0.643" fill-rule="evenodd" clip-rule="evenodd" d="M46.0534 21.2876C45.9669 22.2593 46.0591 23.1737 46.33 24.031C46.2518 24.2474 46.1135 24.4303 45.9151 24.5796C45.6906 23.4305 45.7366 22.3331 46.0534 21.2876Z" fill="#C4951B"/>
<path opacity="0.251" fill-rule="evenodd" clip-rule="evenodd" d="M56.8404 24.854C59.6277 28.0259 60.0426 31.5008 58.085 35.2787C56.045 37.394 53.9244 39.4059 51.7233 41.3141C49.0605 39.4048 46.7556 37.1185 44.8084 34.4557C43.334 30.6803 44.0255 27.3883 46.8829 24.5796C47.3052 24.5997 47.5818 24.4168 47.7127 24.031C50.9146 22.7402 53.9572 23.0145 56.8404 24.854ZM51.3084 26.7743C55.1817 27.4185 56.3803 29.5217 54.9042 33.0841C53.8943 34.223 52.834 35.3203 51.7233 36.3761C50.7091 35.3702 49.695 34.3643 48.6808 33.3584C47.0141 30.1713 47.8899 27.9767 51.3084 26.7743Z" fill="#C4951B"/>
<path opacity="0.999" fill-rule="evenodd" clip-rule="evenodd" d="M57.9466 27.5973C57.5796 27.2407 57.2108 26.8749 56.8402 26.5C56.6558 26.7743 56.4714 27.0487 56.287 27.323C55.9704 26.973 55.9704 26.6073 56.287 26.2257C55.9582 25.9709 55.5894 25.8795 55.1806 25.9513C55.2128 25.0158 54.7518 24.65 53.7976 24.854C53.7268 25.5158 54.0034 25.973 54.6274 26.2257C54.4539 26.4772 54.3617 26.7515 54.3508 27.0487C51.4515 25.7894 49.1466 26.4296 47.4359 28.969C46.9523 28.0881 46.7679 27.1737 46.8828 26.2257C46.5088 26.5067 46.1401 26.781 45.7764 27.0487C47.0796 24.8924 49.0157 23.7951 51.5849 23.7566C54.5591 23.7197 56.6797 25 57.9466 27.5973Z" fill="#C4951B"/>
<path opacity="0.996" fill-rule="evenodd" clip-rule="evenodd" d="M60.7129 24.3053C61.1739 24.3053 61.6348 24.3053 62.0958 24.3053C62.2019 25.6338 62.0175 26.914 61.5426 28.146C61.161 27.3877 60.7001 26.6562 60.1597 25.9513C60.4009 25.4165 60.5853 24.8678 60.7129 24.3053Z" fill="#C4951B"/>
<path opacity="0.075" fill-rule="evenodd" clip-rule="evenodd" d="M54.351 27.0487C55.1392 27.8869 55.7846 28.8013 56.2871 29.792C56.3421 30.736 56.2038 31.6505 55.8722 32.5354C55.0606 33.691 54.1847 34.7883 53.2446 35.8274C52.8403 36.0902 52.4715 36.4102 52.1382 36.7876C51.8616 36.9705 51.585 36.9705 51.3084 36.7876C49.6585 35.4272 48.3216 33.827 47.2978 31.9867C47.1602 31.2608 47.1141 30.5293 47.1595 29.792C47.3281 29.5476 47.4203 29.2733 47.4361 28.969C49.1467 26.4296 51.4517 25.7894 54.351 27.0487ZM51.3084 26.7743C47.8899 27.9767 47.014 30.1714 48.6807 33.3584C49.6949 34.3643 50.7091 35.3702 51.7233 36.3761C52.834 35.3204 53.8943 34.223 54.9041 33.0841C56.3803 29.5217 55.1817 27.4185 51.3084 26.7743Z" fill="#C4951B"/>
<path fill-rule="evenodd" clip-rule="evenodd" d="M57.9469 27.5973C58.4319 29.0248 58.5702 30.488 58.3618 31.9867C58.2696 31.6209 58.1774 31.2551 58.0852 30.8894C57.8156 31.5416 57.6312 31.4502 57.532 30.615C57.1448 30.2727 56.7299 29.9983 56.2873 29.792C55.7848 28.8013 55.1394 27.8868 54.3511 27.0487C54.362 26.7515 54.4542 26.4772 54.6277 26.2257C54.0037 25.973 53.7271 25.5158 53.7979 24.854C54.7521 24.65 55.2131 25.0157 55.1809 25.9513C55.5897 25.8794 55.9585 25.9709 56.2873 26.2257C55.9707 26.6073 55.9707 26.973 56.2873 27.323C56.4717 27.0487 56.6561 26.7743 56.8405 26.5C57.2111 26.8749 57.5799 27.2407 57.9469 27.5973Z" fill="#C4951B"/>
<path opacity="0.89" fill-rule="evenodd" clip-rule="evenodd" d="M45.7767 27.0486C45.167 28.8622 44.7982 30.6911 44.6703 32.5354C44.2736 30.9428 44.4119 29.3883 45.0852 27.8717C45.1895 27.476 45.4199 27.2016 45.7767 27.0486Z" fill="#C4951B"/>
<path fill-rule="evenodd" clip-rule="evenodd" d="M57.9468 27.5974C59.6018 31.5415 58.6799 34.7421 55.1808 37.1991C54.9918 36.7392 54.623 36.5563 54.0744 36.6504C54.0744 36.3761 54.0744 36.1018 54.0744 35.8274C53.7978 35.8274 53.5212 35.8274 53.2446 35.8274C54.1848 34.7883 55.0606 33.691 55.8723 32.5354C56.2039 31.6505 56.3422 30.736 56.2872 29.792C56.7298 29.9983 57.1447 30.2727 57.5319 30.6151C57.6311 31.4502 57.8155 31.5416 58.0851 30.8894C58.1772 31.2552 58.2695 31.621 58.3616 31.9867C58.5701 30.488 58.4318 29.0249 57.9468 27.5974Z" fill="#C4951B"/>
<path opacity="0.409" fill-rule="evenodd" clip-rule="evenodd" d="M50.2023 28.4204C53.3238 27.9947 54.5685 29.2749 53.9363 32.2611C52.5901 33.6316 51.161 33.723 49.6491 32.5354C48.8425 31.0265 49.0269 29.6549 50.2023 28.4204Z" fill="#C4951B"/>
<path opacity="0.38" fill-rule="evenodd" clip-rule="evenodd" d="M52.968 29.2433C53.638 29.5704 53.9146 30.1191 53.7978 30.8894C53.9635 31.8183 53.5947 32.367 52.6914 32.5354C52.7836 32.3525 52.8758 32.1696 52.968 31.9867C53.381 31.7639 53.5654 31.3981 53.5212 30.8894C53.5654 30.3806 53.381 30.0148 52.968 29.792C52.968 29.6091 52.968 29.4262 52.968 29.2433Z" fill="#C4951B"/>
<path fill-rule="evenodd" clip-rule="evenodd" d="M52.9679 29.792C53.3809 30.0148 53.5653 30.3806 53.5211 30.8894C53.5653 31.3981 53.3809 31.7639 52.9679 31.9867C52.0328 31.9978 51.1108 31.9064 50.2019 31.7124C50.1357 31.1727 50.2279 30.6698 50.4785 30.2035C50.7687 30.0685 51.0453 30.1142 51.3083 30.3407C51.5866 30.2206 51.5866 30.0378 51.3083 29.792C51.8658 29.4644 52.419 29.4644 52.9679 29.792Z" fill="#C4951B"/>
<path fill-rule="evenodd" clip-rule="evenodd" d="M52.9678 29.2434C52.9678 29.4263 52.9678 29.6092 52.9678 29.7921C52.419 29.4645 51.8658 29.4645 51.3083 29.7921C51.5866 30.0378 51.5866 30.2207 51.3083 30.3407C51.0452 30.1142 50.7686 30.0685 50.4785 30.2036C50.2279 30.6698 50.1357 31.1727 50.2019 31.7124C51.1108 31.9064 52.0328 31.9979 52.9678 31.9868C52.8757 32.1697 52.7834 32.3525 52.6913 32.5354C50.9544 33.2407 50.0324 32.6463 49.9253 30.7522C50.1796 28.7972 51.1938 28.2942 52.9678 29.2434Z" fill="#C4951B"/>
<path fill-rule="evenodd" clip-rule="evenodd" d="M47.4364 28.969C47.4206 29.2732 47.3284 29.5476 47.1598 29.792C46.8602 29.7812 46.5836 29.6897 46.33 29.5177C46.01 30.4187 45.9639 31.3332 46.1917 32.261C46.4986 32.6826 46.9135 32.8655 47.4364 32.8097C47.202 33.3533 47.0637 33.902 47.0215 34.4557C47.3025 34.7669 47.4869 34.6754 47.5747 34.1814C48.0499 34.5518 48.557 34.8718 49.0959 35.1416C48.6252 35.5782 48.1643 35.9897 47.713 36.3761C46.9923 35.8721 46.393 35.232 45.9151 34.4557C45.7506 34.072 45.7967 33.7062 46.0534 33.3584C45.8393 33.0261 45.6088 33.0261 45.3619 33.3584C45.2849 33.1072 45.1466 32.9243 44.947 32.8097C44.7626 32.8097 44.6704 32.7183 44.6704 32.5354C44.7983 30.6911 45.167 28.8622 45.7768 27.0487C46.1405 26.781 46.5093 26.5067 46.8832 26.2256C46.7683 27.1737 46.9527 28.0881 47.4364 28.969Z" fill="#C4951B"/>
<path fill-rule="evenodd" clip-rule="evenodd" d="M47.1595 29.792C47.1141 30.5293 47.1602 31.2608 47.2978 31.9867C48.3216 33.8269 49.6585 35.4272 51.3084 36.7876C51.585 36.9705 51.8616 36.9705 52.1382 36.7876C52.4716 36.4102 52.8403 36.0902 53.2446 35.8274C53.5212 35.8274 53.7978 35.8274 54.0744 35.8274C54.0744 36.1018 54.0744 36.3761 54.0744 36.6504C54.6229 36.5563 54.9918 36.7392 55.1808 37.1991C54.7335 37.0515 54.2725 36.9601 53.7978 36.9248C53.7978 37.4735 53.7978 38.0221 53.7978 38.5708C53.2371 38.5264 52.6839 38.5722 52.1382 38.708C52.4787 39.0325 52.4787 39.3524 52.1382 39.6681C51.8616 39.3025 51.585 39.3025 51.3084 39.6681C49.9236 38.751 48.7251 37.6538 47.7127 36.3761C48.164 35.9897 48.625 35.5782 49.0957 35.1416C48.5568 34.8719 48.0497 34.5518 47.5744 34.1814C47.4866 34.6754 47.3022 34.7669 47.0212 34.4558C47.0634 33.902 47.2017 33.3533 47.4361 32.8097C46.9132 32.8656 46.4983 32.6827 46.1914 32.2611C45.9636 31.3332 46.0097 30.4187 46.3297 29.5177C46.5833 29.6898 46.8599 29.7812 47.1595 29.792Z" fill="#C4951B"/>
<path fill-rule="evenodd" clip-rule="evenodd" d="M44.9468 32.8098C45.1464 32.9243 45.2847 33.1072 45.3617 33.3584C45.6086 33.0261 45.8391 33.0261 46.0532 33.3584C45.7965 33.7062 45.7504 34.072 45.9149 34.4558C46.3928 35.2321 46.9921 35.8722 47.7127 36.3761C48.7251 37.6538 49.9237 38.7511 51.3085 39.6682C51.5851 39.3025 51.8617 39.3025 52.1383 39.6682C52.4788 39.3524 52.4788 39.0325 52.1383 38.708C52.6839 38.5722 53.2371 38.5264 53.7978 38.5708C53.7978 38.0221 53.7978 37.4735 53.7978 36.9248C54.2725 36.9601 54.7335 37.0515 55.1808 37.1991C54.1725 38.6106 53.02 39.8906 51.7234 41.0398C49.8794 39.2108 48.0354 37.382 46.1915 35.5531C45.5486 34.7356 45.1338 33.8211 44.9468 32.8098Z" fill="#C4951B"/>
</g>
<defs>
<clipPath id="clip0_197_2252">
<rect width="26" height="29" fill="white" transform="translate(39 13)"/>
</clipPath>
</defs>
</svg>
