<svg width="24" height="24" viewBox="0 0 24 24" fill="none" xmlns="http://www.w3.org/2000/svg">
<path fill-rule="evenodd" clip-rule="evenodd" d="M10.8775 0.401611C13.7359 0.401611 16.0615 2.72716 16.0615 5.5856V6.67475C16.0615 7.15855 15.6688 7.55121 15.185 7.55121C14.7012 7.55121 14.3085 7.15855 14.3085 6.67475V5.5856C14.3085 3.69244 12.7695 2.15454 10.8775 2.15454H5.18048C3.29082 2.15454 1.75293 3.69244 1.75293 5.5856V18.5911C1.75293 20.4831 3.29082 22.021 5.18048 22.021H10.8903C12.7741 22.021 14.3085 20.4878 14.3085 18.604V17.502C14.3085 17.0182 14.7012 16.6255 15.185 16.6255C15.6688 16.6255 16.0615 17.0182 16.0615 17.502V18.604C16.0615 21.4554 13.7406 23.7739 10.8903 23.7739H5.18048C2.32438 23.7739 0 21.4496 0 18.5911V5.5856C0 2.72716 2.32438 0.401611 5.18048 0.401611H10.8775ZM20.32 8.06073L23.7417 11.4672C23.7723 11.4975 23.7996 11.529 23.8246 11.5624L23.7417 11.4672C23.7831 11.5081 23.82 11.5527 23.8519 11.6002C23.866 11.6218 23.8795 11.6441 23.8921 11.667C23.9023 11.6849 23.9117 11.7036 23.9204 11.7225C23.9278 11.7393 23.9349 11.7561 23.9414 11.7732C23.9502 11.7954 23.9579 11.8182 23.9647 11.8413C23.9698 11.8595 23.9745 11.8777 23.9786 11.8961C23.9838 11.9184 23.9879 11.9409 23.9912 11.9635C23.993 11.9782 23.9948 11.9937 23.9962 12.0092C23.9988 12.0359 24 12.0618 24 12.0878L23.994 12.1602L23.9916 12.2067C23.9914 12.2086 23.9911 12.2106 23.9908 12.2126L24 12.0878C24 12.1526 23.9928 12.2169 23.9789 12.2793C23.9745 12.2978 23.9698 12.316 23.9646 12.334C23.9579 12.3574 23.9502 12.3802 23.9416 12.4027C23.9349 12.4194 23.9278 12.4362 23.9202 12.4528C23.9117 12.472 23.9023 12.4907 23.8922 12.509C23.8795 12.5315 23.866 12.5538 23.8515 12.5754C23.8433 12.5882 23.8343 12.6008 23.8249 12.6133C23.7971 12.6499 23.7668 12.6843 23.734 12.7162L20.32 16.116C20.1494 16.2866 19.925 16.3719 19.7018 16.3719C19.4775 16.3719 19.2519 16.2866 19.0813 16.1137C18.7401 15.7701 18.7412 15.2162 19.0836 14.8749L21 12.9642H9.05187C8.56806 12.9642 8.17541 12.5716 8.17541 12.0878C8.17541 11.604 8.56806 11.2113 9.05187 11.2113H21.0024L19.0836 9.3018C18.7412 8.96056 18.7389 8.40664 19.0813 8.06306C19.4225 7.71949 19.9765 7.71949 20.32 8.06073Z" fill="#FA553A"/>
</svg>
