<svg width="25" height="19" viewBox="0 0 25 19" fill="none" xmlns="http://www.w3.org/2000/svg">
<path d="M19.3359 11.3636H17.3359V9.84847H19.3359M19.3359 14.3939H17.3359V12.8788H19.3359M13.3359 5.30302H11.3359V3.78786H13.3359M13.3359 8.33332H11.3359V6.81817H13.3359M13.3359 11.3636H11.3359V9.84847H13.3359M13.3359 14.3939H11.3359V12.8788H13.3359M7.33594 8.33332H5.33594V6.81817H7.33594M7.33594 11.3636H5.33594V9.84847H7.33594M7.33594 14.3939H5.33594V12.8788H7.33594M15.3359 8.33332V3.78786L12.3359 1.51514L9.33594 3.78786V5.30302H3.33594V15.9091H21.3359V8.33332H15.3359Z" fill="#A0A3BD"/>
</svg>
