<svg width="17" height="17" viewBox="0 0 17 17" fill="none" xmlns="http://www.w3.org/2000/svg">
  <path
    d="M8.5 16.1602C4.1 16.1602 0.5 12.5602 0.5 8.16016C0.5 3.76016 4.1 0.160156 8.5 0.160156C12.9 0.160156 16.5 3.76016 16.5 8.16016C16.5 12.5602 12.9 16.1602 8.5 16.1602ZM8.5 1.66016C4.9 1.66016 2 4.56016 2 8.16016C2 11.7602 4.9 14.6602 8.5 14.6602C12.1 14.6602 15 11.7602 15 8.16016C15 4.56016 12.1 1.66016 8.5 1.66016Z"
    fill="currentColor" />
  <path
    d="M8.5 11.1602C10.1569 11.1602 11.5 9.81701 11.5 8.16016C11.5 6.5033 10.1569 5.16016 8.5 5.16016C6.84315 5.16016 5.5 6.5033 5.5 8.16016C5.5 9.81701 6.84315 11.1602 8.5 11.1602Z"
    fill="currentColor" />
</svg>