<svg width="23" height="23" viewBox="0 0 23 23" fill="none" xmlns="http://www.w3.org/2000/svg">
  <path
    d="M16.7083 13.5833C16.9846 13.5833 17.2496 13.4736 17.4449 13.2782C17.6403 13.0829 17.75 12.8179 17.75 12.5417C17.75 12.2654 17.6403 12.0004 17.4449 11.8051C17.2496 11.6097 16.9846 11.5 16.7083 11.5C16.4321 11.5 16.1671 11.6097 15.9718 11.8051C15.7764 12.0004 15.6667 12.2654 15.6667 12.5417C15.6667 12.8179 15.7764 13.0829 15.9718 13.2782C16.1671 13.4736 16.4321 13.5833 16.7083 13.5833ZM16.7083 17.75C16.9846 17.75 17.2496 17.6403 17.4449 17.4449C17.6403 17.2496 17.75 16.9846 17.75 16.7083C17.75 16.4321 17.6403 16.1671 17.4449 15.9718C17.2496 15.7764 16.9846 15.6667 16.7083 15.6667C16.4321 15.6667 16.1671 15.7764 15.9718 15.9718C15.7764 16.1671 15.6667 16.4321 15.6667 16.7083C15.6667 16.9846 15.7764 17.2496 15.9718 17.4449C16.1671 17.6403 16.4321 17.75 16.7083 17.75ZM12.5417 12.5417C12.5417 12.8179 12.4319 13.0829 12.2366 13.2782C12.0412 13.4736 11.7763 13.5833 11.5 13.5833C11.2237 13.5833 10.9588 13.4736 10.7634 13.2782C10.5681 13.0829 10.4583 12.8179 10.4583 12.5417C10.4583 12.2654 10.5681 12.0004 10.7634 11.8051C10.9588 11.6097 11.2237 11.5 11.5 11.5C11.7763 11.5 12.0412 11.6097 12.2366 11.8051C12.4319 12.0004 12.5417 12.2654 12.5417 12.5417ZM12.5417 16.7083C12.5417 16.9846 12.4319 17.2496 12.2366 17.4449C12.0412 17.6403 11.7763 17.75 11.5 17.75C11.2237 17.75 10.9588 17.6403 10.7634 17.4449C10.5681 17.2496 10.4583 16.9846 10.4583 16.7083C10.4583 16.4321 10.5681 16.1671 10.7634 15.9718C10.9588 15.7764 11.2237 15.6667 11.5 15.6667C11.7763 15.6667 12.0412 15.7764 12.2366 15.9718C12.4319 16.1671 12.5417 16.4321 12.5417 16.7083ZM6.29167 13.5833C6.56793 13.5833 6.83289 13.4736 7.02824 13.2782C7.22359 13.0829 7.33333 12.8179 7.33333 12.5417C7.33333 12.2654 7.22359 12.0004 7.02824 11.8051C6.83289 11.6097 6.56793 11.5 6.29167 11.5C6.0154 11.5 5.75045 11.6097 5.5551 11.8051C5.35975 12.0004 5.25 12.2654 5.25 12.5417C5.25 12.8179 5.35975 13.0829 5.5551 13.2782C5.75045 13.4736 6.0154 13.5833 6.29167 13.5833ZM6.29167 17.75C6.56793 17.75 6.83289 17.6403 7.02824 17.4449C7.22359 17.2496 7.33333 16.9846 7.33333 16.7083C7.33333 16.4321 7.22359 16.1671 7.02824 15.9718C6.83289 15.7764 6.56793 15.6667 6.29167 15.6667C6.0154 15.6667 5.75045 15.7764 5.5551 15.9718C5.35975 16.1671 5.25 16.4321 5.25 16.7083C5.25 16.9846 5.35975 17.2496 5.5551 17.4449C5.75045 17.6403 6.0154 17.75 6.29167 17.75Z"
    fill="currentColor" />
  <path fill-rule="evenodd" clip-rule="evenodd"
    d="M6.29183 0.822876C6.49903 0.822876 6.69774 0.905186 6.84426 1.0517C6.99077 1.19821 7.07308 1.39693 7.07308 1.60413V2.39892C7.76266 2.38538 8.52204 2.38538 9.35746 2.38538H13.6418C14.4783 2.38538 15.2377 2.38538 15.9272 2.39892V1.60413C15.9272 1.39693 16.0096 1.19821 16.1561 1.0517C16.3026 0.905186 16.5013 0.822876 16.7085 0.822876C16.9157 0.822876 17.1144 0.905186 17.2609 1.0517C17.4074 1.19821 17.4897 1.39693 17.4897 1.60413V2.46558C17.7606 2.48642 18.0168 2.51246 18.2595 2.54475C19.4804 2.70933 20.4689 3.05517 21.2491 3.83433C22.0283 4.61454 22.3741 5.60308 22.5387 6.82392C22.6981 8.01142 22.6981 9.52704 22.6981 11.4416V13.6416C22.6981 15.5562 22.6981 17.0729 22.5387 18.2593C22.3741 19.4802 22.0283 20.4687 21.2491 21.2489C20.4689 22.0281 19.4804 22.3739 18.2595 22.5385C17.072 22.6979 15.5564 22.6979 13.6418 22.6979H9.3585C7.44391 22.6979 5.92725 22.6979 4.74079 22.5385C3.51995 22.3739 2.53141 22.0281 1.7512 21.2489C0.972038 20.4687 0.626204 19.4802 0.461621 18.2593C0.302246 17.0718 0.302246 15.5562 0.302246 13.6416V11.4416C0.302246 9.52704 0.302246 8.01038 0.461621 6.82392C0.626204 5.60308 0.972038 4.61454 1.7512 3.83433C2.53141 3.05517 3.51995 2.70933 4.74079 2.54475C4.9835 2.51246 5.24079 2.48642 5.51058 2.46558V1.60413C5.51058 1.39693 5.59289 1.19821 5.7394 1.0517C5.88592 0.905186 6.08463 0.822876 6.29183 0.822876ZM4.94808 4.09371C3.9012 4.23433 3.29704 4.49892 2.85641 4.93954C2.41579 5.38017 2.1512 5.98433 2.01058 7.03225C1.98662 7.20933 1.96683 7.39683 1.95016 7.59371H21.0502C21.0335 7.39579 21.0137 7.20933 20.9897 7.03121C20.8491 5.98433 20.5845 5.38017 20.1439 4.93954C19.7033 4.49892 19.0991 4.23433 18.0512 4.09371C16.9814 3.94996 15.57 3.94788 13.5835 3.94788H9.41683C7.43037 3.94788 6.01996 3.94996 4.94808 4.09371ZM1.86475 11.5C1.86475 10.6104 1.86475 9.83642 1.87829 9.15621H21.122C21.1356 9.83642 21.1356 10.6104 21.1356 11.5V13.5833C21.1356 15.5698 21.1335 16.9812 20.9897 18.052C20.8491 19.0989 20.5845 19.7031 20.1439 20.1437C19.7033 20.5843 19.0991 20.8489 18.0512 20.9895C16.9814 21.1333 15.57 21.1354 13.5835 21.1354H9.41683C7.43037 21.1354 6.01996 21.1333 4.94808 20.9895C3.9012 20.8489 3.29704 20.5843 2.85641 20.1437C2.41579 19.7031 2.1512 19.0989 2.01058 18.051C1.86683 16.9812 1.86475 15.5698 1.86475 13.5833V11.5Z"
    fill="currentColor" />
</svg>