<svg width="16" height="16" viewBox="0 0 16 16" fill="none" xmlns="http://www.w3.org/2000/svg">
<path d="M15.9801 6.06734C15.9567 5.99354 15.9122 5.92819 15.8522 5.87928C15.7921 5.83038 15.7191 5.80005 15.6421 5.79201L10.4795 5.24401L8.3648 0.470674C8.2368 0.180674 7.7628 0.180674 7.6348 0.470674L5.52147 5.24401L0.358132 5.79201C0.281107 5.80025 0.208123 5.83064 0.148016 5.87951C0.0879096 5.92838 0.0432572 5.99362 0.0194652 6.06734C-0.00437236 6.14133 -0.00635909 6.22062 0.0137433 6.29571C0.0338457 6.3708 0.0751836 6.43849 0.132799 6.49067L3.98947 9.98934L2.91213 15.1007C2.89991 15.159 2.90078 15.2194 2.91468 15.2774C2.92858 15.3354 2.95517 15.3896 2.99254 15.4361C3.0299 15.4825 3.07711 15.5202 3.13076 15.5462C3.18441 15.5722 3.24317 15.5861 3.3028 15.5867C3.37307 15.5867 3.44209 15.5681 3.5028 15.5327L8.00013 12.922L12.4981 15.5327C12.6341 15.612 12.8048 15.6027 12.9328 15.5093C12.9953 15.4634 13.0432 15.4004 13.0709 15.3279C13.0986 15.2555 13.1048 15.1766 13.0888 15.1007L12.0115 9.98867L15.8688 6.49001C15.9261 6.43773 15.9671 6.37008 15.9869 6.29514C16.0068 6.22019 16.0047 6.14111 15.9808 6.06734H15.9801Z" fill="#FDC425"/>
</svg>
