<svg width="25" height="25" viewBox="0 0 25 25" fill="none" xmlns="http://www.w3.org/2000/svg">
  <path
    d="M5.01953 7.83984H6.01953C6.54996 7.83984 7.05867 7.62913 7.43374 7.25406C7.80882 6.87898 8.01953 6.37028 8.01953 5.83984C8.01953 5.57463 8.12489 5.32027 8.31242 5.13274C8.49996 4.9452 8.75431 4.83984 9.01953 4.83984H15.0195C15.2847 4.83984 15.5391 4.9452 15.7266 5.13274C15.9142 5.32027 16.0195 5.57463 16.0195 5.83984C16.0195 6.37028 16.2302 6.87898 16.6053 7.25406C16.9804 7.62913 17.4891 7.83984 18.0195 7.83984H19.0195C19.55 7.83984 20.0587 8.05056 20.4337 8.42563C20.8088 8.8007 21.0195 9.30941 21.0195 9.83984V18.8398C21.0195 19.3703 20.8088 19.879 20.4337 20.2541C20.0587 20.6291 19.55 20.8398 19.0195 20.8398H5.01953C4.4891 20.8398 3.98039 20.6291 3.60532 20.2541C3.23024 19.879 3.01953 19.3703 3.01953 18.8398V9.83984C3.01953 9.30941 3.23024 8.8007 3.60532 8.42563C3.98039 8.05056 4.4891 7.83984 5.01953 7.83984Z"
    stroke="currentColor" stroke-width="2" stroke-linecap="round" stroke-linejoin="round" />
  <path
    d="M12.0195 16.8398C13.6764 16.8398 15.0195 15.4967 15.0195 13.8398C15.0195 12.183 13.6764 10.8398 12.0195 10.8398C10.3627 10.8398 9.01953 12.183 9.01953 13.8398C9.01953 15.4967 10.3627 16.8398 12.0195 16.8398Z"
    stroke="currentColor" stroke-width="2" stroke-linecap="round" stroke-linejoin="round" />
</svg>