<svg width="25" height="24" viewBox="0 0 25 24" fill="none" xmlns="http://www.w3.org/2000/svg">
<path d="M21.4844 17.8467C22.0215 18.1152 22.5057 18.4448 22.937 18.8354C23.3683 19.2261 23.7345 19.6615 24.0356 20.1416C24.3368 20.6217 24.5728 21.1426 24.7437 21.7041C24.9146 22.2656 25 22.8434 25 23.4375H23.4375C23.4375 22.7946 23.3154 22.1883 23.0713 21.6187C22.8271 21.049 22.4935 20.5526 22.0703 20.1294C21.6471 19.7062 21.1466 19.3685 20.5688 19.1162C19.991 18.8639 19.3848 18.7419 18.75 18.75C18.099 18.75 17.4927 18.8721 16.9312 19.1162C16.3696 19.3604 15.8732 19.694 15.4419 20.1172C15.0106 20.5404 14.6729 21.0409 14.4287 21.6187C14.1846 22.1965 14.0625 22.8027 14.0625 23.4375H12.5C12.5 22.8434 12.5814 22.2656 12.7441 21.7041C12.9069 21.1426 13.1429 20.6217 13.4521 20.1416C13.7614 19.6615 14.1317 19.2261 14.563 18.8354C14.9943 18.4448 15.4785 18.1152 16.0156 17.8467C15.4053 17.4072 14.9292 16.8579 14.5874 16.1987C14.2456 15.5396 14.0706 14.8275 14.0625 14.0625C14.0625 13.4196 14.1846 12.8133 14.4287 12.2437C14.6729 11.674 15.0065 11.1776 15.4297 10.7544C15.8529 10.3312 16.3493 9.99349 16.9189 9.74121C17.4886 9.48893 18.099 9.36686 18.75 9.375C19.3929 9.375 19.9992 9.49707 20.5688 9.74121C21.1385 9.98535 21.6349 10.319 22.0581 10.7422C22.4813 11.1654 22.819 11.6659 23.0713 12.2437C23.3236 12.8215 23.4456 13.4277 23.4375 14.0625C23.4375 14.8275 23.2666 15.5396 22.9248 16.1987C22.583 16.8579 22.1029 17.4072 21.4844 17.8467ZM18.75 17.1875C19.1813 17.1875 19.5841 17.1061 19.9585 16.9434C20.3328 16.7806 20.6665 16.5568 20.9595 16.272C21.2524 15.9871 21.4762 15.6576 21.6309 15.2832C21.7855 14.9089 21.8669 14.502 21.875 14.0625C21.875 13.6312 21.7936 13.2284 21.6309 12.854C21.4681 12.4797 21.2443 12.146 20.9595 11.853C20.6746 11.5601 20.3451 11.3363 19.9707 11.1816C19.5964 11.027 19.1895 10.9456 18.75 10.9375C18.3187 10.9375 17.9159 11.0189 17.5415 11.1816C17.1672 11.3444 16.8335 11.5682 16.5405 11.853C16.2476 12.1379 16.0238 12.4674 15.8691 12.8418C15.7145 13.2161 15.6331 13.623 15.625 14.0625C15.625 14.4938 15.7064 14.8966 15.8691 15.271C16.0319 15.6453 16.2557 15.979 16.5405 16.272C16.8254 16.5649 17.1549 16.7887 17.5293 16.9434C17.9036 17.098 18.3105 17.1794 18.75 17.1875ZM12.5 18.1641C12.2396 18.4652 12.0036 18.7785 11.792 19.104C11.5804 19.4295 11.3932 19.7795 11.2305 20.1538C10.7992 19.7062 10.2783 19.3604 9.66797 19.1162C9.05762 18.8721 8.43913 18.75 7.8125 18.75H3.125V3.125H1.5625V20.3125H11.1694C11.0555 20.5648 10.9619 20.8211 10.8887 21.0815C10.8154 21.342 10.7544 21.6064 10.7056 21.875H0V1.5625H3.125V0H7.8125C8.52865 0 9.21631 0.109863 9.87549 0.32959C10.5347 0.549316 11.1491 0.878906 11.7188 1.31836C12.2803 0.878906 12.8906 0.549316 13.5498 0.32959C14.209 0.109863 14.9007 0 15.625 0H20.3125V1.5625H23.4375V9.375C22.9655 8.91113 22.4447 8.52458 21.875 8.21533V3.125H20.3125V7.62939C20.0521 7.55615 19.7917 7.50326 19.5312 7.4707C19.2708 7.43815 19.0104 7.42188 18.75 7.42188V1.5625H15.625C15.0553 1.5625 14.502 1.66016 13.9648 1.85547C13.4277 2.05078 12.9395 2.33968 12.5 2.72217V18.1641ZM10.9375 18.0054V2.72217C10.498 2.34782 10.0098 2.06299 9.47266 1.86768C8.93555 1.67236 8.38216 1.57064 7.8125 1.5625H4.6875V17.1875H7.8125C8.35775 17.1875 8.89486 17.2567 9.42383 17.395C9.9528 17.5334 10.4574 17.7368 10.9375 18.0054Z" fill="#8D8E8E"/>
</svg>
