<svg width="19" height="21" viewBox="0 0 19 21" fill="none" xmlns="http://www.w3.org/2000/svg">
<path d="M9.50016 2.60417C11.8484 2.60417 14.1005 3.53701 15.761 5.19749C17.4215 6.85797 18.3543 9.11006 18.3543 11.4583C18.3543 13.8066 17.4215 16.0587 15.761 17.7192C14.1005 19.3797 11.8484 20.3125 9.50016 20.3125C7.15189 20.3125 4.8998 19.3797 3.23932 17.7192C1.57884 16.0587 0.645996 13.8066 0.645996 11.4583C0.645996 9.11006 1.57884 6.85797 3.23932 5.19749C4.8998 3.53701 7.15189 2.60417 9.50016 2.60417ZM9.50016 4.16667C7.56629 4.16667 5.71163 4.93489 4.34418 6.30235C2.97672 7.6698 2.2085 9.52446 2.2085 11.4583C2.2085 13.3922 2.97672 15.2469 4.34418 16.6143C5.71163 17.9818 7.56629 18.75 9.50016 18.75C11.434 18.75 13.2887 17.9818 14.6562 16.6143C16.0236 15.2469 16.7918 13.3922 16.7918 11.4583C16.7918 9.52446 16.0236 7.6698 14.6562 6.30235C13.2887 4.93489 11.434 4.16667 9.50016 4.16667ZM9.50016 5.72917C9.68895 5.72917 9.87135 5.79754 10.0136 5.92163C10.1559 6.04572 10.2484 6.21713 10.2741 6.40417L10.2814 6.51042V11.1979C10.2814 11.3959 10.2062 11.5864 10.071 11.731C9.93589 11.8757 9.75089 11.9636 9.55341 11.9771C9.35593 11.9906 9.16069 11.9286 9.00714 11.8037C8.85359 11.6788 8.75319 11.5003 8.7262 11.3042L8.71891 11.1979V6.51042C8.71891 6.30322 8.80122 6.1045 8.94774 5.95799C9.09425 5.81148 9.29296 5.72917 9.50016 5.72917ZM16.945 2.72292L17.0314 2.78542L18.2377 3.78958C18.3887 3.91661 18.4861 4.09609 18.5102 4.29197C18.5343 4.48784 18.4834 4.68559 18.3677 4.84548C18.252 5.00536 18.0801 5.11554 17.8865 5.15386C17.6929 5.19219 17.492 5.15583 17.3241 5.05208L17.2387 4.98958L16.0314 3.98542C15.8804 3.85839 15.783 3.67891 15.7589 3.48303C15.7347 3.28716 15.7856 3.08941 15.9013 2.92952C16.017 2.76964 16.1889 2.65946 16.3825 2.62114C16.5761 2.58281 16.7771 2.61917 16.945 2.72292ZM11.8439 0C12.0419 6.06694e-05 12.2324 0.0752548 12.377 0.210388C12.5217 0.345522 12.6096 0.530519 12.6231 0.728C12.6366 0.925481 12.5746 1.12072 12.4497 1.27427C12.3248 1.42782 12.1463 1.52823 11.9502 1.55521L11.8439 1.5625H7.15641C6.95847 1.56244 6.76793 1.48725 6.6233 1.35211C6.47866 1.21698 6.39071 1.03198 6.37722 0.8345C6.36373 0.637019 6.4257 0.441779 6.55061 0.28823C6.67553 0.134682 6.85407 0.0342723 7.05016 0.00729163L7.15641 0H11.8439Z" fill="#8D8E8E"/>
</svg>
