<svg width="14" height="10" viewBox="0 0 14 10" fill="none" xmlns="http://www.w3.org/2000/svg">
  <path fill-rule="evenodd" clip-rule="evenodd"
    d="M2.1 0C1.54305 0 1.0089 0.225765 0.615076 0.627628C0.221249 1.02949 0 1.57454 0 2.14286V7.85714C0 8.42546 0.221249 8.97051 0.615076 9.37237C1.0089 9.77424 1.54305 10 2.1 10H9.1C9.65695 10 10.1911 9.77424 10.5849 9.37237C10.9788 8.97051 11.2 8.42546 11.2 7.85714V6.72429L12.8051 8.36214C12.903 8.46201 13.0277 8.53001 13.1635 8.55756C13.2992 8.58511 13.44 8.57096 13.5679 8.51691C13.6957 8.46286 13.8051 8.37133 13.882 8.2539C13.9589 8.13646 14 7.99839 14 7.85714V2.14286C14 2.00161 13.9589 1.86354 13.882 1.7461C13.8051 1.62867 13.6957 1.53714 13.5679 1.48309C13.44 1.42904 13.2992 1.41489 13.1635 1.44244C13.0277 1.46999 12.903 1.53799 12.8051 1.63786L11.2 3.27571V2.14286C11.2 1.57454 10.9788 1.02949 10.5849 0.627628C10.1911 0.225765 9.65695 0 9.1 0H2.1Z"
    fill="currentColor" />
</svg>