<svg width="11" height="19" viewBox="0 0 11 19" fill="none" xmlns="http://www.w3.org/2000/svg">
<path d="M4.48454 18.875V16.6354C3.5644 16.4271 2.76996 16.0278 2.10121 15.4375C1.43246 14.8472 0.942177 14.0139 0.630371 12.9375L2.55745 12.1562C2.81787 12.9896 3.20433 13.6233 3.71683 14.0573C4.22933 14.4913 4.9019 14.7083 5.73454 14.7083C6.44634 14.7083 7.04982 14.5476 7.54496 14.226C8.04009 13.9045 8.28732 13.4056 8.28662 12.7292C8.28662 12.1215 8.09565 11.6399 7.71371 11.2844C7.33176 10.9288 6.44634 10.525 5.05745 10.0729C3.5644 9.60417 2.54009 9.0441 1.98454 8.39271C1.42898 7.74132 1.1512 6.94722 1.1512 6.01042C1.1512 4.88194 1.51579 4.00521 2.24495 3.38021C2.97412 2.75521 3.72065 2.39931 4.48454 2.3125V0.125H6.56787V2.3125C7.43593 2.45139 8.15225 2.7684 8.71683 3.26354C9.28141 3.75868 9.69357 4.36181 9.95329 5.07292L8.02621 5.90625C7.81787 5.35069 7.52273 4.93403 7.14079 4.65625C6.75884 4.37847 6.23801 4.23958 5.57829 4.23958C4.8144 4.23958 4.2328 4.40903 3.8335 4.74792C3.43419 5.08681 3.23454 5.50764 3.23454 6.01042C3.23454 6.58333 3.49495 7.03472 4.01579 7.36458C4.53662 7.69444 5.4394 8.04167 6.72412 8.40625C7.92204 8.75347 8.82933 9.30486 9.446 10.0604C10.0627 10.816 10.3706 11.6882 10.37 12.6771C10.37 13.9097 10.0054 14.8472 9.27621 15.4896C8.54704 16.1319 7.64426 16.5312 6.56787 16.6875V18.875H4.48454Z" fill="#8D8E8E"/>
</svg>
