<svg width="15" height="21" viewBox="0 0 15 21" fill="none" xmlns="http://www.w3.org/2000/svg">
  <path
    d="M7.50016 9.89583C6.80949 9.89583 6.14711 9.62147 5.65874 9.13309C5.17036 8.64472 4.896 7.98234 4.896 7.29167C4.896 6.601 5.17036 5.93862 5.65874 5.45024C6.14711 4.96187 6.80949 4.6875 7.50016 4.6875C8.19083 4.6875 8.85321 4.96187 9.34159 5.45024C9.82996 5.93862 10.1043 6.601 10.1043 7.29167C10.1043 7.63365 10.037 7.97229 9.9061 8.28824C9.77523 8.60419 9.58341 8.89127 9.34159 9.13309C9.09977 9.37491 8.81269 9.56673 8.49673 9.6976C8.18078 9.82848 7.84215 9.89583 7.50016 9.89583ZM7.50016 0C5.56629 0 3.71163 0.768227 2.34418 2.13568C0.976723 3.50313 0.208496 5.3578 0.208496 7.29167C0.208496 12.7604 7.50016 20.8333 7.50016 20.8333C7.50016 20.8333 14.7918 12.7604 14.7918 7.29167C14.7918 5.3578 14.0236 3.50313 12.6561 2.13568C11.2887 0.768227 9.43403 0 7.50016 0Z"
    fill="currentColor" />
</svg>