<svg width="29" height="20" viewBox="0 0 29 20" fill="none" xmlns="http://www.w3.org/2000/svg">
  <path
    d="M28.0545 4.85209L24.7295 2.92659C24.5036 2.81757 24.2579 2.73359 24.0001 2.67722C23.7434 2.61476 23.4761 2.58004 23.2063 2.5741H13.6359L14.7573 7.83505H23.2063C23.4359 7.83505 23.7229 7.79611 23.9987 7.73193C24.2745 7.66775 24.5405 7.57936 24.7281 7.48361L28.0531 5.55601C28.2421 5.46026 28.3359 5.33294 28.3359 5.20458C28.3359 5.07621 28.2421 4.94889 28.0545 4.85209ZM12.2359 0.469727H10.8359C10.6503 0.469727 10.4722 0.525154 10.341 0.623816C10.2097 0.722478 10.1359 0.856292 10.1359 0.995821V4.67848H5.46554C5.23314 4.67848 4.94754 4.71741 4.67174 4.78265C4.39454 4.84578 4.12994 4.93311 3.94234 5.03096L0.617337 6.95647C0.428337 7.05222 0.335938 7.18058 0.335938 7.30895C0.335938 7.43627 0.428337 7.56358 0.617337 7.66144L3.94234 9.58904C4.12994 9.68479 4.39454 9.77318 4.67174 9.83631C4.94754 9.90049 5.23314 9.93942 5.46554 9.93942H10.1359V18.883C10.1359 19.0226 10.2097 19.1564 10.341 19.255C10.4722 19.3537 10.6503 19.4091 10.8359 19.4091H12.2359C12.4216 19.4091 12.5996 19.3537 12.7309 19.255C12.8622 19.1564 12.9359 19.0226 12.9359 18.883V0.995821C12.9359 0.856292 12.8622 0.722478 12.7309 0.623816C12.5996 0.525154 12.4216 0.469727 12.2359 0.469727Z"
    fill="currentColor" />
</svg>