<?xml version="1.0" encoding="UTF-8" standalone="no"?>
<!DOCTYPE svg PUBLIC "-//W3C//DTD SVG 1.1//EN"
 "http://www.w3.org/Graphics/SVG/1.1/DTD/svg11.dtd">
<!-- Generated by graphviz version 2.47.0 (20210316.0004)
 -->
<!-- Title: dependencies Pages: 1 -->
<svg width="1511pt" height="284pt"
 viewBox="0.00 0.00 1511.00 284.00" xmlns="http://www.w3.org/2000/svg" xmlns:xlink="http://www.w3.org/1999/xlink">
<g id="graph0" class="graph" transform="scale(1 1) rotate(0) translate(4 280)">
<title>dependencies</title>
<polygon fill="white" stroke="transparent" points="-4,4 -4,-280 1507,-280 1507,4 -4,4"/>
<text text-anchor="start" x="730.51" y="-42.4" font-family="Times-12" font-weight="bold" font-size="14.00">Legend</text>
<polygon fill="#ffffb3" stroke="transparent" points="517.5,-10 517.5,-30 537.5,-30 537.5,-10 517.5,-10"/>
<text text-anchor="start" x="541.13" y="-15.4" font-family="Times-12" font-size="14.00"> &#160;Declarations</text>
<polygon fill="#8dd3c7" stroke="transparent" points="630.5,-10 630.5,-30 650.5,-30 650.5,-10 630.5,-10"/>
<text text-anchor="start" x="654.23" y="-15.4" font-family="Times-12" font-size="14.00"> &#160;Module</text>
<polygon fill="#80b1d3" stroke="transparent" points="716.5,-10 716.5,-30 736.5,-30 736.5,-10 716.5,-10"/>
<text text-anchor="start" x="740.28" y="-15.4" font-family="Times-12" font-size="14.00"> &#160;Bootstrap</text>
<polygon fill="#fdb462" stroke="transparent" points="813.5,-10 813.5,-30 833.5,-30 833.5,-10 813.5,-10"/>
<text text-anchor="start" x="837.17" y="-15.4" font-family="Times-12" font-size="14.00"> &#160;Providers</text>
<polygon fill="#fb8072" stroke="transparent" points="909.5,-10 909.5,-30 929.5,-30 929.5,-10 909.5,-10"/>
<text text-anchor="start" x="933.23" y="-15.4" font-family="Times-12" font-size="14.00"> &#160;Exports</text>
<g id="clust1" class="cluster">
<title>cluster_AppModule</title>
<polygon fill="none" stroke="black" stroke-dasharray="1,5" points="8,-70 8,-268 1495,-268 1495,-70 8,-70"/>
</g>
<g id="clust2" class="cluster">
<title>cluster_AppModule_declarations</title>
<polygon fill="none" stroke="black" points="760,-78 760,-130 1487,-130 1487,-78 760,-78"/>
</g>
<g id="clust10" class="cluster">
<title>cluster_AppModule_bootstrap</title>
<polygon fill="none" stroke="black" points="629,-208 629,-260 753,-260 753,-208 629,-208"/>
</g>
<g id="clust8" class="cluster">
<title>cluster_AppModule_imports</title>
<polygon fill="none" stroke="black" points="16,-78 16,-130 752,-130 752,-78 16,-78"/>
</g>
<!-- AppComponent -->
<g id="node1" class="node">
<title>AppComponent</title>
<polygon fill="#ffffb3" stroke="black" points="1478.94,-122 1373.06,-122 1373.06,-86 1478.94,-86 1478.94,-122"/>
<text text-anchor="middle" x="1426" y="-99.8" font-family="Times,serif" font-size="14.00">AppComponent</text>
</g>
<!-- AppModule -->
<g id="node6" class="node">
<title>AppModule</title>
<polygon fill="#8dd3c7" stroke="black" points="732.66,-187 729.66,-191 708.66,-191 705.66,-187 649.34,-187 649.34,-151 732.66,-151 732.66,-187"/>
<text text-anchor="middle" x="691" y="-164.8" font-family="Times,serif" font-size="14.00">AppModule</text>
</g>
<!-- AppComponent&#45;&gt;AppModule -->
<g id="edge1" class="edge">
<title>AppComponent&#45;&gt;AppModule</title>
<path fill="none" stroke="black" d="M1426,-122.25C1426,-145.02 1426,-181 1426,-181 1426,-181 742.89,-181 742.89,-181"/>
<polygon fill="black" stroke="black" points="742.89,-177.5 732.89,-181 742.89,-184.5 742.89,-177.5"/>
</g>
<!-- InputComponent -->
<g id="node2" class="node">
<title>InputComponent</title>
<polygon fill="#ffffb3" stroke="black" points="1355.38,-122 1244.62,-122 1244.62,-86 1355.38,-86 1355.38,-122"/>
<text text-anchor="middle" x="1300" y="-99.8" font-family="Times,serif" font-size="14.00">InputComponent</text>
</g>
<!-- InputComponent&#45;&gt;AppModule -->
<g id="edge2" class="edge">
<title>InputComponent&#45;&gt;AppModule</title>
<path fill="none" stroke="black" d="M1300,-122.28C1300,-143.32 1300,-175 1300,-175 1300,-175 742.86,-175 742.86,-175"/>
<polygon fill="black" stroke="black" points="742.86,-171.5 732.86,-175 742.86,-178.5 742.86,-171.5"/>
</g>
<!-- InputContainerComponent -->
<g id="node3" class="node">
<title>InputContainerComponent</title>
<polygon fill="#ffffb3" stroke="black" points="1227.09,-122 1060.91,-122 1060.91,-86 1227.09,-86 1227.09,-122"/>
<text text-anchor="middle" x="1144" y="-99.8" font-family="Times,serif" font-size="14.00">InputContainerComponent</text>
</g>
<!-- InputContainerComponent&#45;&gt;AppModule -->
<g id="edge3" class="edge">
<title>InputContainerComponent&#45;&gt;AppModule</title>
<path fill="none" stroke="black" d="M1144,-122.11C1144,-141.34 1144,-169 1144,-169 1144,-169 742.81,-169 742.81,-169"/>
<polygon fill="black" stroke="black" points="742.81,-165.5 732.81,-169 742.81,-172.5 742.81,-165.5"/>
</g>
<!-- ErrorComponent -->
<g id="node4" class="node">
<title>ErrorComponent</title>
<polygon fill="#ffffb3" stroke="black" points="1043.37,-122 932.63,-122 932.63,-86 1043.37,-86 1043.37,-122"/>
<text text-anchor="middle" x="988" y="-99.8" font-family="Times,serif" font-size="14.00">ErrorComponent</text>
</g>
<!-- ErrorComponent&#45;&gt;AppModule -->
<g id="edge4" class="edge">
<title>ErrorComponent&#45;&gt;AppModule</title>
<path fill="none" stroke="black" d="M988,-122.02C988,-139.37 988,-163 988,-163 988,-163 742.92,-163 742.92,-163"/>
<polygon fill="black" stroke="black" points="742.92,-159.5 732.92,-163 742.92,-166.5 742.92,-159.5"/>
</g>
<!-- InputGroupComponent -->
<g id="node5" class="node">
<title>InputGroupComponent</title>
<polygon fill="#ffffb3" stroke="black" points="914.15,-122 767.85,-122 767.85,-86 914.15,-86 914.15,-122"/>
<text text-anchor="middle" x="841" y="-99.8" font-family="Times,serif" font-size="14.00">InputGroupComponent</text>
</g>
<!-- InputGroupComponent&#45;&gt;AppModule -->
<g id="edge5" class="edge">
<title>InputGroupComponent&#45;&gt;AppModule</title>
<path fill="none" stroke="black" d="M841,-122.24C841,-137.57 841,-157 841,-157 841,-157 742.78,-157 742.78,-157"/>
<polygon fill="black" stroke="black" points="742.78,-153.5 732.78,-157 742.78,-160.5 742.78,-153.5"/>
</g>
<!-- AppComponent  -->
<g id="node13" class="node">
<title>AppComponent </title>
<polygon fill="#80b1d3" stroke="black" points="745.44,-252 636.56,-252 636.56,-216 745.44,-216 745.44,-252"/>
<text text-anchor="middle" x="691" y="-229.8" font-family="Times,serif" font-size="14.00">AppComponent </text>
</g>
<!-- AppModule&#45;&gt;AppComponent  -->
<g id="edge12" class="edge">
<title>AppModule&#45;&gt;AppComponent </title>
<path fill="none" stroke="black" stroke-dasharray="1,5" d="M691,-187.11C691,-187.11 691,-205.99 691,-205.99"/>
<polygon fill="black" stroke="black" points="687.5,-205.99 691,-215.99 694.5,-205.99 687.5,-205.99"/>
</g>
<!-- BrowserModule -->
<g id="node7" class="node">
<title>BrowserModule</title>
<polygon fill="#8dd3c7" stroke="black" points="744.47,-122 741.47,-126 720.47,-126 717.47,-122 637.53,-122 637.53,-86 744.47,-86 744.47,-122"/>
<text text-anchor="middle" x="691" y="-99.8" font-family="Times,serif" font-size="14.00">BrowserModule</text>
</g>
<!-- BrowserModule&#45;&gt;AppModule -->
<g id="edge6" class="edge">
<title>BrowserModule&#45;&gt;AppModule</title>
<path fill="none" stroke="black" d="M691,-122.11C691,-122.11 691,-140.99 691,-140.99"/>
<polygon fill="black" stroke="black" points="687.5,-140.99 691,-150.99 694.5,-140.99 687.5,-140.99"/>
</g>
<!-- AppRoutingModule -->
<g id="node8" class="node">
<title>AppRoutingModule</title>
<polygon fill="#8dd3c7" stroke="black" points="619.27,-122 616.27,-126 595.27,-126 592.27,-122 490.73,-122 490.73,-86 619.27,-86 619.27,-122"/>
<text text-anchor="middle" x="555" y="-99.8" font-family="Times,serif" font-size="14.00">AppRoutingModule</text>
</g>
<!-- AppRoutingModule&#45;&gt;AppModule -->
<g id="edge7" class="edge">
<title>AppRoutingModule&#45;&gt;AppModule</title>
<path fill="none" stroke="black" d="M555,-122.24C555,-137.57 555,-157 555,-157 555,-157 639.09,-157 639.09,-157"/>
<polygon fill="black" stroke="black" points="639.09,-160.5 649.09,-157 639.09,-153.5 639.09,-160.5"/>
</g>
<!-- SharedModule -->
<g id="node9" class="node">
<title>SharedModule</title>
<polygon fill="#8dd3c7" stroke="black" points="472.42,-122 469.42,-126 448.42,-126 445.42,-122 373.58,-122 373.58,-86 472.42,-86 472.42,-122"/>
<text text-anchor="middle" x="423" y="-99.8" font-family="Times,serif" font-size="14.00">SharedModule</text>
</g>
<!-- SharedModule&#45;&gt;AppModule -->
<g id="edge8" class="edge">
<title>SharedModule&#45;&gt;AppModule</title>
<path fill="none" stroke="black" d="M423,-122.02C423,-139.37 423,-163 423,-163 423,-163 639.12,-163 639.12,-163"/>
<polygon fill="black" stroke="black" points="639.13,-166.5 649.12,-163 639.12,-159.5 639.13,-166.5"/>
</g>
<!-- AuthModule -->
<g id="node10" class="node">
<title>AuthModule</title>
<polygon fill="#8dd3c7" stroke="black" points="355.55,-122 352.55,-126 331.55,-126 328.55,-122 268.45,-122 268.45,-86 355.55,-86 355.55,-122"/>
<text text-anchor="middle" x="312" y="-99.8" font-family="Times,serif" font-size="14.00">AuthModule</text>
</g>
<!-- AuthModule&#45;&gt;AppModule -->
<g id="edge9" class="edge">
<title>AuthModule&#45;&gt;AppModule</title>
<path fill="none" stroke="black" d="M312,-122.11C312,-141.34 312,-169 312,-169 312,-169 638.99,-169 638.99,-169"/>
<polygon fill="black" stroke="black" points="638.99,-172.5 648.99,-169 638.99,-165.5 638.99,-172.5"/>
</g>
<!-- MySpaceModule -->
<g id="node11" class="node">
<title>MySpaceModule</title>
<polygon fill="#8dd3c7" stroke="black" points="250.42,-122 247.42,-126 226.42,-126 223.42,-122 137.58,-122 137.58,-86 250.42,-86 250.42,-122"/>
<text text-anchor="middle" x="194" y="-99.8" font-family="Times,serif" font-size="14.00">MySpaceModule</text>
</g>
<!-- MySpaceModule&#45;&gt;AppModule -->
<g id="edge10" class="edge">
<title>MySpaceModule&#45;&gt;AppModule</title>
<path fill="none" stroke="black" d="M194,-122.28C194,-143.32 194,-175 194,-175 194,-175 639.05,-175 639.05,-175"/>
<polygon fill="black" stroke="black" points="639.05,-178.5 649.05,-175 639.05,-171.5 639.05,-178.5"/>
</g>
<!-- PublicModule -->
<g id="node12" class="node">
<title>PublicModule</title>
<polygon fill="#8dd3c7" stroke="black" points="119.83,-122 116.83,-126 95.83,-126 92.83,-122 24.17,-122 24.17,-86 119.83,-86 119.83,-122"/>
<text text-anchor="middle" x="72" y="-99.8" font-family="Times,serif" font-size="14.00">PublicModule</text>
</g>
<!-- PublicModule&#45;&gt;AppModule -->
<g id="edge11" class="edge">
<title>PublicModule&#45;&gt;AppModule</title>
<path fill="none" stroke="black" d="M72,-122.25C72,-145.02 72,-181 72,-181 72,-181 638.94,-181 638.94,-181"/>
<polygon fill="black" stroke="black" points="638.94,-184.5 648.94,-181 638.94,-177.5 638.94,-184.5"/>
</g>
</g>
</svg>
