<?xml version="1.0" encoding="UTF-8" standalone="no"?>
<!DOCTYPE svg PUBLIC "-//W3C//DTD SVG 1.1//EN"
 "http://www.w3.org/Graphics/SVG/1.1/DTD/svg11.dtd">
<!-- Generated by graphviz version 2.47.0 (20210316.0004)
 -->
<!-- Title: dependencies Pages: 1 -->
<svg width="1742pt" height="284pt"
 viewBox="0.00 0.00 1742.00 284.00" xmlns="http://www.w3.org/2000/svg" xmlns:xlink="http://www.w3.org/1999/xlink">
<g id="graph0" class="graph" transform="scale(1 1) rotate(0) translate(4 280)">
<title>dependencies</title>
<polygon fill="white" stroke="transparent" points="-4,4 -4,-280 1738,-280 1738,4 -4,4"/>
<text text-anchor="start" x="846.01" y="-42.4" font-family="Times-12" font-weight="bold" font-size="14.00">Legend</text>
<polygon fill="#ffffb3" stroke="transparent" points="633,-10 633,-30 653,-30 653,-10 633,-10"/>
<text text-anchor="start" x="656.63" y="-15.4" font-family="Times-12" font-size="14.00"> &#160;Declarations</text>
<polygon fill="#8dd3c7" stroke="transparent" points="746,-10 746,-30 766,-30 766,-10 746,-10"/>
<text text-anchor="start" x="769.73" y="-15.4" font-family="Times-12" font-size="14.00"> &#160;Module</text>
<polygon fill="#80b1d3" stroke="transparent" points="832,-10 832,-30 852,-30 852,-10 832,-10"/>
<text text-anchor="start" x="855.78" y="-15.4" font-family="Times-12" font-size="14.00"> &#160;Bootstrap</text>
<polygon fill="#fdb462" stroke="transparent" points="929,-10 929,-30 949,-30 949,-10 929,-10"/>
<text text-anchor="start" x="952.67" y="-15.4" font-family="Times-12" font-size="14.00"> &#160;Providers</text>
<polygon fill="#fb8072" stroke="transparent" points="1025,-10 1025,-30 1045,-30 1045,-10 1025,-10"/>
<text text-anchor="start" x="1048.73" y="-15.4" font-family="Times-12" font-size="14.00"> &#160;Exports</text>
<g id="clust1" class="cluster">
<title>cluster_AppModule</title>
<polygon fill="none" stroke="black" stroke-dasharray="1,5" points="8,-70 8,-268 1726,-268 1726,-70 8,-70"/>
</g>
<g id="clust2" class="cluster">
<title>cluster_AppModule_declarations</title>
<polygon fill="none" stroke="black" points="760,-78 760,-130 1718,-130 1718,-78 760,-78"/>
</g>
<g id="clust10" class="cluster">
<title>cluster_AppModule_imports</title>
<polygon fill="none" stroke="black" points="16,-78 16,-130 752,-130 752,-78 16,-78"/>
</g>
<g id="clust12" class="cluster">
<title>cluster_AppModule_bootstrap</title>
<polygon fill="none" stroke="black" points="779,-208 779,-260 903,-260 903,-208 779,-208"/>
</g>
<!-- AppComponent -->
<g id="node1" class="node">
<title>AppComponent</title>
<polygon fill="#ffffb3" stroke="black" points="1709.94,-122 1604.06,-122 1604.06,-86 1709.94,-86 1709.94,-122"/>
<text text-anchor="middle" x="1657" y="-99.8" font-family="Times,serif" font-size="14.00">AppComponent</text>
</g>
<!-- AppModule -->
<g id="node8" class="node">
<title>AppModule</title>
<polygon fill="#8dd3c7" stroke="black" points="882.66,-187 879.66,-191 858.66,-191 855.66,-187 799.34,-187 799.34,-151 882.66,-151 882.66,-187"/>
<text text-anchor="middle" x="841" y="-164.8" font-family="Times,serif" font-size="14.00">AppModule</text>
</g>
<!-- AppComponent&#45;&gt;AppModule -->
<g id="edge1" class="edge">
<title>AppComponent&#45;&gt;AppModule</title>
<path fill="none" stroke="black" d="M1657,-122.09C1657,-145.13 1657,-182 1657,-182 1657,-182 892.87,-182 892.87,-182"/>
<polygon fill="black" stroke="black" points="892.87,-178.5 882.87,-182 892.87,-185.5 892.87,-178.5"/>
</g>
<!-- SafePipe -->
<g id="node2" class="node">
<title>SafePipe</title>
<polygon fill="#ffffb3" stroke="black" points="1585.76,-122 1520.24,-122 1520.24,-86 1585.76,-86 1585.76,-122"/>
<text text-anchor="middle" x="1553" y="-99.8" font-family="Times,serif" font-size="14.00">SafePipe</text>
</g>
<!-- SafePipe&#45;&gt;AppModule -->
<g id="edge2" class="edge">
<title>SafePipe&#45;&gt;AppModule</title>
<path fill="none" stroke="black" d="M1553,-122.04C1553,-143.66 1553,-177 1553,-177 1553,-177 892.88,-177 892.88,-177"/>
<polygon fill="black" stroke="black" points="892.88,-173.5 882.88,-177 892.88,-180.5 892.88,-173.5"/>
</g>
<!-- ScrollHideDirective -->
<g id="node3" class="node">
<title>ScrollHideDirective</title>
<polygon fill="#ffffb3" stroke="black" points="1502.23,-122 1373.77,-122 1373.77,-86 1502.23,-86 1502.23,-122"/>
<text text-anchor="middle" x="1438" y="-99.8" font-family="Times,serif" font-size="14.00">ScrollHideDirective</text>
</g>
<!-- ScrollHideDirective&#45;&gt;AppModule -->
<g id="edge3" class="edge">
<title>ScrollHideDirective&#45;&gt;AppModule</title>
<path fill="none" stroke="black" d="M1438,-122.22C1438,-142.37 1438,-172 1438,-172 1438,-172 892.98,-172 892.98,-172"/>
<polygon fill="black" stroke="black" points="892.98,-168.5 882.98,-172 892.98,-175.5 892.98,-168.5"/>
</g>
<!-- InputComponent -->
<g id="node4" class="node">
<title>InputComponent</title>
<polygon fill="#ffffb3" stroke="black" points="1355.38,-122 1244.62,-122 1244.62,-86 1355.38,-86 1355.38,-122"/>
<text text-anchor="middle" x="1300" y="-99.8" font-family="Times,serif" font-size="14.00">InputComponent</text>
</g>
<!-- InputComponent&#45;&gt;AppModule -->
<g id="edge4" class="edge">
<title>InputComponent&#45;&gt;AppModule</title>
<path fill="none" stroke="black" d="M1300,-122.22C1300,-140.83 1300,-167 1300,-167 1300,-167 892.95,-167 892.95,-167"/>
<polygon fill="black" stroke="black" points="892.95,-163.5 882.95,-167 892.95,-170.5 892.95,-163.5"/>
</g>
<!-- InputContainerComponent -->
<g id="node5" class="node">
<title>InputContainerComponent</title>
<polygon fill="#ffffb3" stroke="black" points="1227.09,-122 1060.91,-122 1060.91,-86 1227.09,-86 1227.09,-122"/>
<text text-anchor="middle" x="1144" y="-99.8" font-family="Times,serif" font-size="14.00">InputContainerComponent</text>
</g>
<!-- InputContainerComponent&#45;&gt;AppModule -->
<g id="edge5" class="edge">
<title>InputContainerComponent&#45;&gt;AppModule</title>
<path fill="none" stroke="black" d="M1144,-122.03C1144,-139.06 1144,-162 1144,-162 1144,-162 892.81,-162 892.81,-162"/>
<polygon fill="black" stroke="black" points="892.81,-158.5 882.81,-162 892.81,-165.5 892.81,-158.5"/>
</g>
<!-- ErrorComponent -->
<g id="node6" class="node">
<title>ErrorComponent</title>
<polygon fill="#ffffb3" stroke="black" points="1043.37,-122 932.63,-122 932.63,-86 1043.37,-86 1043.37,-122"/>
<text text-anchor="middle" x="988" y="-99.8" font-family="Times,serif" font-size="14.00">ErrorComponent</text>
</g>
<!-- ErrorComponent&#45;&gt;AppModule -->
<g id="edge6" class="edge">
<title>ErrorComponent&#45;&gt;AppModule</title>
<path fill="none" stroke="black" d="M988,-122.24C988,-137.57 988,-157 988,-157 988,-157 892.73,-157 892.73,-157"/>
<polygon fill="black" stroke="black" points="892.73,-153.5 882.73,-157 892.73,-160.5 892.73,-153.5"/>
</g>
<!-- InputGroupComponent -->
<g id="node7" class="node">
<title>InputGroupComponent</title>
<polygon fill="#ffffb3" stroke="black" points="914.15,-122 767.85,-122 767.85,-86 914.15,-86 914.15,-122"/>
<text text-anchor="middle" x="841" y="-99.8" font-family="Times,serif" font-size="14.00">InputGroupComponent</text>
</g>
<!-- InputGroupComponent&#45;&gt;AppModule -->
<g id="edge7" class="edge">
<title>InputGroupComponent&#45;&gt;AppModule</title>
<path fill="none" stroke="black" d="M841,-122.11C841,-122.11 841,-140.99 841,-140.99"/>
<polygon fill="black" stroke="black" points="837.5,-140.99 841,-150.99 844.5,-140.99 837.5,-140.99"/>
</g>
<!-- AppComponent  -->
<g id="node15" class="node">
<title>AppComponent </title>
<polygon fill="#80b1d3" stroke="black" points="895.44,-252 786.56,-252 786.56,-216 895.44,-216 895.44,-252"/>
<text text-anchor="middle" x="841" y="-229.8" font-family="Times,serif" font-size="14.00">AppComponent </text>
</g>
<!-- AppModule&#45;&gt;AppComponent  -->
<g id="edge14" class="edge">
<title>AppModule&#45;&gt;AppComponent </title>
<path fill="none" stroke="black" stroke-dasharray="1,5" d="M841,-187.11C841,-187.11 841,-205.99 841,-205.99"/>
<polygon fill="black" stroke="black" points="837.5,-205.99 841,-215.99 844.5,-205.99 837.5,-205.99"/>
</g>
<!-- BrowserModule -->
<g id="node9" class="node">
<title>BrowserModule</title>
<polygon fill="#8dd3c7" stroke="black" points="744.47,-122 741.47,-126 720.47,-126 717.47,-122 637.53,-122 637.53,-86 744.47,-86 744.47,-122"/>
<text text-anchor="middle" x="691" y="-99.8" font-family="Times,serif" font-size="14.00">BrowserModule</text>
</g>
<!-- BrowserModule&#45;&gt;AppModule -->
<g id="edge8" class="edge">
<title>BrowserModule&#45;&gt;AppModule</title>
<path fill="none" stroke="black" d="M691,-122.24C691,-137.57 691,-157 691,-157 691,-157 789.22,-157 789.22,-157"/>
<polygon fill="black" stroke="black" points="789.22,-160.5 799.22,-157 789.22,-153.5 789.22,-160.5"/>
</g>
<!-- AppRoutingModule -->
<g id="node10" class="node">
<title>AppRoutingModule</title>
<polygon fill="#8dd3c7" stroke="black" points="619.27,-122 616.27,-126 595.27,-126 592.27,-122 490.73,-122 490.73,-86 619.27,-86 619.27,-122"/>
<text text-anchor="middle" x="555" y="-99.8" font-family="Times,serif" font-size="14.00">AppRoutingModule</text>
</g>
<!-- AppRoutingModule&#45;&gt;AppModule -->
<g id="edge9" class="edge">
<title>AppRoutingModule&#45;&gt;AppModule</title>
<path fill="none" stroke="black" d="M555,-122.03C555,-139.06 555,-162 555,-162 555,-162 789.11,-162 789.11,-162"/>
<polygon fill="black" stroke="black" points="789.11,-165.5 799.11,-162 789.11,-158.5 789.11,-165.5"/>
</g>
<!-- SharedModule -->
<g id="node11" class="node">
<title>SharedModule</title>
<polygon fill="#8dd3c7" stroke="black" points="472.42,-122 469.42,-126 448.42,-126 445.42,-122 373.58,-122 373.58,-86 472.42,-86 472.42,-122"/>
<text text-anchor="middle" x="423" y="-99.8" font-family="Times,serif" font-size="14.00">SharedModule</text>
</g>
<!-- SharedModule&#45;&gt;AppModule -->
<g id="edge10" class="edge">
<title>SharedModule&#45;&gt;AppModule</title>
<path fill="none" stroke="black" d="M423,-122.22C423,-140.83 423,-167 423,-167 423,-167 789.01,-167 789.01,-167"/>
<polygon fill="black" stroke="black" points="789.01,-170.5 799.01,-167 789.01,-163.5 789.01,-170.5"/>
</g>
<!-- AuthModule -->
<g id="node12" class="node">
<title>AuthModule</title>
<polygon fill="#8dd3c7" stroke="black" points="355.55,-122 352.55,-126 331.55,-126 328.55,-122 268.45,-122 268.45,-86 355.55,-86 355.55,-122"/>
<text text-anchor="middle" x="312" y="-99.8" font-family="Times,serif" font-size="14.00">AuthModule</text>
</g>
<!-- AuthModule&#45;&gt;AppModule -->
<g id="edge11" class="edge">
<title>AuthModule&#45;&gt;AppModule</title>
<path fill="none" stroke="black" d="M312,-122.22C312,-142.37 312,-172 312,-172 312,-172 789.05,-172 789.05,-172"/>
<polygon fill="black" stroke="black" points="789.05,-175.5 799.05,-172 789.05,-168.5 789.05,-175.5"/>
</g>
<!-- MySpaceModule -->
<g id="node13" class="node">
<title>MySpaceModule</title>
<polygon fill="#8dd3c7" stroke="black" points="250.42,-122 247.42,-126 226.42,-126 223.42,-122 137.58,-122 137.58,-86 250.42,-86 250.42,-122"/>
<text text-anchor="middle" x="194" y="-99.8" font-family="Times,serif" font-size="14.00">MySpaceModule</text>
</g>
<!-- MySpaceModule&#45;&gt;AppModule -->
<g id="edge12" class="edge">
<title>MySpaceModule&#45;&gt;AppModule</title>
<path fill="none" stroke="black" d="M194,-122.04C194,-143.66 194,-177 194,-177 194,-177 789.05,-177 789.05,-177"/>
<polygon fill="black" stroke="black" points="789.05,-180.5 799.05,-177 789.05,-173.5 789.05,-180.5"/>
</g>
<!-- PublicModule -->
<g id="node14" class="node">
<title>PublicModule</title>
<polygon fill="#8dd3c7" stroke="black" points="119.83,-122 116.83,-126 95.83,-126 92.83,-122 24.17,-122 24.17,-86 119.83,-86 119.83,-122"/>
<text text-anchor="middle" x="72" y="-99.8" font-family="Times,serif" font-size="14.00">PublicModule</text>
</g>
<!-- PublicModule&#45;&gt;AppModule -->
<g id="edge13" class="edge">
<title>PublicModule&#45;&gt;AppModule</title>
<path fill="none" stroke="black" d="M72,-122.09C72,-145.13 72,-182 72,-182 72,-182 789.11,-182 789.11,-182"/>
<polygon fill="black" stroke="black" points="789.11,-185.5 799.11,-182 789.11,-178.5 789.11,-185.5"/>
</g>
</g>
</svg>
