<?xml version="1.0" encoding="UTF-8" standalone="no"?>
<!DOCTYPE svg PUBLIC "-//W3C//DTD SVG 1.1//EN"
 "http://www.w3.org/Graphics/SVG/1.1/DTD/svg11.dtd">
<!-- Generated by graphviz version 2.47.0 (20210316.0004)
 -->
<!-- Title: dependencies Pages: 1 -->
<svg width="1232pt" height="284pt"
 viewBox="0.00 0.00 1232.00 284.00" xmlns="http://www.w3.org/2000/svg" xmlns:xlink="http://www.w3.org/1999/xlink">
<g id="graph0" class="graph" transform="scale(1 1) rotate(0) translate(4 280)">
<title>dependencies</title>
<polygon fill="white" stroke="transparent" points="-4,4 -4,-280 1228,-280 1228,4 -4,4"/>
<text text-anchor="start" x="591.01" y="-42.4" font-family="Times-12" font-weight="bold" font-size="14.00">Legend</text>
<polygon fill="#ffffb3" stroke="transparent" points="378,-10 378,-30 398,-30 398,-10 378,-10"/>
<text text-anchor="start" x="401.63" y="-15.4" font-family="Times-12" font-size="14.00"> &#160;Declarations</text>
<polygon fill="#8dd3c7" stroke="transparent" points="491,-10 491,-30 511,-30 511,-10 491,-10"/>
<text text-anchor="start" x="514.73" y="-15.4" font-family="Times-12" font-size="14.00"> &#160;Module</text>
<polygon fill="#80b1d3" stroke="transparent" points="577,-10 577,-30 597,-30 597,-10 577,-10"/>
<text text-anchor="start" x="600.78" y="-15.4" font-family="Times-12" font-size="14.00"> &#160;Bootstrap</text>
<polygon fill="#fdb462" stroke="transparent" points="674,-10 674,-30 694,-30 694,-10 674,-10"/>
<text text-anchor="start" x="697.67" y="-15.4" font-family="Times-12" font-size="14.00"> &#160;Providers</text>
<polygon fill="#fb8072" stroke="transparent" points="770,-10 770,-30 790,-30 790,-10 770,-10"/>
<text text-anchor="start" x="793.73" y="-15.4" font-family="Times-12" font-size="14.00"> &#160;Exports</text>
<g id="clust1" class="cluster">
<title>cluster_AppModule</title>
<polygon fill="none" stroke="black" stroke-dasharray="1,5" points="8,-70 8,-268 1216,-268 1216,-70 8,-70"/>
</g>
<g id="clust2" class="cluster">
<title>cluster_AppModule_declarations</title>
<polygon fill="none" stroke="black" points="646,-78 646,-130 1208,-130 1208,-78 646,-78"/>
</g>
<g id="clust7" class="cluster">
<title>cluster_AppModule_imports</title>
<polygon fill="none" stroke="black" points="16,-78 16,-130 638,-130 638,-78 16,-78"/>
</g>
<g id="clust9" class="cluster">
<title>cluster_AppModule_bootstrap</title>
<polygon fill="none" stroke="black" points="515,-208 515,-260 639,-260 639,-208 515,-208"/>
</g>
<!-- AppComponent -->
<g id="node1" class="node">
<title>AppComponent</title>
<polygon fill="#ffffb3" stroke="black" points="1199.94,-122 1094.06,-122 1094.06,-86 1199.94,-86 1199.94,-122"/>
<text text-anchor="middle" x="1147" y="-99.8" font-family="Times,serif" font-size="14.00">AppComponent</text>
</g>
<!-- AppModule -->
<g id="node5" class="node">
<title>AppModule</title>
<polygon fill="#8dd3c7" stroke="black" points="618.66,-187 615.66,-191 594.66,-191 591.66,-187 535.34,-187 535.34,-151 618.66,-151 618.66,-187"/>
<text text-anchor="middle" x="577" y="-164.8" font-family="Times,serif" font-size="14.00">AppModule</text>
</g>
<!-- AppComponent&#45;&gt;AppModule -->
<g id="edge1" class="edge">
<title>AppComponent&#45;&gt;AppModule</title>
<path fill="none" stroke="black" d="M1147,-122.01C1147,-144.49 1147,-180 1147,-180 1147,-180 628.91,-180 628.91,-180"/>
<polygon fill="black" stroke="black" points="628.91,-176.5 618.91,-180 628.91,-183.5 628.91,-176.5"/>
</g>
<!-- InputComponent -->
<g id="node2" class="node">
<title>InputComponent</title>
<polygon fill="#ffffb3" stroke="black" points="1076.38,-122 965.62,-122 965.62,-86 1076.38,-86 1076.38,-122"/>
<text text-anchor="middle" x="1021" y="-99.8" font-family="Times,serif" font-size="14.00">InputComponent</text>
</g>
<!-- InputComponent&#45;&gt;AppModule -->
<g id="edge2" class="edge">
<title>InputComponent&#45;&gt;AppModule</title>
<path fill="none" stroke="black" d="M1021,-122.13C1021,-142.57 1021,-173 1021,-173 1021,-173 628.77,-173 628.77,-173"/>
<polygon fill="black" stroke="black" points="628.77,-169.5 618.77,-173 628.77,-176.5 628.77,-169.5"/>
</g>
<!-- InputContainerComponent -->
<g id="node3" class="node">
<title>InputContainerComponent</title>
<polygon fill="#ffffb3" stroke="black" points="948.09,-122 781.91,-122 781.91,-86 948.09,-86 948.09,-122"/>
<text text-anchor="middle" x="865" y="-99.8" font-family="Times,serif" font-size="14.00">InputContainerComponent</text>
</g>
<!-- InputContainerComponent&#45;&gt;AppModule -->
<g id="edge3" class="edge">
<title>InputContainerComponent&#45;&gt;AppModule</title>
<path fill="none" stroke="black" d="M865,-122.27C865,-140.56 865,-166 865,-166 865,-166 628.88,-166 628.88,-166"/>
<polygon fill="black" stroke="black" points="628.88,-162.5 618.88,-166 628.88,-169.5 628.88,-162.5"/>
</g>
<!-- ErrorComponent -->
<g id="node4" class="node">
<title>ErrorComponent</title>
<polygon fill="#ffffb3" stroke="black" points="764.37,-122 653.63,-122 653.63,-86 764.37,-86 764.37,-122"/>
<text text-anchor="middle" x="709" y="-99.8" font-family="Times,serif" font-size="14.00">ErrorComponent</text>
</g>
<!-- ErrorComponent&#45;&gt;AppModule -->
<g id="edge4" class="edge">
<title>ErrorComponent&#45;&gt;AppModule</title>
<path fill="none" stroke="black" d="M709,-122.01C709,-138.05 709,-159 709,-159 709,-159 628.77,-159 628.77,-159"/>
<polygon fill="black" stroke="black" points="628.77,-155.5 618.77,-159 628.77,-162.5 628.77,-155.5"/>
</g>
<!-- AppComponent  -->
<g id="node11" class="node">
<title>AppComponent </title>
<polygon fill="#80b1d3" stroke="black" points="631.44,-252 522.56,-252 522.56,-216 631.44,-216 631.44,-252"/>
<text text-anchor="middle" x="577" y="-229.8" font-family="Times,serif" font-size="14.00">AppComponent </text>
</g>
<!-- AppModule&#45;&gt;AppComponent  -->
<g id="edge10" class="edge">
<title>AppModule&#45;&gt;AppComponent </title>
<path fill="none" stroke="black" stroke-dasharray="1,5" d="M577,-187.11C577,-187.11 577,-205.99 577,-205.99"/>
<polygon fill="black" stroke="black" points="573.5,-205.99 577,-215.99 580.5,-205.99 573.5,-205.99"/>
</g>
<!-- BrowserModule -->
<g id="node6" class="node">
<title>BrowserModule</title>
<polygon fill="#8dd3c7" stroke="black" points="630.47,-122 627.47,-126 606.47,-126 603.47,-122 523.53,-122 523.53,-86 630.47,-86 630.47,-122"/>
<text text-anchor="middle" x="577" y="-99.8" font-family="Times,serif" font-size="14.00">BrowserModule</text>
</g>
<!-- BrowserModule&#45;&gt;AppModule -->
<g id="edge5" class="edge">
<title>BrowserModule&#45;&gt;AppModule</title>
<path fill="none" stroke="black" d="M577,-122.11C577,-122.11 577,-140.99 577,-140.99"/>
<polygon fill="black" stroke="black" points="573.5,-140.99 577,-150.99 580.5,-140.99 573.5,-140.99"/>
</g>
<!-- AppRoutingModule -->
<g id="node7" class="node">
<title>AppRoutingModule</title>
<polygon fill="#8dd3c7" stroke="black" points="505.27,-122 502.27,-126 481.27,-126 478.27,-122 376.73,-122 376.73,-86 505.27,-86 505.27,-122"/>
<text text-anchor="middle" x="441" y="-99.8" font-family="Times,serif" font-size="14.00">AppRoutingModule</text>
</g>
<!-- AppRoutingModule&#45;&gt;AppModule -->
<g id="edge6" class="edge">
<title>AppRoutingModule&#45;&gt;AppModule</title>
<path fill="none" stroke="black" d="M441,-122.01C441,-138.05 441,-159 441,-159 441,-159 525.09,-159 525.09,-159"/>
<polygon fill="black" stroke="black" points="525.09,-162.5 535.09,-159 525.09,-155.5 525.09,-162.5"/>
</g>
<!-- SharedModule -->
<g id="node8" class="node">
<title>SharedModule</title>
<polygon fill="#8dd3c7" stroke="black" points="358.42,-122 355.42,-126 334.42,-126 331.42,-122 259.58,-122 259.58,-86 358.42,-86 358.42,-122"/>
<text text-anchor="middle" x="309" y="-99.8" font-family="Times,serif" font-size="14.00">SharedModule</text>
</g>
<!-- SharedModule&#45;&gt;AppModule -->
<g id="edge7" class="edge">
<title>SharedModule&#45;&gt;AppModule</title>
<path fill="none" stroke="black" d="M309,-122.27C309,-140.56 309,-166 309,-166 309,-166 525.12,-166 525.12,-166"/>
<polygon fill="black" stroke="black" points="525.13,-169.5 535.12,-166 525.12,-162.5 525.13,-169.5"/>
</g>
<!-- AuthModule -->
<g id="node9" class="node">
<title>AuthModule</title>
<polygon fill="#8dd3c7" stroke="black" points="241.55,-122 238.55,-126 217.55,-126 214.55,-122 154.45,-122 154.45,-86 241.55,-86 241.55,-122"/>
<text text-anchor="middle" x="198" y="-99.8" font-family="Times,serif" font-size="14.00">AuthModule</text>
</g>
<!-- AuthModule&#45;&gt;AppModule -->
<g id="edge8" class="edge">
<title>AuthModule&#45;&gt;AppModule</title>
<path fill="none" stroke="black" d="M198,-122.13C198,-142.57 198,-173 198,-173 198,-173 524.99,-173 524.99,-173"/>
<polygon fill="black" stroke="black" points="524.99,-176.5 534.99,-173 524.99,-169.5 524.99,-176.5"/>
</g>
<!-- MySpaceModule -->
<g id="node10" class="node">
<title>MySpaceModule</title>
<polygon fill="#8dd3c7" stroke="black" points="136.42,-122 133.42,-126 112.42,-126 109.42,-122 23.58,-122 23.58,-86 136.42,-86 136.42,-122"/>
<text text-anchor="middle" x="80" y="-99.8" font-family="Times,serif" font-size="14.00">MySpaceModule</text>
</g>
<!-- MySpaceModule&#45;&gt;AppModule -->
<g id="edge9" class="edge">
<title>MySpaceModule&#45;&gt;AppModule</title>
<path fill="none" stroke="black" d="M80,-122.01C80,-144.49 80,-180 80,-180 80,-180 525.05,-180 525.05,-180"/>
<polygon fill="black" stroke="black" points="525.05,-183.5 535.05,-180 525.05,-176.5 525.05,-183.5"/>
</g>
</g>
</svg>
