<?xml version="1.0" encoding="UTF-8" standalone="no"?>
<!DOCTYPE svg PUBLIC "-//W3C//DTD SVG 1.1//EN"
 "http://www.w3.org/Graphics/SVG/1.1/DTD/svg11.dtd">
<!-- Generated by graphviz version 2.47.0 (20210316.0004)
 -->
<!-- Title: dependencies Pages: 1 -->
<svg width="1502pt" height="211pt"
 viewBox="0.00 0.00 1502.00 211.00" xmlns="http://www.w3.org/2000/svg" xmlns:xlink="http://www.w3.org/1999/xlink">
<g id="graph0" class="graph" transform="scale(1 1) rotate(0) translate(4 207)">
<title>dependencies</title>
<polygon fill="white" stroke="transparent" points="-4,4 -4,-207 1498,-207 1498,4 -4,4"/>
<text text-anchor="start" x="726.01" y="-42.4" font-family="Times-12" font-weight="bold" font-size="14.00">Legend</text>
<polygon fill="#ffffb3" stroke="transparent" points="513,-10 513,-30 533,-30 533,-10 513,-10"/>
<text text-anchor="start" x="536.63" y="-15.4" font-family="Times-12" font-size="14.00"> &#160;Declarations</text>
<polygon fill="#8dd3c7" stroke="transparent" points="626,-10 626,-30 646,-30 646,-10 626,-10"/>
<text text-anchor="start" x="649.73" y="-15.4" font-family="Times-12" font-size="14.00"> &#160;Module</text>
<polygon fill="#80b1d3" stroke="transparent" points="712,-10 712,-30 732,-30 732,-10 712,-10"/>
<text text-anchor="start" x="735.78" y="-15.4" font-family="Times-12" font-size="14.00"> &#160;Bootstrap</text>
<polygon fill="#fdb462" stroke="transparent" points="809,-10 809,-30 829,-30 829,-10 809,-10"/>
<text text-anchor="start" x="832.67" y="-15.4" font-family="Times-12" font-size="14.00"> &#160;Providers</text>
<polygon fill="#fb8072" stroke="transparent" points="905,-10 905,-30 925,-30 925,-10 905,-10"/>
<text text-anchor="start" x="928.73" y="-15.4" font-family="Times-12" font-size="14.00"> &#160;Exports</text>
<g id="clust1" class="cluster">
<title>cluster_PublicModule</title>
<polygon fill="none" stroke="black" stroke-dasharray="1,5" points="8,-70 8,-195 1486,-195 1486,-70 8,-70"/>
</g>
<g id="clust2" class="cluster">
<title>cluster_PublicModule_declarations</title>
<polygon fill="none" stroke="black" points="310,-78 310,-130 1478,-130 1478,-78 310,-78"/>
</g>
<g id="clust11" class="cluster">
<title>cluster_PublicModule_imports</title>
<polygon fill="none" stroke="black" points="16,-78 16,-130 302,-130 302,-78 16,-78"/>
</g>
<!-- HomeComponent -->
<g id="node1" class="node">
<title>HomeComponent</title>
<polygon fill="#ffffb3" stroke="black" points="1469.55,-122 1354.45,-122 1354.45,-86 1469.55,-86 1469.55,-122"/>
<text text-anchor="middle" x="1412" y="-99.8" font-family="Times,serif" font-size="14.00">HomeComponent</text>
</g>
<!-- PublicModule -->
<g id="node9" class="node">
<title>PublicModule</title>
<polygon fill="#8dd3c7" stroke="black" points="788.83,-187 785.83,-191 764.83,-191 761.83,-187 693.17,-187 693.17,-151 788.83,-151 788.83,-187"/>
<text text-anchor="middle" x="741" y="-164.8" font-family="Times,serif" font-size="14.00">PublicModule</text>
</g>
<!-- HomeComponent&#45;&gt;PublicModule -->
<g id="edge1" class="edge">
<title>HomeComponent&#45;&gt;PublicModule</title>
<path fill="none" stroke="black" d="M1412,-122.01C1412,-144.49 1412,-180 1412,-180 1412,-180 798.72,-180 798.72,-180"/>
<polygon fill="black" stroke="black" points="798.72,-176.5 788.72,-180 798.72,-183.5 798.72,-176.5"/>
</g>
<!-- AboutComponent -->
<g id="node2" class="node">
<title>AboutComponent</title>
<polygon fill="#ffffb3" stroke="black" points="1336.33,-122 1219.67,-122 1219.67,-86 1336.33,-86 1336.33,-122"/>
<text text-anchor="middle" x="1278" y="-99.8" font-family="Times,serif" font-size="14.00">AboutComponent</text>
</g>
<!-- AboutComponent&#45;&gt;PublicModule -->
<g id="edge2" class="edge">
<title>AboutComponent&#45;&gt;PublicModule</title>
<path fill="none" stroke="black" d="M1278,-122.13C1278,-142.57 1278,-173 1278,-173 1278,-173 799.13,-173 799.13,-173"/>
<polygon fill="black" stroke="black" points="799.13,-169.5 789.13,-173 799.13,-176.5 799.13,-169.5"/>
</g>
<!-- ContactComponent -->
<g id="node3" class="node">
<title>ContactComponent</title>
<polygon fill="#ffffb3" stroke="black" points="1201.38,-122 1076.62,-122 1076.62,-86 1201.38,-86 1201.38,-122"/>
<text text-anchor="middle" x="1139" y="-99.8" font-family="Times,serif" font-size="14.00">ContactComponent</text>
</g>
<!-- ContactComponent&#45;&gt;PublicModule -->
<g id="edge3" class="edge">
<title>ContactComponent&#45;&gt;PublicModule</title>
<path fill="none" stroke="black" d="M1139,-122.27C1139,-140.56 1139,-166 1139,-166 1139,-166 799.01,-166 799.01,-166"/>
<polygon fill="black" stroke="black" points="799.01,-162.5 789.01,-166 799.01,-169.5 799.01,-162.5"/>
</g>
<!-- TutorsPageComponent -->
<g id="node4" class="node">
<title>TutorsPageComponent</title>
<polygon fill="#ffffb3" stroke="black" points="1058.59,-122 913.41,-122 913.41,-86 1058.59,-86 1058.59,-122"/>
<text text-anchor="middle" x="986" y="-99.8" font-family="Times,serif" font-size="14.00">TutorsPageComponent</text>
</g>
<!-- TutorsPageComponent&#45;&gt;PublicModule -->
<g id="edge4" class="edge">
<title>TutorsPageComponent&#45;&gt;PublicModule</title>
<path fill="none" stroke="black" d="M986,-122.01C986,-138.05 986,-159 986,-159 986,-159 798.82,-159 798.82,-159"/>
<polygon fill="black" stroke="black" points="798.82,-155.5 788.82,-159 798.82,-162.5 798.82,-155.5"/>
</g>
<!-- PublicLayoutComponent -->
<g id="node5" class="node">
<title>PublicLayoutComponent</title>
<polygon fill="#ffffb3" stroke="black" points="895.27,-122 738.73,-122 738.73,-86 895.27,-86 895.27,-122"/>
<text text-anchor="middle" x="817" y="-99.8" font-family="Times,serif" font-size="14.00">PublicLayoutComponent</text>
</g>
<!-- PublicLayoutComponent&#45;&gt;PublicModule -->
<g id="edge5" class="edge">
<title>PublicLayoutComponent&#45;&gt;PublicModule</title>
<path fill="none" stroke="black" d="M763.64,-122.11C763.64,-122.11 763.64,-140.99 763.64,-140.99"/>
<polygon fill="black" stroke="black" points="760.14,-140.99 763.64,-150.99 767.14,-140.99 760.14,-140.99"/>
</g>
<!-- BlogComponent -->
<g id="node6" class="node">
<title>BlogComponent</title>
<polygon fill="#ffffb3" stroke="black" points="720.06,-122 611.94,-122 611.94,-86 720.06,-86 720.06,-122"/>
<text text-anchor="middle" x="666" y="-99.8" font-family="Times,serif" font-size="14.00">BlogComponent</text>
</g>
<!-- BlogComponent&#45;&gt;PublicModule -->
<g id="edge6" class="edge">
<title>BlogComponent&#45;&gt;PublicModule</title>
<path fill="none" stroke="black" d="M706.81,-122.11C706.81,-122.11 706.81,-140.99 706.81,-140.99"/>
<polygon fill="black" stroke="black" points="703.31,-140.99 706.81,-150.99 710.31,-140.99 703.31,-140.99"/>
</g>
<!-- MenuItemComponent -->
<g id="node7" class="node">
<title>MenuItemComponent</title>
<polygon fill="#ffffb3" stroke="black" points="593.65,-122 454.35,-122 454.35,-86 593.65,-86 593.65,-122"/>
<text text-anchor="middle" x="524" y="-99.8" font-family="Times,serif" font-size="14.00">MenuItemComponent</text>
</g>
<!-- MenuItemComponent&#45;&gt;PublicModule -->
<g id="edge7" class="edge">
<title>MenuItemComponent&#45;&gt;PublicModule</title>
<path fill="none" stroke="black" d="M524,-122.01C524,-138.05 524,-159 524,-159 524,-159 683.11,-159 683.11,-159"/>
<polygon fill="black" stroke="black" points="683.11,-162.5 693.11,-159 683.11,-155.5 683.11,-162.5"/>
</g>
<!-- FooterComponent -->
<g id="node8" class="node">
<title>FooterComponent</title>
<polygon fill="#ffffb3" stroke="black" points="435.88,-122 318.12,-122 318.12,-86 435.88,-86 435.88,-122"/>
<text text-anchor="middle" x="377" y="-99.8" font-family="Times,serif" font-size="14.00">FooterComponent</text>
</g>
<!-- FooterComponent&#45;&gt;PublicModule -->
<g id="edge8" class="edge">
<title>FooterComponent&#45;&gt;PublicModule</title>
<path fill="none" stroke="black" d="M377,-122.27C377,-140.56 377,-166 377,-166 377,-166 683.04,-166 683.04,-166"/>
<polygon fill="black" stroke="black" points="683.04,-169.5 693.04,-166 683.04,-162.5 683.04,-169.5"/>
</g>
<!-- CommonModule -->
<g id="node10" class="node">
<title>CommonModule</title>
<polygon fill="#8dd3c7" stroke="black" points="293.67,-122 290.67,-126 269.67,-126 266.67,-122 182.33,-122 182.33,-86 293.67,-86 293.67,-122"/>
<text text-anchor="middle" x="238" y="-99.8" font-family="Times,serif" font-size="14.00">CommonModule</text>
</g>
<!-- CommonModule&#45;&gt;PublicModule -->
<g id="edge9" class="edge">
<title>CommonModule&#45;&gt;PublicModule</title>
<path fill="none" stroke="black" d="M238,-122.13C238,-142.57 238,-173 238,-173 238,-173 683.23,-173 683.23,-173"/>
<polygon fill="black" stroke="black" points="683.23,-176.5 693.23,-173 683.23,-169.5 683.23,-176.5"/>
</g>
<!-- PublicRoutingModule -->
<g id="node11" class="node">
<title>PublicRoutingModule</title>
<polygon fill="#8dd3c7" stroke="black" points="164.45,-122 161.45,-126 140.45,-126 137.45,-122 23.55,-122 23.55,-86 164.45,-86 164.45,-122"/>
<text text-anchor="middle" x="94" y="-99.8" font-family="Times,serif" font-size="14.00">PublicRoutingModule</text>
</g>
<!-- PublicRoutingModule&#45;&gt;PublicModule -->
<g id="edge10" class="edge">
<title>PublicRoutingModule&#45;&gt;PublicModule</title>
<path fill="none" stroke="black" d="M94,-122.01C94,-144.49 94,-180 94,-180 94,-180 683.16,-180 683.16,-180"/>
<polygon fill="black" stroke="black" points="683.16,-183.5 693.16,-180 683.16,-176.5 683.16,-183.5"/>
</g>
</g>
</svg>
