<?xml version="1.0" encoding="UTF-8" standalone="no"?>
<!DOCTYPE svg PUBLIC "-//W3C//DTD SVG 1.1//EN"
 "http://www.w3.org/Graphics/SVG/1.1/DTD/svg11.dtd">
<!-- Generated by graphviz version 2.47.0 (20210316.0004)
 -->
<!-- Title: dependencies Pages: 1 -->
<svg width="2582pt" height="211pt"
 viewBox="0.00 0.00 2582.00 211.00" xmlns="http://www.w3.org/2000/svg" xmlns:xlink="http://www.w3.org/1999/xlink">
<g id="graph0" class="graph" transform="scale(1 1) rotate(0) translate(4 207)">
<title>dependencies</title>
<polygon fill="white" stroke="transparent" points="-4,4 -4,-207 2578,-207 2578,4 -4,4"/>
<text text-anchor="start" x="1266.01" y="-42.4" font-family="Times-12" font-weight="bold" font-size="14.00">Legend</text>
<polygon fill="#ffffb3" stroke="transparent" points="1053,-10 1053,-30 1073,-30 1073,-10 1053,-10"/>
<text text-anchor="start" x="1076.63" y="-15.4" font-family="Times-12" font-size="14.00"> &#160;Declarations</text>
<polygon fill="#8dd3c7" stroke="transparent" points="1166,-10 1166,-30 1186,-30 1186,-10 1166,-10"/>
<text text-anchor="start" x="1189.73" y="-15.4" font-family="Times-12" font-size="14.00"> &#160;Module</text>
<polygon fill="#80b1d3" stroke="transparent" points="1252,-10 1252,-30 1272,-30 1272,-10 1252,-10"/>
<text text-anchor="start" x="1275.78" y="-15.4" font-family="Times-12" font-size="14.00"> &#160;Bootstrap</text>
<polygon fill="#fdb462" stroke="transparent" points="1349,-10 1349,-30 1369,-30 1369,-10 1349,-10"/>
<text text-anchor="start" x="1372.67" y="-15.4" font-family="Times-12" font-size="14.00"> &#160;Providers</text>
<polygon fill="#fb8072" stroke="transparent" points="1445,-10 1445,-30 1465,-30 1465,-10 1445,-10"/>
<text text-anchor="start" x="1468.73" y="-15.4" font-family="Times-12" font-size="14.00"> &#160;Exports</text>
<g id="clust1" class="cluster">
<title>cluster_PublicModule</title>
<polygon fill="none" stroke="black" stroke-dasharray="1,5" points="8,-70 8,-195 2566,-195 2566,-70 8,-70"/>
</g>
<g id="clust17" class="cluster">
<title>cluster_PublicModule_imports</title>
<polygon fill="none" stroke="black" points="2156,-78 2156,-130 2558,-130 2558,-78 2156,-78"/>
</g>
<g id="clust2" class="cluster">
<title>cluster_PublicModule_declarations</title>
<polygon fill="none" stroke="black" points="16,-78 16,-130 2148,-130 2148,-78 16,-78"/>
</g>
<!-- HomeComponent -->
<g id="node1" class="node">
<title>HomeComponent</title>
<polygon fill="#ffffb3" stroke="black" points="2139.55,-122 2024.45,-122 2024.45,-86 2139.55,-86 2139.55,-122"/>
<text text-anchor="middle" x="2082" y="-99.8" font-family="Times,serif" font-size="14.00">HomeComponent</text>
</g>
<!-- PublicModule -->
<g id="node15" class="node">
<title>PublicModule</title>
<polygon fill="#8dd3c7" stroke="black" points="1383.83,-187 1380.83,-191 1359.83,-191 1356.83,-187 1288.17,-187 1288.17,-151 1383.83,-151 1383.83,-187"/>
<text text-anchor="middle" x="1336" y="-164.8" font-family="Times,serif" font-size="14.00">PublicModule</text>
</g>
<!-- HomeComponent&#45;&gt;PublicModule -->
<g id="edge1" class="edge">
<title>HomeComponent&#45;&gt;PublicModule</title>
<path fill="none" stroke="black" d="M2082,-122.31C2082,-142.15 2082,-171 2082,-171 2082,-171 1393.8,-171 1393.8,-171"/>
<polygon fill="black" stroke="black" points="1393.8,-167.5 1383.8,-171 1393.8,-174.5 1393.8,-167.5"/>
</g>
<!-- AboutComponent -->
<g id="node2" class="node">
<title>AboutComponent</title>
<polygon fill="#ffffb3" stroke="black" points="2006.33,-122 1889.67,-122 1889.67,-86 2006.33,-86 2006.33,-122"/>
<text text-anchor="middle" x="1948" y="-99.8" font-family="Times,serif" font-size="14.00">AboutComponent</text>
</g>
<!-- AboutComponent&#45;&gt;PublicModule -->
<g id="edge2" class="edge">
<title>AboutComponent&#45;&gt;PublicModule</title>
<path fill="none" stroke="black" d="M1948,-122.22C1948,-140.83 1948,-167 1948,-167 1948,-167 1393.77,-167 1393.77,-167"/>
<polygon fill="black" stroke="black" points="1393.77,-163.5 1383.77,-167 1393.77,-170.5 1393.77,-163.5"/>
</g>
<!-- ContactComponent -->
<g id="node3" class="node">
<title>ContactComponent</title>
<polygon fill="#ffffb3" stroke="black" points="1871.38,-122 1746.62,-122 1746.62,-86 1871.38,-86 1871.38,-122"/>
<text text-anchor="middle" x="1809" y="-99.8" font-family="Times,serif" font-size="14.00">ContactComponent</text>
</g>
<!-- ContactComponent&#45;&gt;PublicModule -->
<g id="edge3" class="edge">
<title>ContactComponent&#45;&gt;PublicModule</title>
<path fill="none" stroke="black" d="M1809,-122.02C1809,-139.37 1809,-163 1809,-163 1809,-163 1393.96,-163 1393.96,-163"/>
<polygon fill="black" stroke="black" points="1393.96,-159.5 1383.96,-163 1393.96,-166.5 1393.96,-159.5"/>
</g>
<!-- TutorsPageComponent -->
<g id="node4" class="node">
<title>TutorsPageComponent</title>
<polygon fill="#ffffb3" stroke="black" points="1728.59,-122 1583.41,-122 1583.41,-86 1728.59,-86 1728.59,-122"/>
<text text-anchor="middle" x="1656" y="-99.8" font-family="Times,serif" font-size="14.00">TutorsPageComponent</text>
</g>
<!-- TutorsPageComponent&#45;&gt;PublicModule -->
<g id="edge4" class="edge">
<title>TutorsPageComponent&#45;&gt;PublicModule</title>
<path fill="none" stroke="black" d="M1656,-122.01C1656,-138.05 1656,-159 1656,-159 1656,-159 1393.91,-159 1393.91,-159"/>
<polygon fill="black" stroke="black" points="1393.91,-155.5 1383.91,-159 1393.91,-162.5 1393.91,-155.5"/>
</g>
<!-- PublicLayoutComponent -->
<g id="node5" class="node">
<title>PublicLayoutComponent</title>
<polygon fill="#ffffb3" stroke="black" points="1565.27,-122 1408.73,-122 1408.73,-86 1565.27,-86 1565.27,-122"/>
<text text-anchor="middle" x="1487" y="-99.8" font-family="Times,serif" font-size="14.00">PublicLayoutComponent</text>
</g>
<!-- PublicLayoutComponent&#45;&gt;PublicModule -->
<g id="edge5" class="edge">
<title>PublicLayoutComponent&#45;&gt;PublicModule</title>
<path fill="none" stroke="black" d="M1487,-122.12C1487,-136.78 1487,-155 1487,-155 1487,-155 1393.78,-155 1393.78,-155"/>
<polygon fill="black" stroke="black" points="1393.78,-151.5 1383.78,-155 1393.78,-158.5 1393.78,-151.5"/>
</g>
<!-- BlogComponent -->
<g id="node6" class="node">
<title>BlogComponent</title>
<polygon fill="#ffffb3" stroke="black" points="1390.06,-122 1281.94,-122 1281.94,-86 1390.06,-86 1390.06,-122"/>
<text text-anchor="middle" x="1336" y="-99.8" font-family="Times,serif" font-size="14.00">BlogComponent</text>
</g>
<!-- BlogComponent&#45;&gt;PublicModule -->
<g id="edge6" class="edge">
<title>BlogComponent&#45;&gt;PublicModule</title>
<path fill="none" stroke="black" d="M1336,-122.11C1336,-122.11 1336,-140.99 1336,-140.99"/>
<polygon fill="black" stroke="black" points="1332.5,-140.99 1336,-150.99 1339.5,-140.99 1332.5,-140.99"/>
</g>
<!-- MenuItemComponent -->
<g id="node7" class="node">
<title>MenuItemComponent</title>
<polygon fill="#ffffb3" stroke="black" points="1263.65,-122 1124.35,-122 1124.35,-86 1263.65,-86 1263.65,-122"/>
<text text-anchor="middle" x="1194" y="-99.8" font-family="Times,serif" font-size="14.00">MenuItemComponent</text>
</g>
<!-- MenuItemComponent&#45;&gt;PublicModule -->
<g id="edge7" class="edge">
<title>MenuItemComponent&#45;&gt;PublicModule</title>
<path fill="none" stroke="black" d="M1194,-122.12C1194,-136.78 1194,-155 1194,-155 1194,-155 1278.32,-155 1278.32,-155"/>
<polygon fill="black" stroke="black" points="1278.32,-158.5 1288.32,-155 1278.32,-151.5 1278.32,-158.5"/>
</g>
<!-- FooterComponent -->
<g id="node8" class="node">
<title>FooterComponent</title>
<polygon fill="#ffffb3" stroke="black" points="1105.88,-122 988.12,-122 988.12,-86 1105.88,-86 1105.88,-122"/>
<text text-anchor="middle" x="1047" y="-99.8" font-family="Times,serif" font-size="14.00">FooterComponent</text>
</g>
<!-- FooterComponent&#45;&gt;PublicModule -->
<g id="edge8" class="edge">
<title>FooterComponent&#45;&gt;PublicModule</title>
<path fill="none" stroke="black" d="M1047,-122.01C1047,-138.05 1047,-159 1047,-159 1047,-159 1278.28,-159 1278.28,-159"/>
<polygon fill="black" stroke="black" points="1278.28,-162.5 1288.28,-159 1278.28,-155.5 1278.28,-162.5"/>
</g>
<!-- HeaderComponent -->
<g id="node9" class="node">
<title>HeaderComponent</title>
<polygon fill="#ffffb3" stroke="black" points="969.74,-122 848.26,-122 848.26,-86 969.74,-86 969.74,-122"/>
<text text-anchor="middle" x="909" y="-99.8" font-family="Times,serif" font-size="14.00">HeaderComponent</text>
</g>
<!-- HeaderComponent&#45;&gt;PublicModule -->
<g id="edge9" class="edge">
<title>HeaderComponent&#45;&gt;PublicModule</title>
<path fill="none" stroke="black" d="M909,-122.02C909,-139.37 909,-163 909,-163 909,-163 1278.26,-163 1278.26,-163"/>
<polygon fill="black" stroke="black" points="1278.26,-166.5 1288.26,-163 1278.26,-159.5 1278.26,-166.5"/>
</g>
<!-- NotificationBarComponent -->
<g id="node10" class="node">
<title>NotificationBarComponent</title>
<polygon fill="#ffffb3" stroke="black" points="830.69,-122 661.31,-122 661.31,-86 830.69,-86 830.69,-122"/>
<text text-anchor="middle" x="746" y="-99.8" font-family="Times,serif" font-size="14.00">NotificationBarComponent</text>
</g>
<!-- NotificationBarComponent&#45;&gt;PublicModule -->
<g id="edge10" class="edge">
<title>NotificationBarComponent&#45;&gt;PublicModule</title>
<path fill="none" stroke="black" d="M746,-122.22C746,-140.83 746,-167 746,-167 746,-167 1278.22,-167 1278.22,-167"/>
<polygon fill="black" stroke="black" points="1278.22,-170.5 1288.22,-167 1278.22,-163.5 1278.22,-170.5"/>
</g>
<!-- ServicesComponent -->
<g id="node11" class="node">
<title>ServicesComponent</title>
<polygon fill="#ffffb3" stroke="black" points="643.25,-122 514.75,-122 514.75,-86 643.25,-86 643.25,-122"/>
<text text-anchor="middle" x="579" y="-99.8" font-family="Times,serif" font-size="14.00">ServicesComponent</text>
</g>
<!-- ServicesComponent&#45;&gt;PublicModule -->
<g id="edge11" class="edge">
<title>ServicesComponent&#45;&gt;PublicModule</title>
<path fill="none" stroke="black" d="M579,-122.31C579,-142.15 579,-171 579,-171 579,-171 1278.07,-171 1278.07,-171"/>
<polygon fill="black" stroke="black" points="1278.07,-174.5 1288.07,-171 1278.07,-167.5 1278.07,-174.5"/>
</g>
<!-- BlockVideoComponent -->
<g id="node12" class="node">
<title>BlockVideoComponent</title>
<polygon fill="#ffffb3" stroke="black" points="496.49,-122 347.51,-122 347.51,-86 496.49,-86 496.49,-122"/>
<text text-anchor="middle" x="422" y="-99.8" font-family="Times,serif" font-size="14.00">BlockVideoComponent</text>
</g>
<!-- BlockVideoComponent&#45;&gt;PublicModule -->
<g id="edge12" class="edge">
<title>BlockVideoComponent&#45;&gt;PublicModule</title>
<path fill="none" stroke="black" d="M422,-122.28C422,-143.32 422,-175 422,-175 422,-175 1278.15,-175 1278.15,-175"/>
<polygon fill="black" stroke="black" points="1278.15,-178.5 1288.15,-175 1278.15,-171.5 1278.15,-178.5"/>
</g>
<!-- HeroBannerComponent -->
<g id="node13" class="node">
<title>HeroBannerComponent</title>
<polygon fill="#ffffb3" stroke="black" points="329.74,-122 180.26,-122 180.26,-86 329.74,-86 329.74,-122"/>
<text text-anchor="middle" x="255" y="-99.8" font-family="Times,serif" font-size="14.00">HeroBannerComponent</text>
</g>
<!-- HeroBannerComponent&#45;&gt;PublicModule -->
<g id="edge13" class="edge">
<title>HeroBannerComponent&#45;&gt;PublicModule</title>
<path fill="none" stroke="black" d="M255,-122.16C255,-144.35 255,-179 255,-179 255,-179 1278.16,-179 1278.16,-179"/>
<polygon fill="black" stroke="black" points="1278.16,-182.5 1288.16,-179 1278.16,-175.5 1278.16,-182.5"/>
</g>
<!-- ScrollTopComponent -->
<g id="node14" class="node">
<title>ScrollTopComponent</title>
<polygon fill="#ffffb3" stroke="black" points="161.82,-122 24.18,-122 24.18,-86 161.82,-86 161.82,-122"/>
<text text-anchor="middle" x="93" y="-99.8" font-family="Times,serif" font-size="14.00">ScrollTopComponent</text>
</g>
<!-- ScrollTopComponent&#45;&gt;PublicModule -->
<g id="edge14" class="edge">
<title>ScrollTopComponent&#45;&gt;PublicModule</title>
<path fill="none" stroke="black" d="M93,-122.32C93,-145.66 93,-183 93,-183 93,-183 1278.03,-183 1278.03,-183"/>
<polygon fill="black" stroke="black" points="1278.03,-186.5 1288.03,-183 1278.03,-179.5 1278.03,-186.5"/>
</g>
<!-- CommonModule -->
<g id="node16" class="node">
<title>CommonModule</title>
<polygon fill="#8dd3c7" stroke="black" points="2549.67,-122 2546.67,-126 2525.67,-126 2522.67,-122 2438.33,-122 2438.33,-86 2549.67,-86 2549.67,-122"/>
<text text-anchor="middle" x="2494" y="-99.8" font-family="Times,serif" font-size="14.00">CommonModule</text>
</g>
<!-- CommonModule&#45;&gt;PublicModule -->
<g id="edge15" class="edge">
<title>CommonModule&#45;&gt;PublicModule</title>
<path fill="none" stroke="black" d="M2494,-122.32C2494,-145.66 2494,-183 2494,-183 2494,-183 1393.92,-183 1393.92,-183"/>
<polygon fill="black" stroke="black" points="1393.92,-179.5 1383.92,-183 1393.92,-186.5 1393.92,-179.5"/>
</g>
<!-- PublicRoutingModule -->
<g id="node17" class="node">
<title>PublicRoutingModule</title>
<polygon fill="#8dd3c7" stroke="black" points="2420.45,-122 2417.45,-126 2396.45,-126 2393.45,-122 2279.55,-122 2279.55,-86 2420.45,-86 2420.45,-122"/>
<text text-anchor="middle" x="2350" y="-99.8" font-family="Times,serif" font-size="14.00">PublicRoutingModule</text>
</g>
<!-- PublicRoutingModule&#45;&gt;PublicModule -->
<g id="edge16" class="edge">
<title>PublicRoutingModule&#45;&gt;PublicModule</title>
<path fill="none" stroke="black" d="M2350,-122.16C2350,-144.35 2350,-179 2350,-179 2350,-179 1393.89,-179 1393.89,-179"/>
<polygon fill="black" stroke="black" points="1393.89,-175.5 1383.89,-179 1393.89,-182.5 1393.89,-175.5"/>
</g>
<!-- SharedModule -->
<g id="node18" class="node">
<title>SharedModule</title>
<polygon fill="#8dd3c7" stroke="black" points="2262.42,-122 2259.42,-126 2238.42,-126 2235.42,-122 2163.58,-122 2163.58,-86 2262.42,-86 2262.42,-122"/>
<text text-anchor="middle" x="2213" y="-99.8" font-family="Times,serif" font-size="14.00">SharedModule</text>
</g>
<!-- SharedModule&#45;&gt;PublicModule -->
<g id="edge17" class="edge">
<title>SharedModule&#45;&gt;PublicModule</title>
<path fill="none" stroke="black" d="M2213,-122.28C2213,-143.32 2213,-175 2213,-175 2213,-175 1393.77,-175 1393.77,-175"/>
<polygon fill="black" stroke="black" points="1393.77,-171.5 1383.77,-175 1393.77,-178.5 1393.77,-171.5"/>
</g>
</g>
</svg>
