<?xml version="1.0" encoding="UTF-8" standalone="no"?>
<!DOCTYPE svg PUBLIC "-//W3C//DTD SVG 1.1//EN"
 "http://www.w3.org/Graphics/SVG/1.1/DTD/svg11.dtd">
<!-- Generated by graphviz version 2.47.0 (20210316.0004)
 -->
<!-- Title: dependencies Pages: 1 -->
<svg width="817pt" height="211pt"
 viewBox="0.00 0.00 817.00 211.00" xmlns="http://www.w3.org/2000/svg" xmlns:xlink="http://www.w3.org/1999/xlink">
<g id="graph0" class="graph" transform="scale(1 1) rotate(0) translate(4 207)">
<title>dependencies</title>
<polygon fill="white" stroke="transparent" points="-4,4 -4,-207 813,-207 813,4 -4,4"/>
<text text-anchor="start" x="383.51" y="-42.4" font-family="Times-12" font-weight="bold" font-size="14.00">Legend</text>
<polygon fill="#ffffb3" stroke="transparent" points="170.5,-10 170.5,-30 190.5,-30 190.5,-10 170.5,-10"/>
<text text-anchor="start" x="194.13" y="-15.4" font-family="Times-12" font-size="14.00"> &#160;Declarations</text>
<polygon fill="#8dd3c7" stroke="transparent" points="283.5,-10 283.5,-30 303.5,-30 303.5,-10 283.5,-10"/>
<text text-anchor="start" x="307.23" y="-15.4" font-family="Times-12" font-size="14.00"> &#160;Module</text>
<polygon fill="#80b1d3" stroke="transparent" points="369.5,-10 369.5,-30 389.5,-30 389.5,-10 369.5,-10"/>
<text text-anchor="start" x="393.28" y="-15.4" font-family="Times-12" font-size="14.00"> &#160;Bootstrap</text>
<polygon fill="#fdb462" stroke="transparent" points="466.5,-10 466.5,-30 486.5,-30 486.5,-10 466.5,-10"/>
<text text-anchor="start" x="490.17" y="-15.4" font-family="Times-12" font-size="14.00"> &#160;Providers</text>
<polygon fill="#fb8072" stroke="transparent" points="562.5,-10 562.5,-30 582.5,-30 582.5,-10 562.5,-10"/>
<text text-anchor="start" x="586.23" y="-15.4" font-family="Times-12" font-size="14.00"> &#160;Exports</text>
<g id="clust1" class="cluster">
<title>cluster_TutorModule</title>
<polygon fill="none" stroke="black" stroke-dasharray="1,5" points="8,-70 8,-195 801,-195 801,-70 8,-70"/>
</g>
<g id="clust6" class="cluster">
<title>cluster_TutorModule_imports</title>
<polygon fill="none" stroke="black" points="511,-78 511,-130 793,-130 793,-78 511,-78"/>
</g>
<g id="clust2" class="cluster">
<title>cluster_TutorModule_declarations</title>
<polygon fill="none" stroke="black" points="16,-78 16,-130 503,-130 503,-78 16,-78"/>
</g>
<!-- CalendarsComponent -->
<g id="node1" class="node">
<title>CalendarsComponent</title>
<polygon fill="#ffffb3" stroke="black" points="494.81,-122 357.19,-122 357.19,-86 494.81,-86 494.81,-122"/>
<text text-anchor="middle" x="426" y="-99.8" font-family="Times,serif" font-size="14.00">CalendarsComponent</text>
</g>
<!-- TutorModule -->
<g id="node4" class="node">
<title>TutorModule</title>
<polygon fill="#8dd3c7" stroke="black" points="471.15,-187 468.15,-191 447.15,-191 444.15,-187 380.85,-187 380.85,-151 471.15,-151 471.15,-187"/>
<text text-anchor="middle" x="426" y="-164.8" font-family="Times,serif" font-size="14.00">TutorModule</text>
</g>
<!-- CalendarsComponent&#45;&gt;TutorModule -->
<g id="edge1" class="edge">
<title>CalendarsComponent&#45;&gt;TutorModule</title>
<path fill="none" stroke="black" d="M426,-122.11C426,-122.11 426,-140.99 426,-140.99"/>
<polygon fill="black" stroke="black" points="422.5,-140.99 426,-150.99 429.5,-140.99 422.5,-140.99"/>
</g>
<!-- OverviewComponent -->
<g id="node2" class="node">
<title>OverviewComponent</title>
<polygon fill="#ffffb3" stroke="black" points="339.03,-122 202.97,-122 202.97,-86 339.03,-86 339.03,-122"/>
<text text-anchor="middle" x="271" y="-99.8" font-family="Times,serif" font-size="14.00">OverviewComponent</text>
</g>
<!-- OverviewComponent&#45;&gt;TutorModule -->
<g id="edge2" class="edge">
<title>OverviewComponent&#45;&gt;TutorModule</title>
<path fill="none" stroke="black" d="M271,-122.02C271,-139.37 271,-163 271,-163 271,-163 370.75,-163 370.75,-163"/>
<polygon fill="black" stroke="black" points="370.75,-166.5 380.75,-163 370.75,-159.5 370.75,-166.5"/>
</g>
<!-- CreateSessionComponent -->
<g id="node3" class="node">
<title>CreateSessionComponent</title>
<polygon fill="#ffffb3" stroke="black" points="184.14,-122 23.86,-122 23.86,-86 184.14,-86 184.14,-122"/>
<text text-anchor="middle" x="104" y="-99.8" font-family="Times,serif" font-size="14.00">CreateSessionComponent</text>
</g>
<!-- CreateSessionComponent&#45;&gt;TutorModule -->
<g id="edge3" class="edge">
<title>CreateSessionComponent&#45;&gt;TutorModule</title>
<path fill="none" stroke="black" d="M104,-122.28C104,-143.32 104,-175 104,-175 104,-175 370.55,-175 370.55,-175"/>
<polygon fill="black" stroke="black" points="370.55,-178.5 380.55,-175 370.55,-171.5 370.55,-178.5"/>
</g>
<!-- CommonModule -->
<g id="node5" class="node">
<title>CommonModule</title>
<polygon fill="#8dd3c7" stroke="black" points="784.67,-122 781.67,-126 760.67,-126 757.67,-122 673.33,-122 673.33,-86 784.67,-86 784.67,-122"/>
<text text-anchor="middle" x="729" y="-99.8" font-family="Times,serif" font-size="14.00">CommonModule</text>
</g>
<!-- CommonModule&#45;&gt;TutorModule -->
<g id="edge4" class="edge">
<title>CommonModule&#45;&gt;TutorModule</title>
<path fill="none" stroke="black" d="M729,-122.28C729,-143.32 729,-175 729,-175 729,-175 481.36,-175 481.36,-175"/>
<polygon fill="black" stroke="black" points="481.36,-171.5 471.36,-175 481.36,-178.5 481.36,-171.5"/>
</g>
<!-- TutorRoutingModule -->
<g id="node6" class="node">
<title>TutorRoutingModule</title>
<polygon fill="#8dd3c7" stroke="black" points="654.77,-122 651.77,-126 630.77,-126 627.77,-122 519.23,-122 519.23,-86 654.77,-86 654.77,-122"/>
<text text-anchor="middle" x="587" y="-99.8" font-family="Times,serif" font-size="14.00">TutorRoutingModule</text>
</g>
<!-- TutorRoutingModule&#45;&gt;TutorModule -->
<g id="edge5" class="edge">
<title>TutorRoutingModule&#45;&gt;TutorModule</title>
<path fill="none" stroke="black" d="M587,-122.02C587,-139.37 587,-163 587,-163 587,-163 481.28,-163 481.28,-163"/>
<polygon fill="black" stroke="black" points="481.28,-159.5 471.28,-163 481.28,-166.5 481.28,-159.5"/>
</g>
</g>
</svg>
