<?xml version="1.0" encoding="UTF-8" standalone="no"?>
<!DOCTYPE svg PUBLIC "-//W3C//DTD SVG 1.1//EN"
 "http://www.w3.org/Graphics/SVG/1.1/DTD/svg11.dtd">
<!-- Generated by graphviz version 2.47.0 (20210316.0004)
 -->
<!-- Title: dependencies Pages: 1 -->
<svg width="817pt" height="211pt"
 viewBox="0.00 0.00 817.00 211.00" xmlns="http://www.w3.org/2000/svg" xmlns:xlink="http://www.w3.org/1999/xlink">
<g id="graph0" class="graph" transform="scale(1 1) rotate(0) translate(4 207)">
<title>dependencies</title>
<polygon fill="white" stroke="transparent" points="-4,4 -4,-207 813,-207 813,4 -4,4"/>
<text text-anchor="start" x="383.51" y="-42.4" font-family="Times-12" font-weight="bold" font-size="14.00">Legend</text>
<polygon fill="#ffffb3" stroke="transparent" points="170.5,-10 170.5,-30 190.5,-30 190.5,-10 170.5,-10"/>
<text text-anchor="start" x="194.13" y="-15.4" font-family="Times-12" font-size="14.00"> &#160;Declarations</text>
<polygon fill="#8dd3c7" stroke="transparent" points="283.5,-10 283.5,-30 303.5,-30 303.5,-10 283.5,-10"/>
<text text-anchor="start" x="307.23" y="-15.4" font-family="Times-12" font-size="14.00"> &#160;Module</text>
<polygon fill="#80b1d3" stroke="transparent" points="369.5,-10 369.5,-30 389.5,-30 389.5,-10 369.5,-10"/>
<text text-anchor="start" x="393.28" y="-15.4" font-family="Times-12" font-size="14.00"> &#160;Bootstrap</text>
<polygon fill="#fdb462" stroke="transparent" points="466.5,-10 466.5,-30 486.5,-30 486.5,-10 466.5,-10"/>
<text text-anchor="start" x="490.17" y="-15.4" font-family="Times-12" font-size="14.00"> &#160;Providers</text>
<polygon fill="#fb8072" stroke="transparent" points="562.5,-10 562.5,-30 582.5,-30 582.5,-10 562.5,-10"/>
<text text-anchor="start" x="586.23" y="-15.4" font-family="Times-12" font-size="14.00"> &#160;Exports</text>
<g id="clust1" class="cluster">
<title>cluster_TutorModule</title>
<polygon fill="none" stroke="black" stroke-dasharray="1,5" points="8,-70 8,-195 801,-195 801,-70 8,-70"/>
</g>
<g id="clust2" class="cluster">
<title>cluster_TutorModule_declarations</title>
<polygon fill="none" stroke="black" points="306,-78 306,-130 793,-130 793,-78 306,-78"/>
</g>
<g id="clust6" class="cluster">
<title>cluster_TutorModule_imports</title>
<polygon fill="none" stroke="black" points="16,-78 16,-130 298,-130 298,-78 16,-78"/>
</g>
<!-- CalendarsComponent -->
<g id="node1" class="node">
<title>CalendarsComponent</title>
<polygon fill="#ffffb3" stroke="black" points="784.81,-122 647.19,-122 647.19,-86 784.81,-86 784.81,-122"/>
<text text-anchor="middle" x="716" y="-99.8" font-family="Times,serif" font-size="14.00">CalendarsComponent</text>
</g>
<!-- TutorModule -->
<g id="node4" class="node">
<title>TutorModule</title>
<polygon fill="#8dd3c7" stroke="black" points="439.15,-187 436.15,-191 415.15,-191 412.15,-187 348.85,-187 348.85,-151 439.15,-151 439.15,-187"/>
<text text-anchor="middle" x="394" y="-164.8" font-family="Times,serif" font-size="14.00">TutorModule</text>
</g>
<!-- CalendarsComponent&#45;&gt;TutorModule -->
<g id="edge1" class="edge">
<title>CalendarsComponent&#45;&gt;TutorModule</title>
<path fill="none" stroke="black" d="M716,-122.28C716,-143.32 716,-175 716,-175 716,-175 449.45,-175 449.45,-175"/>
<polygon fill="black" stroke="black" points="449.45,-171.5 439.45,-175 449.45,-178.5 449.45,-171.5"/>
</g>
<!-- OverviewComponent -->
<g id="node2" class="node">
<title>OverviewComponent</title>
<polygon fill="#ffffb3" stroke="black" points="629.03,-122 492.97,-122 492.97,-86 629.03,-86 629.03,-122"/>
<text text-anchor="middle" x="561" y="-99.8" font-family="Times,serif" font-size="14.00">OverviewComponent</text>
</g>
<!-- OverviewComponent&#45;&gt;TutorModule -->
<g id="edge2" class="edge">
<title>OverviewComponent&#45;&gt;TutorModule</title>
<path fill="none" stroke="black" d="M561,-122.02C561,-139.37 561,-163 561,-163 561,-163 449.19,-163 449.19,-163"/>
<polygon fill="black" stroke="black" points="449.19,-159.5 439.19,-163 449.19,-166.5 449.19,-159.5"/>
</g>
<!-- CreateSessionComponent -->
<g id="node3" class="node">
<title>CreateSessionComponent</title>
<polygon fill="#ffffb3" stroke="black" points="474.14,-122 313.86,-122 313.86,-86 474.14,-86 474.14,-122"/>
<text text-anchor="middle" x="394" y="-99.8" font-family="Times,serif" font-size="14.00">CreateSessionComponent</text>
</g>
<!-- CreateSessionComponent&#45;&gt;TutorModule -->
<g id="edge3" class="edge">
<title>CreateSessionComponent&#45;&gt;TutorModule</title>
<path fill="none" stroke="black" d="M394,-122.11C394,-122.11 394,-140.99 394,-140.99"/>
<polygon fill="black" stroke="black" points="390.5,-140.99 394,-150.99 397.5,-140.99 390.5,-140.99"/>
</g>
<!-- CommonModule -->
<g id="node5" class="node">
<title>CommonModule</title>
<polygon fill="#8dd3c7" stroke="black" points="289.67,-122 286.67,-126 265.67,-126 262.67,-122 178.33,-122 178.33,-86 289.67,-86 289.67,-122"/>
<text text-anchor="middle" x="234" y="-99.8" font-family="Times,serif" font-size="14.00">CommonModule</text>
</g>
<!-- CommonModule&#45;&gt;TutorModule -->
<g id="edge4" class="edge">
<title>CommonModule&#45;&gt;TutorModule</title>
<path fill="none" stroke="black" d="M234,-122.02C234,-139.37 234,-163 234,-163 234,-163 338.58,-163 338.58,-163"/>
<polygon fill="black" stroke="black" points="338.58,-166.5 348.58,-163 338.58,-159.5 338.58,-166.5"/>
</g>
<!-- TutorRoutingModule -->
<g id="node6" class="node">
<title>TutorRoutingModule</title>
<polygon fill="#8dd3c7" stroke="black" points="159.77,-122 156.77,-126 135.77,-126 132.77,-122 24.23,-122 24.23,-86 159.77,-86 159.77,-122"/>
<text text-anchor="middle" x="92" y="-99.8" font-family="Times,serif" font-size="14.00">TutorRoutingModule</text>
</g>
<!-- TutorRoutingModule&#45;&gt;TutorModule -->
<g id="edge5" class="edge">
<title>TutorRoutingModule&#45;&gt;TutorModule</title>
<path fill="none" stroke="black" d="M92,-122.28C92,-143.32 92,-175 92,-175 92,-175 338.79,-175 338.79,-175"/>
<polygon fill="black" stroke="black" points="338.79,-178.5 348.79,-175 338.79,-171.5 338.79,-178.5"/>
</g>
</g>
</svg>
