<?xml version="1.0" encoding="UTF-8" standalone="no"?>
<!DOCTYPE svg PUBLIC "-//W3C//DTD SVG 1.1//EN"
 "http://www.w3.org/Graphics/SVG/1.1/DTD/svg11.dtd">
<!-- Generated by graphviz version 2.47.0 (20210316.0004)
 -->
<!-- Title: dependencies Pages: 1 -->
<svg width="1511pt" height="211pt"
 viewBox="0.00 0.00 1511.00 211.00" xmlns="http://www.w3.org/2000/svg" xmlns:xlink="http://www.w3.org/1999/xlink">
<g id="graph0" class="graph" transform="scale(1 1) rotate(0) translate(4 207)">
<title>dependencies</title>
<polygon fill="white" stroke="transparent" points="-4,4 -4,-207 1507,-207 1507,4 -4,4"/>
<text text-anchor="start" x="730.51" y="-42.4" font-family="Times-12" font-weight="bold" font-size="14.00">Legend</text>
<polygon fill="#ffffb3" stroke="transparent" points="517.5,-10 517.5,-30 537.5,-30 537.5,-10 517.5,-10"/>
<text text-anchor="start" x="541.13" y="-15.4" font-family="Times-12" font-size="14.00"> &#160;Declarations</text>
<polygon fill="#8dd3c7" stroke="transparent" points="630.5,-10 630.5,-30 650.5,-30 650.5,-10 630.5,-10"/>
<text text-anchor="start" x="654.23" y="-15.4" font-family="Times-12" font-size="14.00"> &#160;Module</text>
<polygon fill="#80b1d3" stroke="transparent" points="716.5,-10 716.5,-30 736.5,-30 736.5,-10 716.5,-10"/>
<text text-anchor="start" x="740.28" y="-15.4" font-family="Times-12" font-size="14.00"> &#160;Bootstrap</text>
<polygon fill="#fdb462" stroke="transparent" points="813.5,-10 813.5,-30 833.5,-30 833.5,-10 813.5,-10"/>
<text text-anchor="start" x="837.17" y="-15.4" font-family="Times-12" font-size="14.00"> &#160;Providers</text>
<polygon fill="#fb8072" stroke="transparent" points="909.5,-10 909.5,-30 929.5,-30 929.5,-10 909.5,-10"/>
<text text-anchor="start" x="933.23" y="-15.4" font-family="Times-12" font-size="14.00"> &#160;Exports</text>
<g id="clust1" class="cluster">
<title>cluster_MySpaceModule</title>
<polygon fill="none" stroke="black" stroke-dasharray="1,5" points="8,-70 8,-195 1495,-195 1495,-70 8,-70"/>
</g>
<g id="clust2" class="cluster">
<title>cluster_MySpaceModule_declarations</title>
<polygon fill="none" stroke="black" points="540,-78 540,-130 1487,-130 1487,-78 540,-78"/>
</g>
<g id="clust9" class="cluster">
<title>cluster_MySpaceModule_imports</title>
<polygon fill="none" stroke="black" points="16,-78 16,-130 532,-130 532,-78 16,-78"/>
</g>
<!-- TutorsComponent -->
<g id="node1" class="node">
<title>TutorsComponent</title>
<polygon fill="#ffffb3" stroke="black" points="1478.88,-122 1361.12,-122 1361.12,-86 1478.88,-86 1478.88,-122"/>
<text text-anchor="middle" x="1420" y="-99.8" font-family="Times,serif" font-size="14.00">TutorsComponent</text>
</g>
<!-- MySpaceModule -->
<g id="node7" class="node">
<title>MySpaceModule</title>
<polygon fill="#8dd3c7" stroke="black" points="761.42,-187 758.42,-191 737.42,-191 734.42,-187 648.58,-187 648.58,-151 761.42,-151 761.42,-187"/>
<text text-anchor="middle" x="705" y="-164.8" font-family="Times,serif" font-size="14.00">MySpaceModule</text>
</g>
<!-- TutorsComponent&#45;&gt;MySpaceModule -->
<g id="edge1" class="edge">
<title>TutorsComponent&#45;&gt;MySpaceModule</title>
<path fill="none" stroke="black" d="M1420,-122.01C1420,-144.49 1420,-180 1420,-180 1420,-180 771.4,-180 771.4,-180"/>
<polygon fill="black" stroke="black" points="771.4,-176.5 761.4,-180 771.4,-183.5 771.4,-176.5"/>
</g>
<!-- MessagesComponent -->
<g id="node2" class="node">
<title>MessagesComponent</title>
<polygon fill="#ffffb3" stroke="black" points="1342.75,-122 1207.25,-122 1207.25,-86 1342.75,-86 1342.75,-122"/>
<text text-anchor="middle" x="1275" y="-99.8" font-family="Times,serif" font-size="14.00">MessagesComponent</text>
</g>
<!-- MessagesComponent&#45;&gt;MySpaceModule -->
<g id="edge2" class="edge">
<title>MessagesComponent&#45;&gt;MySpaceModule</title>
<path fill="none" stroke="black" d="M1275,-122.13C1275,-142.57 1275,-173 1275,-173 1275,-173 771.21,-173 771.21,-173"/>
<polygon fill="black" stroke="black" points="771.21,-169.5 761.21,-173 771.21,-176.5 771.21,-169.5"/>
</g>
<!-- SettingsComponent -->
<g id="node3" class="node">
<title>SettingsComponent</title>
<polygon fill="#ffffb3" stroke="black" points="1189.45,-122 1062.55,-122 1062.55,-86 1189.45,-86 1189.45,-122"/>
<text text-anchor="middle" x="1126" y="-99.8" font-family="Times,serif" font-size="14.00">SettingsComponent</text>
</g>
<!-- SettingsComponent&#45;&gt;MySpaceModule -->
<g id="edge3" class="edge">
<title>SettingsComponent&#45;&gt;MySpaceModule</title>
<path fill="none" stroke="black" d="M1126,-122.27C1126,-140.56 1126,-166 1126,-166 1126,-166 771.34,-166 771.34,-166"/>
<polygon fill="black" stroke="black" points="771.34,-162.5 761.34,-166 771.34,-169.5 771.34,-162.5"/>
</g>
<!-- MyspaceLayoutComponent -->
<g id="node4" class="node">
<title>MyspaceLayoutComponent</title>
<polygon fill="#ffffb3" stroke="black" points="1044.52,-122 873.48,-122 873.48,-86 1044.52,-86 1044.52,-122"/>
<text text-anchor="middle" x="959" y="-99.8" font-family="Times,serif" font-size="14.00">MyspaceLayoutComponent</text>
</g>
<!-- MyspaceLayoutComponent&#45;&gt;MySpaceModule -->
<g id="edge4" class="edge">
<title>MyspaceLayoutComponent&#45;&gt;MySpaceModule</title>
<path fill="none" stroke="black" d="M959,-122.01C959,-138.05 959,-159 959,-159 959,-159 771.37,-159 771.37,-159"/>
<polygon fill="black" stroke="black" points="771.37,-155.5 761.37,-159 771.37,-162.5 771.37,-155.5"/>
</g>
<!-- SidemenuComponent -->
<g id="node5" class="node">
<title>SidemenuComponent</title>
<polygon fill="#ffffb3" stroke="black" points="855.83,-122 718.17,-122 718.17,-86 855.83,-86 855.83,-122"/>
<text text-anchor="middle" x="787" y="-99.8" font-family="Times,serif" font-size="14.00">SidemenuComponent</text>
</g>
<!-- SidemenuComponent&#45;&gt;MySpaceModule -->
<g id="edge5" class="edge">
<title>SidemenuComponent&#45;&gt;MySpaceModule</title>
<path fill="none" stroke="black" d="M739.77,-122.11C739.77,-122.11 739.77,-140.99 739.77,-140.99"/>
<polygon fill="black" stroke="black" points="736.27,-140.99 739.77,-150.99 743.27,-140.99 736.27,-140.99"/>
</g>
<!-- HeadermenuComponent -->
<g id="node6" class="node">
<title>HeadermenuComponent</title>
<polygon fill="#ffffb3" stroke="black" points="700.35,-122 547.65,-122 547.65,-86 700.35,-86 700.35,-122"/>
<text text-anchor="middle" x="624" y="-99.8" font-family="Times,serif" font-size="14.00">HeadermenuComponent</text>
</g>
<!-- HeadermenuComponent&#45;&gt;MySpaceModule -->
<g id="edge6" class="edge">
<title>HeadermenuComponent&#45;&gt;MySpaceModule</title>
<path fill="none" stroke="black" d="M674.61,-122.11C674.61,-122.11 674.61,-140.99 674.61,-140.99"/>
<polygon fill="black" stroke="black" points="671.11,-140.99 674.61,-150.99 678.11,-140.99 671.11,-140.99"/>
</g>
<!-- CommonModule -->
<g id="node8" class="node">
<title>CommonModule</title>
<polygon fill="#8dd3c7" stroke="black" points="523.67,-122 520.67,-126 499.67,-126 496.67,-122 412.33,-122 412.33,-86 523.67,-86 523.67,-122"/>
<text text-anchor="middle" x="468" y="-99.8" font-family="Times,serif" font-size="14.00">CommonModule</text>
</g>
<!-- CommonModule&#45;&gt;MySpaceModule -->
<g id="edge7" class="edge">
<title>CommonModule&#45;&gt;MySpaceModule</title>
<path fill="none" stroke="black" d="M468,-122.01C468,-138.05 468,-159 468,-159 468,-159 638.53,-159 638.53,-159"/>
<polygon fill="black" stroke="black" points="638.53,-162.5 648.53,-159 638.53,-155.5 638.53,-162.5"/>
</g>
<!-- MySpaceRoutingModule -->
<g id="node9" class="node">
<title>MySpaceRoutingModule</title>
<polygon fill="#8dd3c7" stroke="black" points="393.54,-122 390.54,-126 369.54,-126 366.54,-122 236.46,-122 236.46,-86 393.54,-86 393.54,-122"/>
<text text-anchor="middle" x="315" y="-99.8" font-family="Times,serif" font-size="14.00">MySpaceRoutingModule</text>
</g>
<!-- MySpaceRoutingModule&#45;&gt;MySpaceModule -->
<g id="edge8" class="edge">
<title>MySpaceRoutingModule&#45;&gt;MySpaceModule</title>
<path fill="none" stroke="black" d="M315,-122.27C315,-140.56 315,-166 315,-166 315,-166 638.71,-166 638.71,-166"/>
<polygon fill="black" stroke="black" points="638.71,-169.5 648.71,-166 638.71,-162.5 638.71,-169.5"/>
</g>
<!-- UserModule -->
<g id="node10" class="node">
<title>UserModule</title>
<polygon fill="#8dd3c7" stroke="black" points="217.98,-122 214.98,-126 193.98,-126 190.98,-122 132.02,-122 132.02,-86 217.98,-86 217.98,-122"/>
<text text-anchor="middle" x="175" y="-99.8" font-family="Times,serif" font-size="14.00">UserModule</text>
</g>
<!-- UserModule&#45;&gt;MySpaceModule -->
<g id="edge9" class="edge">
<title>UserModule&#45;&gt;MySpaceModule</title>
<path fill="none" stroke="black" d="M175,-122.13C175,-142.57 175,-173 175,-173 175,-173 638.78,-173 638.78,-173"/>
<polygon fill="black" stroke="black" points="638.78,-176.5 648.78,-173 638.78,-169.5 638.78,-176.5"/>
</g>
<!-- TutorModule -->
<g id="node11" class="node">
<title>TutorModule</title>
<polygon fill="#8dd3c7" stroke="black" points="114.15,-122 111.15,-126 90.15,-126 87.15,-122 23.85,-122 23.85,-86 114.15,-86 114.15,-122"/>
<text text-anchor="middle" x="69" y="-99.8" font-family="Times,serif" font-size="14.00">TutorModule</text>
</g>
<!-- TutorModule&#45;&gt;MySpaceModule -->
<g id="edge10" class="edge">
<title>TutorModule&#45;&gt;MySpaceModule</title>
<path fill="none" stroke="black" d="M69,-122.01C69,-144.49 69,-180 69,-180 69,-180 638.56,-180 638.56,-180"/>
<polygon fill="black" stroke="black" points="638.56,-183.5 648.56,-180 638.56,-176.5 638.56,-183.5"/>
</g>
</g>
</svg>
