<?xml version="1.0" encoding="UTF-8" standalone="no"?>
<!DOCTYPE svg PUBLIC "-//W3C//DTD SVG 1.1//EN"
 "http://www.w3.org/Graphics/SVG/1.1/DTD/svg11.dtd">
<!-- Generated by graphviz version 2.47.0 (20210316.0004)
 -->
<!-- Title: dependencies Pages: 1 -->
<svg width="3946pt" height="501pt"
 viewBox="0.00 0.00 3946.00 501.00" xmlns="http://www.w3.org/2000/svg" xmlns:xlink="http://www.w3.org/1999/xlink">
<g id="graph0" class="graph" transform="scale(1 1) rotate(0) translate(4 497)">
<title>dependencies</title>
<polygon fill="white" stroke="transparent" points="-4,4 -4,-497 3942,-497 3942,4 -4,4"/>
<text text-anchor="start" x="1948.01" y="-42.4" font-family="Times-12" font-weight="bold" font-size="14.00">Legend</text>
<polygon fill="#ffffb3" stroke="transparent" points="1735,-10 1735,-30 1755,-30 1755,-10 1735,-10"/>
<text text-anchor="start" x="1758.63" y="-15.4" font-family="Times-12" font-size="14.00"> &#160;Declarations</text>
<polygon fill="#8dd3c7" stroke="transparent" points="1848,-10 1848,-30 1868,-30 1868,-10 1848,-10"/>
<text text-anchor="start" x="1871.73" y="-15.4" font-family="Times-12" font-size="14.00"> &#160;Module</text>
<polygon fill="#80b1d3" stroke="transparent" points="1934,-10 1934,-30 1954,-30 1954,-10 1934,-10"/>
<text text-anchor="start" x="1957.78" y="-15.4" font-family="Times-12" font-size="14.00"> &#160;Bootstrap</text>
<polygon fill="#fdb462" stroke="transparent" points="2031,-10 2031,-30 2051,-30 2051,-10 2031,-10"/>
<text text-anchor="start" x="2054.67" y="-15.4" font-family="Times-12" font-size="14.00"> &#160;Providers</text>
<polygon fill="#fb8072" stroke="transparent" points="2127,-10 2127,-30 2147,-30 2147,-10 2127,-10"/>
<text text-anchor="start" x="2150.73" y="-15.4" font-family="Times-12" font-size="14.00"> &#160;Exports</text>
<g id="clust1" class="cluster">
<title>cluster_AppModule</title>
<polygon fill="none" stroke="black" stroke-dasharray="1,5" points="1497,-222 1497,-485 2599,-485 2599,-222 1497,-222"/>
</g>
<g id="clust2" class="cluster">
<title>cluster_AppModule_declarations</title>
<polygon fill="none" stroke="black" points="2029,-295 2029,-347 2591,-347 2591,-295 2029,-295"/>
</g>
<g id="clust7" class="cluster">
<title>cluster_AppModule_imports</title>
<polygon fill="none" stroke="black" points="1505,-230 1505,-347 2021,-347 2021,-230 1505,-230"/>
</g>
<g id="clust9" class="cluster">
<title>cluster_AppModule_bootstrap</title>
<polygon fill="none" stroke="black" points="1895,-425 1895,-477 2019,-477 2019,-425 1895,-425"/>
</g>
<g id="clust11" class="cluster">
<title>cluster_AuthModule</title>
<polygon fill="none" stroke="black" stroke-dasharray="1,5" points="8,-70 8,-138 1777,-138 1777,-70 8,-70"/>
</g>
<g id="clust12" class="cluster">
<title>cluster_AuthModule_declarations</title>
<polygon fill="none" stroke="black" points="16,-78 16,-130 1321,-130 1321,-78 16,-78"/>
</g>
<g id="clust21" class="cluster">
<title>cluster_AuthModule_imports</title>
<polygon fill="none" stroke="black" points="1329,-78 1329,-130 1769,-130 1769,-78 1329,-78"/>
</g>
<g id="clust25" class="cluster">
<title>cluster_AuthRoutingModule</title>
<polygon fill="none" stroke="black" stroke-dasharray="1,5" points="1579,-146 1579,-214 1919,-214 1919,-146 1579,-146"/>
</g>
<g id="clust27" class="cluster">
<title>cluster_AuthRoutingModule_imports</title>
<polygon fill="none" stroke="black" points="1713,-154 1713,-206 1911,-206 1911,-154 1713,-154"/>
</g>
<g id="clust28" class="cluster">
<title>cluster_AuthRoutingModule_exports</title>
<polygon fill="none" stroke="black" points="1587,-154 1587,-206 1705,-206 1705,-154 1587,-154"/>
</g>
<g id="clust31" class="cluster">
<title>cluster_MySpaceModule</title>
<polygon fill="none" stroke="black" stroke-dasharray="1,5" points="1927,-146 1927,-214 3284,-214 3284,-146 1927,-146"/>
</g>
<g id="clust32" class="cluster">
<title>cluster_MySpaceModule_declarations</title>
<polygon fill="none" stroke="black" points="2329,-154 2329,-206 3276,-206 3276,-154 2329,-154"/>
</g>
<g id="clust39" class="cluster">
<title>cluster_MySpaceModule_imports</title>
<polygon fill="none" stroke="black" points="1935,-154 1935,-206 2321,-206 2321,-154 1935,-154"/>
</g>
<g id="clust43" class="cluster">
<title>cluster_SharedModule</title>
<polygon fill="none" stroke="black" stroke-dasharray="1,5" points="2607,-287 2607,-355 3930,-355 3930,-287 2607,-287"/>
</g>
<g id="clust44" class="cluster">
<title>cluster_SharedModule_declarations</title>
<polygon fill="none" stroke="black" points="3431,-295 3431,-347 3922,-347 3922,-295 3431,-295"/>
</g>
<g id="clust49" class="cluster">
<title>cluster_SharedModule_exports</title>
<polygon fill="none" stroke="black" points="2615,-295 2615,-347 3423,-347 3423,-295 2615,-295"/>
</g>
<g id="clust52" class="cluster">
<title>cluster_TutorModule</title>
<polygon fill="none" stroke="black" stroke-dasharray="1,5" points="2127,-70 2127,-138 2790,-138 2790,-70 2127,-70"/>
</g>
<g id="clust53" class="cluster">
<title>cluster_TutorModule_declarations</title>
<polygon fill="none" stroke="black" points="2295,-78 2295,-130 2782,-130 2782,-78 2295,-78"/>
</g>
<g id="clust57" class="cluster">
<title>cluster_TutorModule_imports</title>
<polygon fill="none" stroke="black" points="2135,-78 2135,-130 2287,-130 2287,-78 2135,-78"/>
</g>
<g id="clust67" class="cluster">
<title>cluster_UserModule</title>
<polygon fill="none" stroke="black" stroke-dasharray="1,5" points="1785,-70 1785,-138 2119,-138 2119,-70 1785,-70"/>
</g>
<g id="clust68" class="cluster">
<title>cluster_UserModule_declarations</title>
<polygon fill="none" stroke="black" points="1949,-78 1949,-130 2111,-130 2111,-78 1949,-78"/>
</g>
<g id="clust70" class="cluster">
<title>cluster_UserModule_imports</title>
<polygon fill="none" stroke="black" points="1793,-78 1793,-130 1941,-130 1941,-78 1793,-78"/>
</g>
<!-- AppComponent -->
<g id="node1" class="node">
<title>AppComponent</title>
<polygon fill="#ffffb3" stroke="black" points="2582.94,-339 2477.06,-339 2477.06,-303 2582.94,-303 2582.94,-339"/>
<text text-anchor="middle" x="2530" y="-316.8" font-family="Times,serif" font-size="14.00">AppComponent</text>
</g>
<!-- AppModule -->
<g id="node5" class="node">
<title>AppModule</title>
<polygon fill="#8dd3c7" stroke="black" points="1998.66,-404 1995.66,-408 1974.66,-408 1971.66,-404 1915.34,-404 1915.34,-368 1998.66,-368 1998.66,-404"/>
<text text-anchor="middle" x="1957" y="-381.8" font-family="Times,serif" font-size="14.00">AppModule</text>
</g>
<!-- AppComponent&#45;&gt;AppModule -->
<g id="edge1" class="edge">
<title>AppComponent&#45;&gt;AppModule</title>
<path fill="none" stroke="black" d="M2530,-339.29C2530,-361.21 2530,-395 2530,-395 2530,-395 2008.67,-395 2008.67,-395"/>
<polygon fill="black" stroke="black" points="2008.67,-391.5 1998.67,-395 2008.67,-398.5 2008.67,-391.5"/>
</g>
<!-- InputComponent -->
<g id="node2" class="node">
<title>InputComponent</title>
<polygon fill="#ffffb3" stroke="black" points="2459.38,-339 2348.62,-339 2348.62,-303 2459.38,-303 2459.38,-339"/>
<text text-anchor="middle" x="2404" y="-316.8" font-family="Times,serif" font-size="14.00">InputComponent</text>
</g>
<!-- InputComponent&#45;&gt;AppModule -->
<g id="edge2" class="edge">
<title>InputComponent&#45;&gt;AppModule</title>
<path fill="none" stroke="black" d="M2404,-339.11C2404,-358.34 2404,-386 2404,-386 2404,-386 2009.05,-386 2009.05,-386"/>
<polygon fill="black" stroke="black" points="2009.05,-382.5 1999.05,-386 2009.05,-389.5 2009.05,-382.5"/>
</g>
<!-- InputContainerComponent -->
<g id="node3" class="node">
<title>InputContainerComponent</title>
<polygon fill="#ffffb3" stroke="black" points="2331.09,-339 2164.91,-339 2164.91,-303 2331.09,-303 2331.09,-339"/>
<text text-anchor="middle" x="2248" y="-316.8" font-family="Times,serif" font-size="14.00">InputContainerComponent</text>
</g>
<!-- InputContainerComponent&#45;&gt;AppModule -->
<g id="edge3" class="edge">
<title>InputContainerComponent&#45;&gt;AppModule</title>
<path fill="none" stroke="black" d="M2248,-339.03C2248,-355.4 2248,-377 2248,-377 2248,-377 2008.69,-377 2008.69,-377"/>
<polygon fill="black" stroke="black" points="2008.69,-373.5 1998.69,-377 2008.69,-380.5 2008.69,-373.5"/>
</g>
<!-- ErrorComponent -->
<g id="node4" class="node">
<title>ErrorComponent</title>
<polygon fill="#ffffb3" stroke="black" points="2147.37,-339 2036.63,-339 2036.63,-303 2147.37,-303 2147.37,-339"/>
<text text-anchor="middle" x="2092" y="-316.8" font-family="Times,serif" font-size="14.00">ErrorComponent</text>
</g>
<!-- ErrorComponent&#45;&gt;AppModule -->
<g id="edge4" class="edge">
<title>ErrorComponent&#45;&gt;AppModule</title>
<path fill="none" stroke="black" d="M2036.63,-332C2007.56,-332 1977.91,-332 1977.91,-332 1977.91,-332 1977.91,-357.72 1977.91,-357.72"/>
<polygon fill="black" stroke="black" points="1974.41,-357.72 1977.91,-367.72 1981.41,-357.72 1974.41,-357.72"/>
</g>
<!-- AppComponent  -->
<g id="node11" class="node">
<title>AppComponent </title>
<polygon fill="#80b1d3" stroke="black" points="2011.44,-469 1902.56,-469 1902.56,-433 2011.44,-433 2011.44,-469"/>
<text text-anchor="middle" x="1957" y="-446.8" font-family="Times,serif" font-size="14.00">AppComponent </text>
</g>
<!-- AppModule&#45;&gt;AppComponent  -->
<g id="edge10" class="edge">
<title>AppModule&#45;&gt;AppComponent </title>
<path fill="none" stroke="black" stroke-dasharray="1,5" d="M1957,-404.11C1957,-404.11 1957,-422.99 1957,-422.99"/>
<polygon fill="black" stroke="black" points="1953.5,-422.99 1957,-432.99 1960.5,-422.99 1953.5,-422.99"/>
</g>
<!-- BrowserModule -->
<g id="node6" class="node">
<title>BrowserModule</title>
<polygon fill="#8dd3c7" stroke="black" points="1619.47,-274 1616.47,-278 1595.47,-278 1592.47,-274 1512.53,-274 1512.53,-238 1619.47,-238 1619.47,-274"/>
<text text-anchor="middle" x="1566" y="-251.8" font-family="Times,serif" font-size="14.00">BrowserModule</text>
</g>
<!-- BrowserModule&#45;&gt;AppModule -->
<g id="edge5" class="edge">
<title>BrowserModule&#45;&gt;AppModule</title>
<path fill="none" stroke="black" d="M1610.13,-274.17C1610.13,-311.85 1610.13,-395 1610.13,-395 1610.13,-395 1905.16,-395 1905.16,-395"/>
<polygon fill="black" stroke="black" points="1905.16,-398.5 1915.16,-395 1905.16,-391.5 1905.16,-398.5"/>
</g>
<!-- AppRoutingModule -->
<g id="node7" class="node">
<title>AppRoutingModule</title>
<polygon fill="#8dd3c7" stroke="black" points="1766.27,-274 1763.27,-278 1742.27,-278 1739.27,-274 1637.73,-274 1637.73,-238 1766.27,-238 1766.27,-274"/>
<text text-anchor="middle" x="1702" y="-251.8" font-family="Times,serif" font-size="14.00">AppRoutingModule</text>
</g>
<!-- AppRoutingModule&#45;&gt;AppModule -->
<g id="edge6" class="edge">
<title>AppRoutingModule&#45;&gt;AppModule</title>
<path fill="none" stroke="black" d="M1702,-274.08C1702,-309.8 1702,-386 1702,-386 1702,-386 1905.18,-386 1905.18,-386"/>
<polygon fill="black" stroke="black" points="1905.18,-389.5 1915.18,-386 1905.18,-382.5 1905.18,-389.5"/>
</g>
<!-- SharedModule -->
<g id="node8" class="node">
<title>SharedModule</title>
<polygon fill="#8dd3c7" stroke="black" points="1883.42,-274 1880.42,-278 1859.42,-278 1856.42,-274 1784.58,-274 1784.58,-238 1883.42,-238 1883.42,-274"/>
<text text-anchor="middle" x="1834" y="-251.8" font-family="Times,serif" font-size="14.00">SharedModule</text>
</g>
<!-- SharedModule&#45;&gt;AppModule -->
<g id="edge7" class="edge">
<title>SharedModule&#45;&gt;AppModule</title>
<path fill="none" stroke="black" d="M1874.26,-274.11C1874.26,-307.87 1874.26,-377 1874.26,-377 1874.26,-377 1905.15,-377 1905.15,-377"/>
<polygon fill="black" stroke="black" points="1905.15,-380.5 1915.15,-377 1905.15,-373.5 1905.15,-380.5"/>
</g>
<!-- AuthModule -->
<g id="node9" class="node">
<title>AuthModule</title>
<polygon fill="#8dd3c7" stroke="black" points="1600.55,-339 1597.55,-343 1576.55,-343 1573.55,-339 1513.45,-339 1513.45,-303 1600.55,-303 1600.55,-339"/>
<text text-anchor="middle" x="1557" y="-316.8" font-family="Times,serif" font-size="14.00">AuthModule</text>
</g>
<!-- SharedModule&#45;&gt;AuthModule -->
<g id="edge22" class="edge">
<title>SharedModule&#45;&gt;AuthModule</title>
<path fill="none" stroke="black" d="M1865.32,-274.27C1865.32,-292.56 1865.32,-318 1865.32,-318 1865.32,-318 1610.85,-318 1610.85,-318"/>
<polygon fill="black" stroke="black" points="1610.85,-314.5 1600.85,-318 1610.85,-321.5 1610.85,-314.5"/>
</g>
<!-- HttpClientModule  -->
<g id="node37" class="node">
<title>HttpClientModule </title>
<polygon fill="#fb8072" stroke="black" points="3043.16,-339 2920.84,-339 2920.84,-303 3043.16,-303 3043.16,-339"/>
<text text-anchor="middle" x="2982" y="-316.8" font-family="Times,serif" font-size="14.00">HttpClientModule </text>
</g>
<!-- SharedModule&#45;&gt;HttpClientModule  -->
<g id="edge39" class="edge">
<title>SharedModule&#45;&gt;HttpClientModule </title>
<path fill="none" stroke="black" stroke-dasharray="5,2" d="M1838.47,-274.11C1838.47,-283.9 1838.47,-294 1838.47,-294 1838.47,-294 2949.57,-294 2949.57,-294 2949.57,-294 2949.57,-294.88 2949.57,-294.88"/>
<polygon fill="black" stroke="black" points="2946.07,-292.84 2949.57,-302.84 2953.07,-292.84 2946.07,-292.84"/>
</g>
<!-- ReactiveFormsModule  -->
<g id="node38" class="node">
<title>ReactiveFormsModule </title>
<polygon fill="#fb8072" stroke="black" points="2902.8,-339 2755.2,-339 2755.2,-303 2902.8,-303 2902.8,-339"/>
<text text-anchor="middle" x="2829" y="-316.8" font-family="Times,serif" font-size="14.00">ReactiveFormsModule </text>
</g>
<!-- SharedModule&#45;&gt;ReactiveFormsModule  -->
<g id="edge40" class="edge">
<title>SharedModule&#45;&gt;ReactiveFormsModule </title>
<path fill="none" stroke="black" stroke-dasharray="5,2" d="M1829.53,-274.1C1829.53,-285.09 1829.53,-297 1829.53,-297 1829.53,-297 2794.43,-297 2794.43,-297 2794.43,-297 2794.43,-297.58 2794.43,-297.58"/>
<polygon fill="black" stroke="black" points="2790.93,-292.81 2794.43,-302.81 2797.93,-292.81 2790.93,-292.81"/>
</g>
<!-- AlertComponent  -->
<g id="node39" class="node">
<title>AlertComponent </title>
<polygon fill="#fb8072" stroke="black" points="2736.6,-339 2623.4,-339 2623.4,-303 2736.6,-303 2736.6,-339"/>
<text text-anchor="middle" x="2680" y="-316.8" font-family="Times,serif" font-size="14.00">AlertComponent </text>
</g>
<!-- SharedModule&#45;&gt;AlertComponent  -->
<g id="edge41" class="edge">
<title>SharedModule&#45;&gt;AlertComponent </title>
<path fill="none" stroke="black" stroke-dasharray="5,2" d="M1820.58,-274.15C1820.58,-286.27 1820.58,-300 1820.58,-300 1820.58,-300 2633.93,-300 2633.93,-300 2633.93,-300 2633.93,-300.29 2633.93,-300.29"/>
<polygon fill="black" stroke="black" points="2630.43,-292.92 2633.93,-302.92 2637.43,-292.92 2630.43,-292.92"/>
</g>
<!-- AlertScreenComponent  -->
<g id="node40" class="node">
<title>AlertScreenComponent </title>
<polygon fill="#fb8072" stroke="black" points="3414.68,-339 3263.32,-339 3263.32,-303 3414.68,-303 3414.68,-339"/>
<text text-anchor="middle" x="3339" y="-316.8" font-family="Times,serif" font-size="14.00">AlertScreenComponent </text>
</g>
<!-- SharedModule&#45;&gt;AlertScreenComponent  -->
<g id="edge42" class="edge">
<title>SharedModule&#45;&gt;AlertScreenComponent </title>
<path fill="none" stroke="black" stroke-dasharray="5,2" d="M1856.37,-274.03C1856.37,-280.85 1856.37,-287 1856.37,-287 1856.37,-287 3341.39,-287 3341.39,-287 3341.39,-287 3341.39,-292.81 3341.39,-292.81"/>
<polygon fill="black" stroke="black" points="3337.89,-292.81 3341.39,-302.81 3344.89,-292.81 3337.89,-292.81"/>
</g>
<!-- CenteredSkeletonComponent  -->
<g id="node41" class="node">
<title>CenteredSkeletonComponent </title>
<polygon fill="#fb8072" stroke="black" points="3245.36,-339 3060.64,-339 3060.64,-303 3245.36,-303 3245.36,-339"/>
<text text-anchor="middle" x="3153" y="-316.8" font-family="Times,serif" font-size="14.00">CenteredSkeletonComponent </text>
</g>
<!-- SharedModule&#45;&gt;CenteredSkeletonComponent  -->
<g id="edge43" class="edge">
<title>SharedModule&#45;&gt;CenteredSkeletonComponent </title>
<path fill="none" stroke="black" stroke-dasharray="5,2" d="M1847.42,-274.32C1847.42,-282.79 1847.42,-291 1847.42,-291 1847.42,-291 3096.35,-291 3096.35,-291 3096.35,-291 3096.35,-292.86 3096.35,-292.86"/>
<polygon fill="black" stroke="black" points="3092.85,-292.86 3096.35,-302.86 3099.85,-292.86 3092.85,-292.86"/>
</g>
<!-- AuthModule&#45;&gt;AppModule -->
<g id="edge8" class="edge">
<title>AuthModule&#45;&gt;AppModule</title>
<path fill="none" stroke="black" d="M1600.86,-325C1700.64,-325 1936.09,-325 1936.09,-325 1936.09,-325 1936.09,-357.7 1936.09,-357.7"/>
<polygon fill="black" stroke="black" points="1932.59,-357.7 1936.09,-367.7 1939.59,-357.7 1932.59,-357.7"/>
</g>
<!-- MySpaceModule -->
<g id="node10" class="node">
<title>MySpaceModule</title>
<polygon fill="#8dd3c7" stroke="black" points="2013.42,-274 2010.42,-278 1989.42,-278 1986.42,-274 1900.58,-274 1900.58,-238 2013.42,-238 2013.42,-274"/>
<text text-anchor="middle" x="1957" y="-251.8" font-family="Times,serif" font-size="14.00">MySpaceModule</text>
</g>
<!-- MySpaceModule&#45;&gt;AppModule -->
<g id="edge9" class="edge">
<title>MySpaceModule&#45;&gt;AppModule</title>
<path fill="none" stroke="black" d="M1957,-274.08C1957,-274.08 1957,-357.66 1957,-357.66"/>
<polygon fill="black" stroke="black" points="1953.5,-357.66 1957,-367.66 1960.5,-357.66 1953.5,-357.66"/>
</g>
<!-- SignupComponent -->
<g id="node12" class="node">
<title>SignupComponent</title>
<polygon fill="#ffffb3" stroke="black" points="621.51,-122 500.49,-122 500.49,-86 621.51,-86 621.51,-122"/>
<text text-anchor="middle" x="561" y="-99.8" font-family="Times,serif" font-size="14.00">SignupComponent</text>
</g>
<!-- SignupComponent&#45;&gt;AuthModule -->
<g id="edge11" class="edge">
<title>SignupComponent&#45;&gt;AuthModule</title>
<path fill="none" stroke="black" d="M561,-122.17C561,-175.19 561,-326 561,-326 561,-326 1503.24,-326 1503.24,-326"/>
<polygon fill="black" stroke="black" points="1503.24,-329.5 1513.24,-326 1503.24,-322.5 1503.24,-329.5"/>
</g>
<!-- LoginComponent -->
<g id="node13" class="node">
<title>LoginComponent</title>
<polygon fill="#ffffb3" stroke="black" points="754.28,-122 639.72,-122 639.72,-86 754.28,-86 754.28,-122"/>
<text text-anchor="middle" x="697" y="-99.8" font-family="Times,serif" font-size="14.00">LoginComponent</text>
</g>
<!-- LoginComponent&#45;&gt;AuthModule -->
<g id="edge12" class="edge">
<title>LoginComponent&#45;&gt;AuthModule</title>
<path fill="none" stroke="black" d="M697,-122.3C697,-174.93 697,-323 697,-323 697,-323 1503.17,-323 1503.17,-323"/>
<polygon fill="black" stroke="black" points="1503.17,-326.5 1513.17,-323 1503.17,-319.5 1503.17,-326.5"/>
</g>
<!-- ForgetPasswordComponent -->
<g id="node14" class="node">
<title>ForgetPasswordComponent</title>
<polygon fill="#ffffb3" stroke="black" points="943.54,-122 772.46,-122 772.46,-86 943.54,-86 943.54,-122"/>
<text text-anchor="middle" x="858" y="-99.8" font-family="Times,serif" font-size="14.00">ForgetPasswordComponent</text>
</g>
<!-- ForgetPasswordComponent&#45;&gt;AuthModule -->
<g id="edge13" class="edge">
<title>ForgetPasswordComponent&#45;&gt;AuthModule</title>
<path fill="none" stroke="black" d="M858,-122.04C858,-173.96 858,-320 858,-320 858,-320 1503.27,-320 1503.27,-320"/>
<polygon fill="black" stroke="black" points="1503.27,-323.5 1513.27,-320 1503.27,-316.5 1503.27,-323.5"/>
</g>
<!-- NewPasswordComponent -->
<g id="node15" class="node">
<title>NewPasswordComponent</title>
<polygon fill="#ffffb3" stroke="black" points="1312.91,-122 1151.09,-122 1151.09,-86 1312.91,-86 1312.91,-122"/>
<text text-anchor="middle" x="1232" y="-99.8" font-family="Times,serif" font-size="14.00">NewPasswordComponent</text>
</g>
<!-- NewPasswordComponent&#45;&gt;AuthModule -->
<g id="edge14" class="edge">
<title>NewPasswordComponent&#45;&gt;AuthModule</title>
<path fill="none" stroke="black" d="M1232,-122.18C1232,-173.03 1232,-313 1232,-313 1232,-313 1503.17,-313 1503.17,-313"/>
<polygon fill="black" stroke="black" points="1503.17,-316.5 1513.17,-313 1503.17,-309.5 1503.17,-316.5"/>
</g>
<!-- VerifyPasswordComponent -->
<g id="node16" class="node">
<title>VerifyPasswordComponent</title>
<polygon fill="#ffffb3" stroke="black" points="1133.52,-122 962.48,-122 962.48,-86 1133.52,-86 1133.52,-122"/>
<text text-anchor="middle" x="1048" y="-99.8" font-family="Times,serif" font-size="14.00">VerifyPasswordComponent</text>
</g>
<!-- VerifyPasswordComponent&#45;&gt;AuthModule -->
<g id="edge15" class="edge">
<title>VerifyPasswordComponent&#45;&gt;AuthModule</title>
<path fill="none" stroke="black" d="M1048,-122.16C1048,-173.67 1048,-317 1048,-317 1048,-317 1503.16,-317 1503.16,-317"/>
<polygon fill="black" stroke="black" points="1503.16,-320.5 1513.16,-317 1503.16,-313.5 1503.16,-320.5"/>
</g>
<!-- ConfirmationComponent -->
<g id="node17" class="node">
<title>ConfirmationComponent</title>
<polygon fill="#ffffb3" stroke="black" points="180.27,-122 23.73,-122 23.73,-86 180.27,-86 180.27,-122"/>
<text text-anchor="middle" x="102" y="-99.8" font-family="Times,serif" font-size="14.00">ConfirmationComponent</text>
</g>
<!-- ConfirmationComponent&#45;&gt;AuthModule -->
<g id="edge16" class="edge">
<title>ConfirmationComponent&#45;&gt;AuthModule</title>
<path fill="none" stroke="black" d="M102,-122.2C102,-176.9 102,-336 102,-336 102,-336 1503.06,-336 1503.06,-336"/>
<polygon fill="black" stroke="black" points="1503.06,-339.5 1513.06,-336 1503.06,-332.5 1503.06,-339.5"/>
</g>
<!-- VerifyUserComponent -->
<g id="node18" class="node">
<title>VerifyUserComponent</title>
<polygon fill="#ffffb3" stroke="black" points="343.29,-122 198.71,-122 198.71,-86 343.29,-86 343.29,-122"/>
<text text-anchor="middle" x="271" y="-99.8" font-family="Times,serif" font-size="14.00">VerifyUserComponent</text>
</g>
<!-- VerifyUserComponent&#45;&gt;AuthModule -->
<g id="edge17" class="edge">
<title>VerifyUserComponent&#45;&gt;AuthModule</title>
<path fill="none" stroke="black" d="M271,-122.35C271,-176.69 271,-333 271,-333 271,-333 1503.1,-333 1503.1,-333"/>
<polygon fill="black" stroke="black" points="1503.11,-336.5 1513.1,-333 1503.1,-329.5 1503.11,-336.5"/>
</g>
<!-- LogoutComponent -->
<g id="node19" class="node">
<title>LogoutComponent</title>
<polygon fill="#ffffb3" stroke="black" points="482.78,-122 361.22,-122 361.22,-86 482.78,-86 482.78,-122"/>
<text text-anchor="middle" x="422" y="-99.8" font-family="Times,serif" font-size="14.00">LogoutComponent</text>
</g>
<!-- LogoutComponent&#45;&gt;AuthModule -->
<g id="edge18" class="edge">
<title>LogoutComponent&#45;&gt;AuthModule</title>
<path fill="none" stroke="black" d="M422,-122.11C422,-175.74 422,-330 422,-330 422,-330 1503.2,-330 1503.2,-330"/>
<polygon fill="black" stroke="black" points="1503.2,-333.5 1513.2,-330 1503.2,-326.5 1503.2,-333.5"/>
</g>
<!-- CommonModule -->
<g id="node20" class="node">
<title>CommonModule</title>
<polygon fill="#8dd3c7" stroke="black" points="1760.67,-122 1757.67,-126 1736.67,-126 1733.67,-122 1649.33,-122 1649.33,-86 1760.67,-86 1760.67,-122"/>
<text text-anchor="middle" x="1705" y="-99.8" font-family="Times,serif" font-size="14.00">CommonModule</text>
</g>
<!-- CommonModule&#45;&gt;SharedModule -->
<g id="edge38" class="edge">
<title>CommonModule&#45;&gt;SharedModule</title>
<path fill="none" stroke="black" d="M1713.11,-122.11C1713.11,-155.87 1713.11,-225 1713.11,-225 1713.11,-225 1834,-225 1834,-225 1834,-225 1834,-227.97 1834,-227.97"/>
<polygon fill="black" stroke="black" points="1830.5,-227.97 1834,-237.97 1837.5,-227.97 1830.5,-227.97"/>
</g>
<!-- CommonModule&#45;&gt;AuthModule -->
<g id="edge19" class="edge">
<title>CommonModule&#45;&gt;AuthModule</title>
<path fill="none" stroke="black" d="M1704.85,-122.32C1704.85,-153.13 1704.85,-212 1704.85,-212 1704.85,-212 1628.55,-212 1628.55,-212 1628.55,-212 1628.55,-311 1628.55,-311 1628.55,-311 1610.68,-311 1610.68,-311"/>
<polygon fill="black" stroke="black" points="1610.68,-307.5 1600.68,-311 1610.68,-314.5 1610.68,-307.5"/>
</g>
<!-- CommonModule&#45;&gt;MySpaceModule -->
<g id="edge31" class="edge">
<title>CommonModule&#45;&gt;MySpaceModule</title>
<path fill="none" stroke="black" d="M1737.16,-122.2C1737.16,-128.03 1737.16,-133 1737.16,-133 1737.16,-133 1917.58,-133 1917.58,-133 1917.58,-133 1917.58,-227.85 1917.58,-227.85"/>
<polygon fill="black" stroke="black" points="1914.08,-227.85 1917.58,-237.85 1921.08,-227.85 1914.08,-227.85"/>
</g>
<!-- UserModule -->
<g id="node32" class="node">
<title>UserModule</title>
<polygon fill="#8dd3c7" stroke="black" points="2028.98,-198 2025.98,-202 2004.98,-202 2001.98,-198 1943.02,-198 1943.02,-162 2028.98,-162 2028.98,-198"/>
<text text-anchor="middle" x="1986" y="-175.8" font-family="Times,serif" font-size="14.00">UserModule</text>
</g>
<!-- CommonModule&#45;&gt;UserModule -->
<g id="edge52" class="edge">
<title>CommonModule&#45;&gt;UserModule</title>
<path fill="none" stroke="black" d="M1745.05,-122.06C1745.05,-126.49 1745.05,-130 1745.05,-130 1745.05,-130 1947.57,-130 1947.57,-130 1947.57,-130 1947.57,-151.95 1947.57,-151.95"/>
<polygon fill="black" stroke="black" points="1944.07,-151.95 1947.57,-161.95 1951.07,-151.95 1944.07,-151.95"/>
</g>
<!-- TutorModule -->
<g id="node33" class="node">
<title>TutorModule</title>
<polygon fill="#8dd3c7" stroke="black" points="2137.15,-198 2134.15,-202 2113.15,-202 2110.15,-198 2046.85,-198 2046.85,-162 2137.15,-162 2137.15,-198"/>
<text text-anchor="middle" x="2092" y="-175.8" font-family="Times,serif" font-size="14.00">TutorModule</text>
</g>
<!-- CommonModule&#45;&gt;TutorModule -->
<g id="edge47" class="edge">
<title>CommonModule&#45;&gt;TutorModule</title>
<path fill="none" stroke="black" d="M1752.94,-122.17C1752.94,-124.45 1752.94,-126 1752.94,-126 1752.94,-126 2074.99,-126 2074.99,-126 2074.99,-126 2074.99,-151.72 2074.99,-151.72"/>
<polygon fill="black" stroke="black" points="2071.49,-151.72 2074.99,-161.72 2078.49,-151.72 2071.49,-151.72"/>
</g>
<!-- ReactiveFormsModule -->
<g id="node21" class="node">
<title>ReactiveFormsModule</title>
<polygon fill="#8dd3c7" stroke="black" points="1481.3,-122 1478.3,-126 1457.3,-126 1454.3,-122 1336.7,-122 1336.7,-86 1481.3,-86 1481.3,-122"/>
<text text-anchor="middle" x="1409" y="-99.8" font-family="Times,serif" font-size="14.00">ReactiveFormsModule</text>
</g>
<!-- ReactiveFormsModule&#45;&gt;AuthModule -->
<g id="edge20" class="edge">
<title>ReactiveFormsModule&#45;&gt;AuthModule</title>
<path fill="none" stroke="black" d="M1409,-122.28C1409,-172.7 1409,-310 1409,-310 1409,-310 1503.4,-310 1503.4,-310"/>
<polygon fill="black" stroke="black" points="1503.4,-313.5 1513.4,-310 1503.4,-306.5 1503.4,-313.5"/>
</g>
<!-- AuthRoutingModule -->
<g id="node22" class="node">
<title>AuthRoutingModule</title>
<polygon fill="#8dd3c7" stroke="black" points="1631.17,-122 1628.17,-126 1607.17,-126 1604.17,-122 1498.83,-122 1498.83,-86 1631.17,-86 1631.17,-122"/>
<text text-anchor="middle" x="1565" y="-99.8" font-family="Times,serif" font-size="14.00">AuthRoutingModule</text>
</g>
<!-- AuthRoutingModule&#45;&gt;AuthModule -->
<g id="edge21" class="edge">
<title>AuthRoutingModule&#45;&gt;AuthModule</title>
<path fill="none" stroke="black" d="M1505.59,-122.01C1505.59,-171.7 1505.59,-307 1505.59,-307 1505.59,-307 1506.35,-307 1506.35,-307"/>
<polygon fill="black" stroke="black" points="1503.18,-310.5 1513.18,-307 1503.18,-303.5 1503.18,-310.5"/>
</g>
<!-- RouterModule  -->
<g id="node24" class="node">
<title>RouterModule </title>
<polygon fill="#fb8072" stroke="black" points="1696.65,-198 1595.35,-198 1595.35,-162 1696.65,-162 1696.65,-198"/>
<text text-anchor="middle" x="1646" y="-175.8" font-family="Times,serif" font-size="14.00">RouterModule </text>
</g>
<!-- AuthRoutingModule&#45;&gt;RouterModule  -->
<g id="edge24" class="edge">
<title>AuthRoutingModule&#45;&gt;RouterModule </title>
<path fill="none" stroke="black" stroke-dasharray="5,2" d="M1607.39,-122.01C1607.39,-122.01 1607.39,-151.85 1607.39,-151.85"/>
<polygon fill="black" stroke="black" points="1603.89,-151.85 1607.39,-161.85 1610.89,-151.85 1603.89,-151.85"/>
</g>
<!-- RouterModule.forChild(args) -->
<g id="node23" class="node">
<title>RouterModule.forChild(args)</title>
<polygon fill="#8dd3c7" stroke="black" points="1902.73,-198 1899.73,-202 1878.73,-202 1875.73,-198 1721.27,-198 1721.27,-162 1902.73,-162 1902.73,-198"/>
<text text-anchor="middle" x="1812" y="-175.8" font-family="Times,serif" font-size="14.00">RouterModule.forChild(args)</text>
</g>
<!-- RouterModule.forChild(args)&#45;&gt;AuthRoutingModule -->
<g id="edge23" class="edge">
<title>RouterModule.forChild(args)&#45;&gt;AuthRoutingModule</title>
<path fill="none" stroke="black" d="M1729.27,-161.51C1729.27,-149.86 1729.27,-137 1729.27,-137 1729.27,-137 1619.36,-137 1619.36,-137 1619.36,-137 1619.36,-132.04 1619.36,-132.04"/>
<polygon fill="black" stroke="black" points="1622.86,-132.04 1619.36,-122.04 1615.86,-132.04 1622.86,-132.04"/>
</g>
<!-- TutorRoutingModule -->
<g id="node45" class="node">
<title>TutorRoutingModule</title>
<polygon fill="#8dd3c7" stroke="black" points="2278.77,-122 2275.77,-126 2254.77,-126 2251.77,-122 2143.23,-122 2143.23,-86 2278.77,-86 2278.77,-122"/>
<text text-anchor="middle" x="2211" y="-99.8" font-family="Times,serif" font-size="14.00">TutorRoutingModule</text>
</g>
<!-- RouterModule.forChild(args)&#45;&gt;TutorRoutingModule -->
<g id="edge49" class="edge">
<title>RouterModule.forChild(args)&#45;&gt;TutorRoutingModule</title>
<path fill="none" stroke="black" d="M1877.33,-161.76C1877.33,-154.57 1877.33,-148 1877.33,-148 1877.33,-148 2150.03,-148 2150.03,-148 2150.03,-148 2150.03,-132.15 2150.03,-132.15"/>
<polygon fill="black" stroke="black" points="2153.53,-132.15 2150.03,-122.15 2146.53,-132.15 2153.53,-132.15"/>
</g>
<!-- UserRoutingModule -->
<g id="node47" class="node">
<title>UserRoutingModule</title>
<polygon fill="#8dd3c7" stroke="black" points="1932.59,-122 1929.59,-126 1908.59,-126 1905.59,-122 1801.41,-122 1801.41,-86 1932.59,-86 1932.59,-122"/>
<text text-anchor="middle" x="1867" y="-99.8" font-family="Times,serif" font-size="14.00">UserRoutingModule</text>
</g>
<!-- RouterModule.forChild(args)&#45;&gt;UserRoutingModule -->
<g id="edge54" class="edge">
<title>RouterModule.forChild(args)&#45;&gt;UserRoutingModule</title>
<path fill="none" stroke="black" d="M1852.03,-161.99C1852.03,-161.99 1852.03,-132.15 1852.03,-132.15"/>
<polygon fill="black" stroke="black" points="1855.53,-132.15 1852.03,-122.15 1848.53,-132.15 1855.53,-132.15"/>
</g>
<!-- TutorsComponent -->
<g id="node25" class="node">
<title>TutorsComponent</title>
<polygon fill="#ffffb3" stroke="black" points="3267.88,-198 3150.12,-198 3150.12,-162 3267.88,-162 3267.88,-198"/>
<text text-anchor="middle" x="3209" y="-175.8" font-family="Times,serif" font-size="14.00">TutorsComponent</text>
</g>
<!-- TutorsComponent&#45;&gt;MySpaceModule -->
<g id="edge25" class="edge">
<title>TutorsComponent&#45;&gt;MySpaceModule</title>
<path fill="none" stroke="black" d="M3197.62,-198.21C3197.62,-224.51 3197.62,-270 3197.62,-270 3197.62,-270 2023.53,-270 2023.53,-270"/>
<polygon fill="black" stroke="black" points="2023.53,-266.5 2013.53,-270 2023.53,-273.5 2023.53,-266.5"/>
</g>
<!-- MessagesComponent -->
<g id="node26" class="node">
<title>MessagesComponent</title>
<polygon fill="#ffffb3" stroke="black" points="3131.75,-198 2996.25,-198 2996.25,-162 3131.75,-162 3131.75,-198"/>
<text text-anchor="middle" x="3064" y="-175.8" font-family="Times,serif" font-size="14.00">MessagesComponent</text>
</g>
<!-- MessagesComponent&#45;&gt;MySpaceModule -->
<g id="edge26" class="edge">
<title>MessagesComponent&#45;&gt;MySpaceModule</title>
<path fill="none" stroke="black" d="M3019.6,-198.24C3019.6,-223.48 3019.6,-266 3019.6,-266 3019.6,-266 2023.38,-266 2023.38,-266"/>
<polygon fill="black" stroke="black" points="2023.38,-262.5 2013.38,-266 2023.38,-269.5 2023.38,-262.5"/>
</g>
<!-- SettingsComponent -->
<g id="node27" class="node">
<title>SettingsComponent</title>
<polygon fill="#ffffb3" stroke="black" points="2978.45,-198 2851.55,-198 2851.55,-162 2978.45,-162 2978.45,-198"/>
<text text-anchor="middle" x="2915" y="-175.8" font-family="Times,serif" font-size="14.00">SettingsComponent</text>
</g>
<!-- SettingsComponent&#45;&gt;MySpaceModule -->
<g id="edge27" class="edge">
<title>SettingsComponent&#45;&gt;MySpaceModule</title>
<path fill="none" stroke="black" d="M2877.34,-198.2C2877.34,-222.36 2877.34,-262 2877.34,-262 2877.34,-262 2023.53,-262 2023.53,-262"/>
<polygon fill="black" stroke="black" points="2023.53,-258.5 2013.53,-262 2023.53,-265.5 2023.53,-258.5"/>
</g>
<!-- MyspaceLayoutComponent -->
<g id="node28" class="node">
<title>MyspaceLayoutComponent</title>
<polygon fill="#ffffb3" stroke="black" points="2833.52,-198 2662.48,-198 2662.48,-162 2833.52,-162 2833.52,-198"/>
<text text-anchor="middle" x="2748" y="-175.8" font-family="Times,serif" font-size="14.00">MyspaceLayoutComponent</text>
</g>
<!-- MyspaceLayoutComponent&#45;&gt;MySpaceModule -->
<g id="edge28" class="edge">
<title>MyspaceLayoutComponent&#45;&gt;MySpaceModule</title>
<path fill="none" stroke="black" d="M2699.52,-198.09C2699.52,-221.13 2699.52,-258 2699.52,-258 2699.52,-258 2023.42,-258 2023.42,-258"/>
<polygon fill="black" stroke="black" points="2023.42,-254.5 2013.42,-258 2023.42,-261.5 2023.42,-254.5"/>
</g>
<!-- SidemenuComponent -->
<g id="node29" class="node">
<title>SidemenuComponent</title>
<polygon fill="#ffffb3" stroke="black" points="2644.83,-198 2507.17,-198 2507.17,-162 2644.83,-162 2644.83,-198"/>
<text text-anchor="middle" x="2576" y="-175.8" font-family="Times,serif" font-size="14.00">SidemenuComponent</text>
</g>
<!-- SidemenuComponent&#45;&gt;MySpaceModule -->
<g id="edge29" class="edge">
<title>SidemenuComponent&#45;&gt;MySpaceModule</title>
<path fill="none" stroke="black" d="M2545.03,-198.29C2545.03,-220.21 2545.03,-254 2545.03,-254 2545.03,-254 2023.38,-254 2023.38,-254"/>
<polygon fill="black" stroke="black" points="2023.38,-250.5 2013.38,-254 2023.38,-257.5 2023.38,-250.5"/>
</g>
<!-- HeadermenuComponent -->
<g id="node30" class="node">
<title>HeadermenuComponent</title>
<polygon fill="#ffffb3" stroke="black" points="2489.35,-198 2336.65,-198 2336.65,-162 2489.35,-162 2489.35,-198"/>
<text text-anchor="middle" x="2413" y="-175.8" font-family="Times,serif" font-size="14.00">HeadermenuComponent</text>
</g>
<!-- HeadermenuComponent&#45;&gt;MySpaceModule -->
<g id="edge30" class="edge">
<title>HeadermenuComponent&#45;&gt;MySpaceModule</title>
<path fill="none" stroke="black" d="M2342.57,-198.03C2342.57,-218.77 2342.57,-250 2342.57,-250 2342.57,-250 2023.48,-250 2023.48,-250"/>
<polygon fill="black" stroke="black" points="2023.48,-246.5 2013.48,-250 2023.48,-253.5 2023.48,-246.5"/>
</g>
<!-- MySpaceRoutingModule -->
<g id="node31" class="node">
<title>MySpaceRoutingModule</title>
<polygon fill="#8dd3c7" stroke="black" points="2312.54,-198 2309.54,-202 2288.54,-202 2285.54,-198 2155.46,-198 2155.46,-162 2312.54,-162 2312.54,-198"/>
<text text-anchor="middle" x="2234" y="-175.8" font-family="Times,serif" font-size="14.00">MySpaceRoutingModule</text>
</g>
<!-- MySpaceRoutingModule&#45;&gt;MySpaceModule -->
<g id="edge32" class="edge">
<title>MySpaceRoutingModule&#45;&gt;MySpaceModule</title>
<path fill="none" stroke="black" d="M2160.09,-198.03C2160.09,-217.58 2160.09,-246 2160.09,-246 2160.09,-246 2023.3,-246 2023.3,-246"/>
<polygon fill="black" stroke="black" points="2023.3,-242.5 2013.3,-246 2023.3,-249.5 2023.3,-242.5"/>
</g>
<!-- UserModule&#45;&gt;MySpaceModule -->
<g id="edge33" class="edge">
<title>UserModule&#45;&gt;MySpaceModule</title>
<path fill="none" stroke="black" d="M1978.11,-198.01C1978.11,-198.01 1978.11,-227.85 1978.11,-227.85"/>
<polygon fill="black" stroke="black" points="1974.61,-227.85 1978.11,-237.85 1981.61,-227.85 1974.61,-227.85"/>
</g>
<!-- TutorModule&#45;&gt;MySpaceModule -->
<g id="edge34" class="edge">
<title>TutorModule&#45;&gt;MySpaceModule</title>
<path fill="none" stroke="black" d="M2092,-198.27C2092,-216.56 2092,-242 2092,-242 2092,-242 2023.47,-242 2023.47,-242"/>
<polygon fill="black" stroke="black" points="2023.47,-238.5 2013.47,-242 2023.47,-245.5 2023.47,-238.5"/>
</g>
<!-- AlertComponent -->
<g id="node34" class="node">
<title>AlertComponent</title>
<polygon fill="#ffffb3" stroke="black" points="3549.1,-339 3438.9,-339 3438.9,-303 3549.1,-303 3549.1,-339"/>
<text text-anchor="middle" x="3494" y="-316.8" font-family="Times,serif" font-size="14.00">AlertComponent</text>
</g>
<!-- AlertComponent&#45;&gt;SharedModule -->
<g id="edge35" class="edge">
<title>AlertComponent&#45;&gt;SharedModule</title>
<path fill="none" stroke="black" d="M3494,-302.93C3494,-293.54 3494,-284 3494,-284 3494,-284 1793.74,-284 1793.74,-284 1793.74,-284 1793.74,-283.02 1793.74,-283.02"/>
<polygon fill="black" stroke="black" points="1797.24,-284.21 1793.74,-274.21 1790.24,-284.21 1797.24,-284.21"/>
</g>
<!-- AlertScreenComponent -->
<g id="node35" class="node">
<title>AlertScreenComponent</title>
<polygon fill="#ffffb3" stroke="black" points="3914.18,-339 3765.82,-339 3765.82,-303 3914.18,-303 3914.18,-339"/>
<text text-anchor="middle" x="3840" y="-316.8" font-family="Times,serif" font-size="14.00">AlertScreenComponent</text>
</g>
<!-- AlertScreenComponent&#45;&gt;SharedModule -->
<g id="edge36" class="edge">
<title>AlertScreenComponent&#45;&gt;SharedModule</title>
<path fill="none" stroke="black" d="M3840,-302.51C3840,-290.86 3840,-278 3840,-278 3840,-278 1811.63,-278 1811.63,-278 1811.63,-278 1811.63,-277.62 1811.63,-277.62"/>
<polygon fill="black" stroke="black" points="1815.13,-284.17 1811.63,-274.17 1808.13,-284.17 1815.13,-284.17"/>
</g>
<!-- CenteredSkeletonComponent -->
<g id="node36" class="node">
<title>CenteredSkeletonComponent</title>
<polygon fill="#ffffb3" stroke="black" points="3747.36,-339 3566.64,-339 3566.64,-303 3747.36,-303 3747.36,-339"/>
<text text-anchor="middle" x="3657" y="-316.8" font-family="Times,serif" font-size="14.00">CenteredSkeletonComponent</text>
</g>
<!-- CenteredSkeletonComponent&#45;&gt;SharedModule -->
<g id="edge37" class="edge">
<title>CenteredSkeletonComponent&#45;&gt;SharedModule</title>
<path fill="none" stroke="black" d="M3657,-302.87C3657,-292.29 3657,-281 3657,-281 3657,-281 1802.68,-281 1802.68,-281 1802.68,-281 1802.68,-280.32 1802.68,-280.32"/>
<polygon fill="black" stroke="black" points="1806.18,-284.17 1802.68,-274.17 1799.18,-284.17 1806.18,-284.17"/>
</g>
<!-- CalendarsComponent -->
<g id="node42" class="node">
<title>CalendarsComponent</title>
<polygon fill="#ffffb3" stroke="black" points="2773.81,-122 2636.19,-122 2636.19,-86 2773.81,-86 2773.81,-122"/>
<text text-anchor="middle" x="2705" y="-99.8" font-family="Times,serif" font-size="14.00">CalendarsComponent</text>
</g>
<!-- CalendarsComponent&#45;&gt;TutorModule -->
<g id="edge44" class="edge">
<title>CalendarsComponent&#45;&gt;TutorModule</title>
<path fill="none" stroke="black" d="M2640.5,-122.01C2640.5,-138.05 2640.5,-159 2640.5,-159 2640.5,-159 2128.82,-159 2128.82,-159 2128.82,-159 2128.82,-159.29 2128.82,-159.29"/>
<polygon fill="black" stroke="black" points="2125.32,-151.92 2128.82,-161.92 2132.32,-151.92 2125.32,-151.92"/>
</g>
<!-- OverviewComponent -->
<g id="node43" class="node">
<title>OverviewComponent</title>
<polygon fill="#ffffb3" stroke="black" points="2618.03,-122 2481.97,-122 2481.97,-86 2618.03,-86 2618.03,-122"/>
<text text-anchor="middle" x="2550" y="-99.8" font-family="Times,serif" font-size="14.00">OverviewComponent</text>
</g>
<!-- OverviewComponent&#45;&gt;TutorModule -->
<g id="edge45" class="edge">
<title>OverviewComponent&#45;&gt;TutorModule</title>
<path fill="none" stroke="black" d="M2485.58,-122.12C2485.58,-136.78 2485.58,-155 2485.58,-155 2485.58,-155 2120.32,-155 2120.32,-155 2120.32,-155 2120.32,-155.68 2120.32,-155.68"/>
<polygon fill="black" stroke="black" points="2116.82,-151.83 2120.32,-161.83 2123.82,-151.83 2116.82,-151.83"/>
</g>
<!-- CreateSessionComponent -->
<g id="node44" class="node">
<title>CreateSessionComponent</title>
<polygon fill="#ffffb3" stroke="black" points="2463.14,-122 2302.86,-122 2302.86,-86 2463.14,-86 2463.14,-122"/>
<text text-anchor="middle" x="2383" y="-99.8" font-family="Times,serif" font-size="14.00">CreateSessionComponent</text>
</g>
<!-- CreateSessionComponent&#45;&gt;TutorModule -->
<g id="edge46" class="edge">
<title>CreateSessionComponent&#45;&gt;TutorModule</title>
<path fill="none" stroke="black" d="M2307.72,-122.15C2307.72,-135.74 2307.72,-152 2307.72,-152 2307.72,-152 2111.82,-152 2111.82,-152 2111.82,-152 2111.82,-152.98 2111.82,-152.98"/>
<polygon fill="black" stroke="black" points="2108.32,-151.79 2111.82,-161.79 2115.32,-151.79 2108.32,-151.79"/>
</g>
<!-- TutorRoutingModule&#45;&gt;RouterModule  -->
<g id="edge50" class="edge">
<title>TutorRoutingModule&#45;&gt;RouterModule </title>
<path fill="none" stroke="black" stroke-dasharray="5,2" d="M2217.06,-122.13C2217.06,-132.71 2217.06,-144 2217.06,-144 2217.06,-144 1680.77,-144 1680.77,-144 1680.77,-144 1680.77,-151.58 1680.77,-151.58"/>
<polygon fill="black" stroke="black" points="1677.27,-151.58 1680.77,-161.58 1684.27,-151.58 1677.27,-151.58"/>
</g>
<!-- TutorRoutingModule&#45;&gt;TutorModule -->
<g id="edge48" class="edge">
<title>TutorRoutingModule&#45;&gt;TutorModule</title>
<path fill="none" stroke="black" d="M2152.63,-122.01C2152.63,-144.49 2152.63,-180 2152.63,-180 2152.63,-180 2147.33,-180 2147.33,-180"/>
<polygon fill="black" stroke="black" points="2147.33,-176.5 2137.33,-180 2147.33,-183.5 2147.33,-176.5"/>
</g>
<!-- UOverviewComponent -->
<g id="node46" class="node">
<title>UOverviewComponent</title>
<polygon fill="#ffffb3" stroke="black" points="2103.13,-122 1956.87,-122 1956.87,-86 2103.13,-86 2103.13,-122"/>
<text text-anchor="middle" x="2030" y="-99.8" font-family="Times,serif" font-size="14.00">UOverviewComponent</text>
</g>
<!-- UOverviewComponent&#45;&gt;UserModule -->
<g id="edge51" class="edge">
<title>UOverviewComponent&#45;&gt;UserModule</title>
<path fill="none" stroke="black" d="M1992.84,-122.01C1992.84,-122.01 1992.84,-151.85 1992.84,-151.85"/>
<polygon fill="black" stroke="black" points="1989.34,-151.85 1992.84,-161.85 1996.34,-151.85 1989.34,-151.85"/>
</g>
<!-- UserRoutingModule&#45;&gt;RouterModule  -->
<g id="edge55" class="edge">
<title>UserRoutingModule&#45;&gt;RouterModule </title>
<path fill="none" stroke="black" stroke-dasharray="5,2" d="M1826.74,-122.07C1826.74,-131.46 1826.74,-141 1826.74,-141 1826.74,-141 1664.97,-141 1664.97,-141 1664.97,-141 1664.97,-151.87 1664.97,-151.87"/>
<polygon fill="black" stroke="black" points="1661.47,-151.87 1664.97,-161.87 1668.47,-151.87 1661.47,-151.87"/>
</g>
<!-- UserRoutingModule&#45;&gt;UserModule -->
<g id="edge53" class="edge">
<title>UserRoutingModule&#45;&gt;UserModule</title>
<path fill="none" stroke="black" d="M1932.81,-104C1944.02,-104 1952.13,-104 1952.13,-104 1952.13,-104 1952.13,-151.99 1952.13,-151.99"/>
<polygon fill="black" stroke="black" points="1948.63,-151.99 1952.13,-161.99 1955.63,-151.99 1948.63,-151.99"/>
</g>
</g>
</svg>
